<?xml version="1.0" standalone="no"?>
<!DOCTYPE svg PUBLIC "-//W3C//DTD SVG 1.1//EN" "http://www.w3.org/Graphics/SVG/1.1/DTD/svg11.dtd" >
<svg xmlns="http://www.w3.org/2000/svg" xmlns:xlink="http://www.w3.org/1999/xlink" version="1.1">
<metadata></metadata>
<defs>
<font id="geomanistregular" horiz-adv-x="1619" >
<font-face units-per-em="2048" ascent="1536" descent="-512" />
<missing-glyph horiz-adv-x="520" />
<glyph unicode="&#x2e;&#x2e;&#x2e;" horiz-adv-x="1382" d="M100 88q0 47 35 81t82 34t81 -34t34 -81t-34 -81t-81 -34t-82 34t-35 81zM575 88q0 47 34 81t81 34t82 -34t35 -81t-35 -81t-82 -34t-81 34t-34 81zM1049 88q0 47 34.5 81t81.5 34t81 -34t34 -81t-34 -81t-81 -34t-81.5 34t-34.5 81z" />
<glyph horiz-adv-x="0" />
<glyph unicode="&#xd;" horiz-adv-x="681" />
<glyph unicode=" "  horiz-adv-x="520" />
<glyph unicode="&#x09;" horiz-adv-x="520" />
<glyph unicode="&#xa0;" horiz-adv-x="520" />
<glyph unicode="!" horiz-adv-x="528" d="M150 88q0 47 34.5 81t81.5 34t81 -34t34 -81t-34 -81t-81 -34t-81.5 34t-34.5 81zM180 1434h170l-14 -1074h-141z" />
<glyph unicode="&#x22;" horiz-adv-x="610" d="M98 1434h144l-13 -406h-118zM369 1434h143l-12 -406h-121z" />
<glyph unicode="#" horiz-adv-x="1327" d="M61 393l27 133h238l80 379h-236l25 133h239l82 396h146l-80 -396h295l81 396h146l-80 -396h240l-25 -133h-244l-77 -379h241l-26 -133h-244l-82 -393h-145l79 393h-297l-82 -393h-145l82 393h-238zM473 526h297l80 379h-297z" />
<glyph unicode="$" horiz-adv-x="1036" d="M70 289l141 61q78 -223 313 -223q117 0 188.5 63.5t71.5 174.5q0 84 -50 146t-123.5 98t-162 81t-162 89t-123.5 125t-50 190q0 143 93 243.5t253 116.5v115h125v-113q141 -18 226 -99t118 -171l-140 -58q-82 180 -268 181q-115 0 -178 -61.5t-63 -153.5q0 -90 69.5 -155 t167.5 -110t197.5 -96t169 -141t69.5 -217q0 -158 -99 -268.5t-269 -129.5v-153h-125v153q-162 14 -257 104.5t-132 207.5z" />
<glyph unicode="%" horiz-adv-x="1550" d="M82 1145q0 131 90 223t223 92q139 0 231.5 -91t92.5 -224q0 -131 -92.5 -221t-229.5 -90q-135 0 -225 90t-90 221zM145 0l1092 1434h168l-1094 -1434h-166zM219 1145q0 -78 51 -131t129 -53q82 0 131.5 53t49.5 131q0 80 -51.5 134t-131.5 54q-78 0 -128 -54t-50 -134z M829 285q0 131 90.5 223t225.5 92q137 0 229 -91t92 -224q0 -131 -92 -221.5t-227 -90.5q-137 0 -227.5 89.5t-90.5 222.5zM967 285q0 -80 50 -133.5t130 -53.5q82 0 131 53.5t49 133.5t-50 133t-132 53q-78 0 -128 -53t-50 -133z" />
<glyph unicode="&#x26;" horiz-adv-x="1284" d="M76 397q0 244 252 387q-156 160 -156 318q0 147 104.5 252.5t286.5 105.5q184 0 292 -99t108 -261q0 -127 -82 -223.5t-240 -186.5l340 -328q41 74 54.5 142.5t13.5 179.5h155q0 -268 -106 -436l149 -150l-117 -112l-139 147q-160 -160 -418 -160q-227 0 -362 121 t-135 303zM238 406q0 -131 97 -208t238 -77q188 0 310 125l-449 432q-86 -37 -141 -106.5t-55 -165.5zM326 1096q0 -61 33.5 -121t71.5 -97.5t106 -95.5q272 137 272 314q0 100 -67.5 163.5t-176.5 63.5q-104 0 -171.5 -64.5t-67.5 -162.5z" />
<glyph unicode="'" horiz-adv-x="342" d="M98 1434h144l-13 -406h-118z" />
<glyph unicode="(" horiz-adv-x="612" d="M137 37v1196q0 330 332 330v-142q-170 0 -170 -180v-1212q0 -180 170 -181v-141q-332 0 -332 330z" />
<glyph unicode=")" horiz-adv-x="612" d="M143 -152q170 1 170 181v1212q0 180 -170 180v142q332 0 332 -330v-1196q0 -330 -332 -330v141z" />
<glyph unicode="*" horiz-adv-x="876" d="M102 958l213 123l-213 125l64 105l207 -123v246h127v-248l209 125l61 -103l-213 -125l215 -122l-63 -105l-209 123v-244h-127v244l-207 -123z" />
<glyph unicode="+" horiz-adv-x="1126" d="M82 569v138h407v436h148v-436h407v-138h-407v-438h-148v438h-407z" />
<glyph unicode="," horiz-adv-x="434" d="M100 88q0 47 33 81t80 34q51 0 86 -34t35 -89q0 -188 -158 -328l-76 74q86 66 101 149q-45 6 -73 39t-28 74z" />
<glyph unicode="-" horiz-adv-x="692" d="M84 541v151h522v-151h-522z" />
<glyph unicode="." horiz-adv-x="436" d="M100 88q0 47 35 81t82 34t81 -34t34 -81t-34 -81t-81 -34t-82 34t-35 81z" />
<glyph unicode="/" horiz-adv-x="872" d="M51 -221l621 1757h149l-620 -1757h-150z" />
<glyph unicode="0" horiz-adv-x="1134" d="M104 717q0 375 103.5 559t359.5 184t359.5 -184t103.5 -559t-103.5 -559.5t-359.5 -184.5t-359.5 184.5t-103.5 559.5zM272 717q0 -117 4.5 -192.5t21.5 -157.5t48 -129.5t86 -78t135 -30.5t134.5 30.5t85 78t48 129.5t21.5 157.5t4 192.5t-4 192.5t-21.5 157.5t-48 129 t-85 78t-134.5 31q-66 0 -116 -19.5t-81.5 -60.5t-51 -88t-29.5 -120t-13.5 -139.5t-3.5 -160.5z" />
<glyph unicode="1" horiz-adv-x="636" d="M82 1335l248 99h135v-1434h-166v1266l-166 -68z" />
<glyph unicode="2" horiz-adv-x="1044" d="M90 0v61q0 94 50 187.5t126 166t164 153.5t164 152t126 158t50 173q0 113 -69.5 183.5t-190.5 70.5q-211 0 -268 -222l-146 41q10 51 36 103.5t73 108t128 90t181 34.5q199 0 312.5 -113.5t113.5 -291.5q0 -119 -66.5 -232.5t-162 -202t-190.5 -168t-165.5 -158.5 t-74.5 -147h680v-147h-871z" />
<glyph unicode="3" horiz-adv-x="1075" d="M80 287l141 51q68 -211 303 -211q123 0 205 81t82 206q0 127 -88 203.5t-248 76.5h-110v133l378 457h-616v150h803v-156l-375 -438q74 0 145.5 -24.5t136 -73t104.5 -132.5t40 -192q0 -190 -130 -316.5t-324.5 -126.5t-302 91.5t-144.5 220.5z" />
<glyph unicode="4" horiz-adv-x="1146" d="M63 362v125l654 947h176v-924h188v-148h-188v-362h-164v362h-666zM246 510h483v709z" />
<glyph unicode="5" horiz-adv-x="1071" d="M80 287l143 51q63 -211 303 -211q131 0 209 91t78 228.5t-81 228.5t-220 91q-127 0 -238 -94l-139 24l31 738h731v-152h-582l-20 -442q102 70 240 69q199 0 322.5 -127t123.5 -327q0 -207 -124 -344.5t-325 -137.5q-188 0 -300.5 93.5t-151.5 220.5z" />
<glyph unicode="6" horiz-adv-x="1118" d="M100 602q1 858 531 858q174 0 323 -102l-75 -127q-104 74 -242 74q-102 0 -177 -48.5t-114 -129t-56.5 -170t-17.5 -189.5q115 162 320 162q199 0 312.5 -129t113.5 -334q0 -229 -122 -361.5t-331 -132.5q-465 0 -465 629zM268 580q0 -100 11.5 -172t41 -140.5t93 -103.5 t157.5 -35q127 0 204 87t77 247q0 137 -73.5 226t-209.5 89q-201 0 -301 -198z" />
<glyph unicode="7" horiz-adv-x="989" d="M59 1282v152h881v-127l-506 -1307h-176l502 1282h-701z" />
<glyph unicode="8" horiz-adv-x="1124" d="M92 401q0 145 77 236.5t167 128.5q-72 35 -134.5 117t-62.5 194q0 170 120 276.5t302 106.5q184 0 304 -106.5t120 -276.5q0 -113 -62.5 -194.5t-134.5 -116.5q90 -37 167 -128t77 -237q0 -190 -131 -309t-340 -119t-339 119t-130 309zM262 401q0 -115 80 -195.5 t219 -80.5t219 81t80 195q0 129 -84 205t-215 76q-129 0 -214 -76t-85 -205zM307 1071q0 -98 72.5 -167.5t181.5 -69.5q111 0 183.5 69.5t72.5 167.5q0 100 -67.5 168t-188.5 68q-119 0 -186.5 -68t-67.5 -168z" />
<glyph unicode="9" horiz-adv-x="1118" d="M100 967q0 229 122 361t331 132q465 0 465 -629q-1 -858 -531 -858q-174 0 -323 103l76 127q104 -74 241 -74q102 0 177 48t114 129t56.5 170t17.5 190q-115 -162 -320 -162q-199 0 -312.5 129t-113.5 334zM266 971q0 -137 74 -226.5t209 -89.5q201 0 301 199 q0 100 -11.5 172t-41 140.5t-93 103.5t-157.5 35q-127 0 -204 -87.5t-77 -246.5z" />
<glyph unicode=":" horiz-adv-x="434" d="M100 88q0 47 35 81t82 34t81 -34t34 -81t-34 -81t-81 -34t-82 34t-35 81zM100 883q0 47 35 80.5t82 33.5t81 -33.5t34 -80.5t-34 -82t-81 -35t-82 35t-35 82z" />
<glyph unicode=";" horiz-adv-x="434" d="M100 88q0 47 33 81t80 34q51 0 86 -34t35 -89q0 -188 -158 -328l-76 74q88 68 101 149q-45 6 -73 39t-28 74zM100 883q0 47 35 80.5t82 33.5t81 -33.5t34 -80.5t-34 -82t-81 -35t-82 35t-35 82z" />
<glyph unicode="&#x3c;" horiz-adv-x="1009" d="M88 573v132l832 378v-151l-662 -291l662 -297v-149z" />
<glyph unicode="=" horiz-adv-x="1126" d="M82 391v137h962v-137h-962zM82 731v135h962v-135h-962z" />
<glyph unicode="&#x3e;" horiz-adv-x="1009" d="M88 195v149l664 297l-664 291v151l834 -378v-132z" />
<glyph unicode="?" horiz-adv-x="956" d="M80 1198q37 102 132 182t251 80q188 0 299.5 -107.5t111.5 -275.5q0 -92 -37.5 -170t-91 -131t-107.5 -101t-92 -105.5t-38 -118.5v-91h-160v97q0 76 37 143.5t89 117.5t104.5 100t89.5 114.5t37 138.5q0 106 -66 173t-180 67q-172 0 -250 -172zM315 88q0 47 35 81t82 34 t81 -34t34 -81t-34 -81t-81 -34t-82 34t-35 81z" />
<glyph unicode="@" horiz-adv-x="1824" d="M84 539q0 362 237.5 603.5t602.5 241.5q186 0 340.5 -61t257 -165.5t159 -244t56.5 -297.5q0 -240 -88 -364.5t-242 -124.5q-90 0 -146.5 43t-76.5 113q-16 -29 -46 -61t-96.5 -63.5t-142.5 -31.5q-166 0 -277.5 111.5t-111.5 291.5q0 178 110.5 291t274.5 113 q98 0 163.5 -39t96.5 -80v107h137v-523q0 -150 125 -149q82 0 132 91t50 273q0 287 -184 467.5t-493 180.5q-307 0 -502 -209t-195 -512q0 -309 191.5 -511t492.5 -202q217 0 383 94l62 -100q-72 -49 -191 -84t-254 -35q-346 0 -585.5 237.5t-239.5 598.5zM657 530.5 q0 -124.5 72 -200.5t180 -76q106 0 179 73.5t73 207.5q0 121 -69.5 195.5t-184.5 74.5q-106 0 -178 -75t-72 -199.5z" />
<glyph unicode="A" horiz-adv-x="1292" d="M25 0l536 1434h168l537 -1434h-168l-172 465h-561l-172 -465h-168zM416 608h461l-232 643z" />
<glyph unicode="B" horiz-adv-x="1114" d="M162 0v1434h395q203 0 314.5 -97.5t111.5 -269.5q0 -215 -184 -315q106 -39 169.5 -128t63.5 -216q0 -188 -122 -298t-310 -110h-438zM328 145h243q133 0 211 67t78 200q0 135 -79 198.5t-212 63.5h-241v-529zM328 813h247q106 0 172 66.5t66 175t-62.5 170t-175.5 61.5 h-247v-473z" />
<glyph unicode="C" horiz-adv-x="1343" d="M80 717q0 315 209 529t514 214q260 0 444 -149l-53 -148q-174 141 -387 142q-238 0 -396.5 -169t-158.5 -419q0 -254 156.5 -421t402.5 -167q224 0 408 154l51 -146q-37 -33 -90.5 -65.5t-157.5 -65.5t-215 -33q-313 0 -520 212t-207 532z" />
<glyph unicode="D" horiz-adv-x="1304" d="M162 0v1434h295q365 0 566.5 -189.5t201.5 -527.5q0 -352 -202 -534.5t-566 -182.5h-295zM328 147h161q264 0 415 146.5t151 423.5q0 266 -152.5 416.5t-413.5 150.5h-161v-1137z" />
<glyph unicode="E" horiz-adv-x="970" d="M162 0v1434h680v-152h-514v-477h448v-150h-448v-505h536v-150h-702z" />
<glyph unicode="F" horiz-adv-x="956" d="M162 0v1434h680v-152h-514v-491h450v-150h-450v-641h-166z" />
<glyph unicode="G" horiz-adv-x="1507" d="M80 715q0 317 206 531t519 214q326 0 528 -209l-106 -110q-170 164 -418 164q-246 0 -400.5 -168t-154.5 -422q0 -258 155.5 -423t397.5 -165q109 0 205 29.5t140 59.5t75 60v302h-320v145h479v-518q-229 -231 -585 -232q-309 0 -515 209t-206 533z" />
<glyph unicode="H" horiz-adv-x="1417" d="M162 0v1434h166v-629h762v629h165v-1434h-165v653h-762v-653h-166z" />
<glyph unicode="I" horiz-adv-x="489" d="M162 0v1434h166v-1434h-166z" />
<glyph unicode="J" horiz-adv-x="706" d="M45 8l18 148q68 -18 136 -19q180 0 180 209v1088h166v-1110q0 -164 -87 -250t-241 -86q-111 0 -172 20z" />
<glyph unicode="K" horiz-adv-x="1157" d="M162 0v1434h166v-660l571 660h201l-602 -686l626 -748h-202l-594 721v-721h-166z" />
<glyph unicode="L" horiz-adv-x="919" d="M162 0v1434h166v-1284h536v-150h-702z" />
<glyph unicode="M" horiz-adv-x="1775" d="M160 0v1434h213l514 -1117l516 1117h211v-1434h-160v1194l-485 -1063h-164l-486 1063v-1194h-159z" />
<glyph unicode="N" horiz-adv-x="1441" d="M160 0v1434h166l790 -1172v1172h164v-1434h-164l-790 1167v-1167h-166z" />
<glyph unicode="O" d="M78 717q0 317 210 530t521 213t521 -214t210 -529q0 -317 -210 -530.5t-523 -213.5q-311 0 -520 212.5t-209 531.5zM250 717q0 -254 159.5 -421t399.5 -167t399.5 167t159.5 421q0 252 -160.5 420t-398.5 168t-398.5 -168t-160.5 -420z" />
<glyph unicode="P" horiz-adv-x="1040" d="M162 0v1434h393q197 0 312.5 -111t115.5 -303.5t-119 -306t-309 -113.5h-227v-600h-166zM328 748h213q127 0 199.5 73.5t72.5 198.5q0 123 -71.5 194.5t-200.5 71.5h-213v-538z" />
<glyph unicode="Q" d="M78 717q0 317 210 530t521 213t521 -214t210 -529q0 -285 -174 -488l152 -149l-109 -109l-154 150q-188 -147 -448 -148q-311 0 -520 212.5t-209 531.5zM250 717q0 -254 159.5 -421t399.5 -167q195 0 330 104l-160 154l106 111l160 -154q123 147 123 373 q0 252 -160.5 420t-398.5 168t-398.5 -168t-160.5 -420z" />
<glyph unicode="R" horiz-adv-x="1120" d="M162 0v1434h364q217 0 332 -104.5t115 -293.5q0 -133 -64.5 -236.5t-185.5 -142.5l356 -657h-184l-324 623h-243v-623h-166zM328 768h198q272 0 273 266q0 252 -283 252h-188v-518z" />
<glyph unicode="S" horiz-adv-x="1036" d="M70 289l141 61q78 -223 313 -223q117 0 188.5 63.5t71.5 174.5q0 84 -50 146t-123.5 98t-162 81t-162 89t-123.5 125t-50 190q0 158 111.5 262t297.5 104q170 0 269.5 -87t136.5 -187l-140 -58q-82 180 -268 181q-115 0 -178 -61.5t-63 -153.5q0 -90 69.5 -155 t167.5 -110t197.5 -96t169 -141t69.5 -217q0 -174 -118.5 -288t-315.5 -114q-188 0 -297.5 94.5t-150.5 221.5z" />
<glyph unicode="T" horiz-adv-x="1046" d="M43 1282v152h938v-152h-385v-1282h-166v1282h-387z" />
<glyph unicode="U" horiz-adv-x="1376" d="M154 514v920h165v-918q0 -182 95.5 -285.5t273.5 -103.5t274.5 104.5t96.5 286.5v916h164v-918q0 -246 -141.5 -394.5t-393.5 -148.5q-254 0 -394 146.5t-140 394.5z" />
<glyph unicode="V" horiz-adv-x="1304" d="M18 1434h183l450 -1237l453 1237h182l-545 -1434h-178z" />
<glyph unicode="W" horiz-adv-x="1931" d="M23 1434h178l329 -1223l353 1223h164l352 -1223l332 1223h176l-408 -1434h-186l-348 1190l-349 -1190h-184z" />
<glyph unicode="X" horiz-adv-x="1234" d="M27 0l487 741l-453 693h199l356 -566l359 566h194l-452 -693l489 -741h-188l-406 616l-399 -616h-186z" />
<glyph unicode="Y" horiz-adv-x="1089" d="M18 1434h191l336 -605l342 605h184l-444 -762v-672h-164v672z" />
<glyph unicode="Z" horiz-adv-x="1216" d="M72 0v121l843 1163h-817v150h1032v-123l-845 -1161h850v-150h-1063z" />
<glyph unicode="[" horiz-adv-x="612" d="M137 -293v1856h332v-142h-170v-1573h170v-141h-332z" />
<glyph unicode="\" horiz-adv-x="872" d="M51 1536h150l620 -1757h-149z" />
<glyph unicode="]" horiz-adv-x="624" d="M143 -152h170v1573h-170v142h332v-1856h-332v141z" />
<glyph unicode="^" horiz-adv-x="1071" d="M92 651l373 783h139l375 -783h-162l-282 619l-283 -619h-160z" />
<glyph unicode="_" horiz-adv-x="1241" d="M68 -59h1106v-136h-1106v136z" />
<glyph unicode="`" horiz-adv-x="1001" d="M340 1485h176l148 -291h-144z" />
<glyph unicode="a" horiz-adv-x="1044" d="M70 328q0 152 114.5 251t294.5 99q94 0 169 -28.5t112 -67.5v131q0 111 -69.5 173t-188.5 62q-158 0 -314 -92l-65 119q186 117 393 117q209 0 307.5 -104.5t98.5 -285.5v-702h-140l-18 90q-102 -117 -289 -117q-176 0 -290.5 99.5t-114.5 255.5zM233 330 q0 -94 74 -157.5t195 -63.5q117 0 190.5 62t73.5 159q0 100 -72.5 159.5t-193.5 59.5q-119 0 -193 -62.5t-74 -156.5z" />
<glyph unicode="b" horiz-adv-x="1253" d="M139 0v1481h162v-588q39 68 135 133.5t242 65.5q225 0 366.5 -158t141.5 -404q0 -244 -146.5 -400.5t-373.5 -156.5q-238 0 -371 195v-168h-156zM295 528q0 -172 99.5 -290.5t260.5 -118.5q156 0 260.5 113.5t104.5 296t-101.5 299t-259.5 116.5q-156 0 -260 -111.5 t-104 -304.5z" />
<glyph unicode="c" horiz-adv-x="1048" d="M68 532.5q0 237.5 156.5 398.5t387.5 161q223 -1 375 -146l-55 -139q-129 135 -316 135q-166 0 -273 -117.5t-107 -292.5q0 -172 110.5 -291.5t274.5 -119.5q176 0 317 141l49 -137q-29 -31 -71 -60.5t-126.5 -60.5t-175.5 -31q-236 0 -391 161t-155 398.5z" />
<glyph unicode="d" horiz-adv-x="1253" d="M68 530q0 248 141 405t366 157q145 0 241.5 -67t133.5 -132v588h164v-1481h-158v168q-133 -195 -368 -195q-229 0 -374.5 157t-145.5 400zM233 528.5q0 -182.5 103.5 -296t259.5 -113.5q164 0 262 118.5t98 290.5q0 193 -103 304.5t-259 111.5q-158 0 -259.5 -116.5 t-101.5 -299z" />
<glyph unicode="e" horiz-adv-x="1157" d="M70 528q0 250 149.5 407t366.5 157q231 0 368.5 -150.5t137.5 -394.5q0 -29 -2 -49h-854q2 -176 108.5 -278.5t273.5 -102.5q213 0 332 166l107 -78q-55 -92 -166 -162t-275 -70q-242 0 -394 154.5t-152 400.5zM244 618h682q-8 160 -104.5 247t-235.5 87 q-133 0 -233.5 -93.5t-108.5 -240.5z" />
<glyph unicode="f" horiz-adv-x="602" d="M53 928v137h119v55q0 186 94 270.5t240 84.5l67 -5v-141q-27 4 -51 4q-186 0 -186 -213v-55h227v-137h-227v-928h-164v928h-119z" />
<glyph unicode="g" horiz-adv-x="1243" d="M68 530.5q0 245.5 143 403.5t369 158q143 0 239 -65.5t137 -133.5v172h156v-918q0 -540 -532 -540h-2q-209 0 -381 106l57 127q147 -88 321 -88q166 0 270.5 77t104.5 245v94q-14 -23 -36.5 -48.5t-67.5 -62.5t-113.5 -60.5t-150.5 -23.5q-227 0 -370.5 156t-143.5 401.5 zM231 530.5q0 -182.5 104.5 -296t260.5 -113.5q162 0 261 116.5t99 292.5q0 188 -104 301t-260 113t-258.5 -115.5t-102.5 -298z" />
<glyph unicode="h" horiz-adv-x="1122" d="M139 0v1481h162v-570q41 76 126 128.5t189 52.5q180 0 278.5 -119t98.5 -307v-666h-162v672q0 125 -70.5 198.5t-180.5 73.5q-123 0 -201 -83t-78 -214v-647h-162z" />
<glyph unicode="i" horiz-adv-x="440" d="M109 1339q0 45 31.5 78t78.5 33t80 -32t33 -79t-33 -79.5t-80 -32.5t-78.5 32.5t-31.5 79.5zM139 0v1065h162v-1065h-162z" />
<glyph unicode="j" horiz-adv-x="440" d="M-86 -248q27 -2 45 -2q180 0 180 219v1096h162v-1100q0 -356 -332 -356l-55 4v139zM109 1339q0 45 31.5 78t78.5 33t80 -32t33 -79t-33 -79.5t-80 -32.5t-78.5 32.5t-31.5 79.5z" />
<glyph unicode="k" horiz-adv-x="978" d="M139 0v1481h162v-873l434 457h205l-459 -477l486 -588h-209l-457 567v-567h-162z" />
<glyph unicode="l" horiz-adv-x="440" d="M139 0v1481h162v-1481h-162z" />
<glyph unicode="m" horiz-adv-x="1759" d="M139 0v1065h160v-154q33 74 115 127.5t186 53.5q117 0 200 -52.5t122 -142.5q98 195 342 195q174 0 269 -111t95 -291v-690h-162v641q0 303 -239 303q-117 0 -189.5 -80t-72.5 -225v-639h-162v672q0 127 -65.5 199.5t-178.5 72.5q-109 0 -183.5 -83t-74.5 -216v-645h-162 z" />
<glyph unicode="n" horiz-adv-x="1122" d="M139 0v1065h160v-154q41 76 126 128.5t191 52.5q180 0 277.5 -119t97.5 -307v-666h-162v672q0 125 -70.5 198.5t-180.5 73.5q-123 0 -200 -83t-77 -214v-647h-162z" />
<glyph unicode="o" horiz-adv-x="1247" d="M68 532.5q0 241.5 158.5 400.5t398 159t397.5 -160t158 -399.5t-159 -399.5t-398.5 -160t-397 159t-157.5 400.5zM233 532q0 -180 110 -295.5t280 -115.5q172 0 282.5 116.5t110.5 295t-110.5 295t-282.5 116.5q-170 0 -280 -118t-110 -294z" />
<glyph unicode="p" horiz-adv-x="1255" d="M139 -383v1448h156v-168q133 195 371 195q227 0 373.5 -157t146.5 -400q0 -248 -141.5 -405t-366.5 -157q-145 0 -241.5 65.5t-135.5 133.5v-555h-162zM295 535q0 -190 104.5 -302t259.5 -112q158 0 259.5 115.5t101.5 298.5q0 184 -103.5 296.5t-261.5 112.5 q-162 0 -261 -118.5t-99 -290.5z" />
<glyph unicode="q" horiz-adv-x="1255" d="M70 535q0 244 145 400.5t375 156.5q236 0 368 -195v168h156v-1448h-162v555q-37 -66 -133 -132.5t-241 -66.5q-227 0 -367.5 157t-140.5 405zM233 535q0 -182 102.5 -298t258.5 -116t260 112t104 302q0 172 -98 290.5t-262 118.5q-158 0 -261.5 -112.5t-103.5 -296.5z " />
<glyph unicode="r" horiz-adv-x="657" d="M139 0v1065h160v-178q29 86 115.5 145.5t201.5 59.5v-162q-315 0 -315 -420v-510h-162z" />
<glyph unicode="s" horiz-adv-x="854" d="M59 201l113 73q87 -163 264 -163h2q84 0 140.5 46t56.5 124q0 68 -55.5 112.5t-133 74.5t-156.5 64.5t-134.5 102t-55.5 168.5q0 131 97.5 210t244.5 79q133 0 218 -64.5t112 -140.5l-119 -68q-68 137 -221 137q-76 0 -126 -39.5t-50 -107.5q0 -66 55.5 -110t134 -72.5 t157.5 -62.5t134.5 -103.5t55.5 -171.5q0 -139 -102.5 -227.5t-260.5 -88.5q-265 1 -371 228z" />
<glyph unicode="t" horiz-adv-x="604" d="M27 928v137h125v223h161v-223h234v-137h-234v-549q0 -143 44 -194.5t153 -51.5l45 2v-143q-43 -6 -98 -6q-305 0 -305 379v563h-125z" />
<glyph unicode="u" horiz-adv-x="1112" d="M129 399v666h162v-672q0 -125 70.5 -198.5t181.5 -73.5q123 0 199.5 83t76.5 214v647h164v-1065h-162v154q-39 -76 -125 -128.5t-190 -52.5q-180 0 -278.5 119t-98.5 307z" />
<glyph unicode="v" horiz-adv-x="1026" d="M12 1065h174l328 -883l326 883h172l-410 -1065h-178z" />
<glyph unicode="w" horiz-adv-x="1671" d="M14 1065h176l279 -877q2 6 287 877h159l285 -877l281 877h176l-361 -1065h-178l-282 846l-285 -846h-178z" />
<glyph unicode="x" horiz-adv-x="1032" d="M23 0l397 551l-369 514h191l274 -399l275 399h190l-369 -514l398 -551h-187l-307 430l-309 -430h-184z" />
<glyph unicode="y" horiz-adv-x="1040" d="M12 1065h176l338 -856l328 856h172l-571 -1432h-162l153 377z" />
<glyph unicode="z" horiz-adv-x="946" d="M66 0v115l610 811h-592v139h782v-117l-608 -811h619v-137h-811z" />
<glyph unicode="{" horiz-adv-x="698" d="M74 561v148q76 0 112.5 54t36.5 177v293q0 330 332 330v-142q-170 0 -170 -180v-338q0 -88 -28.5 -151.5t-56.5 -86t-52 -30.5q25 -8 52.5 -30.5t56 -86t28.5 -151.5v-338q0 -180 170 -181v-141q-332 0 -332 330v293q0 231 -149 231z" />
<glyph unicode="|" horiz-adv-x="516" d="M180 -422v2026h156v-2026h-156z" />
<glyph unicode="}" horiz-adv-x="698" d="M143 -152q170 0 170 181v338q0 88 29 151.5t56.5 86t52.5 30.5q-25 8 -52.5 30.5t-56.5 86t-29 151.5v338q0 180 -170 180v142q332 0 332 -330v-293q0 -123 37 -177t113 -54v-148q-150 0 -150 -231v-293q0 -330 -332 -330v141z" />
<glyph unicode="~" horiz-adv-x="1097" d="M92 481q0 125 69.5 206t190.5 81q86 0 213 -70.5t176 -70.5q61 0 94 41t35 100h136q0 -119 -69 -203t-189 -84q-82 0 -201 71t-191 71q-63 0 -95 -40t-36 -102h-133z" />
<glyph unicode="&#xa1;" horiz-adv-x="528" d="M150 1032q0 47 33.5 81t80.5 34t82 -34t35 -81t-35 -80.5t-82 -33.5t-80.5 33.5t-33.5 80.5zM180 -313l15 1073h141l14 -1073h-170z" />
<glyph unicode="&#xa2;" horiz-adv-x="1060" d="M70 690q0 221 138 379t349 178v187h127v-189q104 -10 183 -54t120 -87l-53 -139q-131 137 -316 137q-166 0 -273 -118t-107 -292t110.5 -293.5t274.5 -119.5q180 0 315 141l51 -137q-119 -127 -305 -148v-135h-127v135q-215 20 -351 176t-136 379z" />
<glyph unicode="&#xa3;" horiz-adv-x="1136" d="M80 0v147h137v498h-119v137h119v265q0 184 111.5 298.5t302.5 114.5q158 0 254 -82t125 -180l-133 -59q-25 66 -86.5 116t-157.5 50q-123 0 -186.5 -71t-63.5 -196v-256h344v-137h-344v-498h657v-147h-960z" />
<glyph unicode="&#xa5;" horiz-adv-x="1126" d="M37 1434h190l336 -605l342 605h185l-375 -641h256v-123h-326v-185h326v-120h-326v-365h-164v365h-325v120h325v185h-325v123h256z" />
<glyph unicode="&#xa7;" horiz-adv-x="976" d="M72 592q0 96 52 171t134 107q-152 119 -152 289q0 152 105.5 247t282.5 95q168 0 264 -80t131 -178l-133 -55q-74 164 -262 164q-106 0 -164 -52.5t-58 -142.5q0 -129 170 -229l228 -133q233 -142 233 -322q0 -98 -52 -173t-134 -107q152 -119 151 -289 q0 -152 -105.5 -246t-281.5 -94q-168 0 -264 78.5t-131 177.5l133 55q74 -162 262 -162q106 0 163.5 51.5t57.5 141.5q0 129 -170 229l-288 176q-172 100 -172 281zM225 594q0 -106 92 -160l254 -147q76 2 127.5 55t51.5 127q0 113 -154 201l-193 106q-76 -2 -127 -55 t-51 -127z" />
<glyph unicode="&#xa8;" horiz-adv-x="1001" d="M229 1337q0 41 30 72t73 31t72.5 -30t29.5 -73t-28.5 -72.5t-73.5 -29.5q-43 0 -73 29.5t-30 72.5zM565 1337q0 43 30 73t73 30t72.5 -31t29.5 -72q0 -43 -29.5 -72.5t-72.5 -29.5q-45 0 -74 29.5t-29 72.5z" />
<glyph unicode="&#xa9;" horiz-adv-x="1646" d="M88 713q0 313 209 530t520 217q319 0 529 -216t210 -531.5t-207.5 -528.5t-527.5 -213q-317 0 -525 213.5t-208 528.5zM219 713q0 -268 169 -446.5t433 -178.5q266 0 435 178t169 449q0 268 -170 447t-438 179q-260 0 -429 -179t-169 -449zM451 711q0 170 103 283.5 t275 113.5q193 0 306 -147l-91 -84q-86 104 -215 104q-115 0 -177 -75t-62 -193.5t62.5 -193.5t176.5 -75q129 0 215 105l91 -82q-111 -150 -306 -150q-172 0 -275 112t-103 282z" />
<glyph unicode="&#xaa;" horiz-adv-x="835" d="M90 885q0 117 87 191.5t224 74.5q127 0 205 -66v84q0 82 -51 127t-137 45q-111 0 -238 -69l-53 98q143 90 303 90q158 0 231.5 -80t73.5 -219v-528h-110l-15 61q-76 -80 -213 -80q-135 0 -221 76t-86 195zM219 887q0 -70 55.5 -116t143.5 -46q86 0 140 45t54 117 q0 70 -54 113.5t-140 43.5q-88 0 -143.5 -44.5t-55.5 -112.5z" />
<glyph unicode="&#xab;" horiz-adv-x="876" d="M70 598l254 377h157l-254 -377l254 -375h-157zM393 598l256 377h158l-256 -377l256 -375h-158z" />
<glyph unicode="&#xad;" horiz-adv-x="692" d="M84 541v151h522v-151h-522z" />
<glyph unicode="&#xae;" horiz-adv-x="925" d="M39 1102q0 178 115.5 298t302.5 120q193 0 309.5 -119t116.5 -297q0 -176 -116 -297t-306 -121q-188 0 -305 119t-117 297zM133 1102q0 -143 89 -236.5t239 -93.5q152 0 239.5 92t87.5 239.5t-89 238t-242 90.5q-147 0 -235.5 -92.5t-88.5 -237.5zM319 881v442h154 q72 0 112 -36t40 -99q0 -86 -68 -117l84 -190h-100l-68 168h-57v-168h-97zM416 1133h57q51 0 51 53t-51 53h-57v-106z" />
<glyph unicode="&#xaf;" horiz-adv-x="923" d="M213 1288v129h496v-129h-496z" />
<glyph unicode="&#xb0;" horiz-adv-x="729" d="M63 1163q0 123 85 210t214 87q131 0 216.5 -86t85.5 -209q0 -127 -84 -212t-217.5 -85t-216.5 85t-83 210zM193 1163q0 -76 46 -125t123.5 -49t123.5 50.5t46 126t-46 124.5t-124 49q-76 0 -122.5 -50t-46.5 -126z" />
<glyph unicode="&#xb2;" horiz-adv-x="700" d="M94 1266q27 76 88.5 130t163.5 54q119 0 189.5 -67.5t70.5 -174.5q0 -61 -35.5 -116.5t-88 -97.5t-105.5 -79.5t-91 -84t-42 -93.5h374v-114h-522v82q0 68 39 129t94.5 106t110.5 87t94 88t39 91q0 53 -36 88t-95 35q-96 0 -141 -106z" />
<glyph unicode="&#xb3;" horiz-adv-x="698" d="M80 791l104 45q49 -111 162 -111q63 0 103 36t40 103q0 143 -167 144h-76v100l192 209h-321v117h481v-99l-213 -231q100 -2 170 -67.5t70 -174.5q0 -119 -79 -187.5t-198 -68.5q-195 0 -268 185z" />
<glyph unicode="&#xb4;" horiz-adv-x="1001" d="M338 1194l145 291h179l-183 -291h-141z" />
<glyph unicode="&#xb6;" horiz-adv-x="1034" d="M86 1054.5q0 157.5 110.5 268.5t268.5 111h145v-1526h-139v766q-162 2 -273.5 112.5t-111.5 268zM743 -92v1526h142v-1526h-142z" />
<glyph unicode="&#xb7;" horiz-adv-x="462" d="M115 643q0 47 33.5 81t80.5 34t82 -34t35 -81t-35 -82t-82 -35t-80.5 35t-33.5 82z" />
<glyph unicode="&#xb8;" horiz-adv-x="923" d="M299 -451l18 105q33 -6 62 -6q115 0 115 84t-117 84l-39 -4l29 208h102l-16 -116q76 -8 119.5 -55.5t43.5 -118.5q0 -96 -65.5 -143.5t-165.5 -47.5q-55 0 -86 10z" />
<glyph unicode="&#xb9;" horiz-adv-x="520" d="M94 1372l162 62h106v-811h-131v680l-102 -41z" />
<glyph unicode="&#xba;" horiz-adv-x="958" d="M55 1034q0 184 121 305t303 121q180 0 299 -120.5t119 -303.5q0 -180 -120 -301t-300 -121q-182 0 -302 119t-120 301zM188 1034q0 -131 81 -217t208 -86q125 0 206 87t81 218t-81 217t-206 86q-127 0 -208 -87t-81 -218z" />
<glyph unicode="&#xbb;" horiz-adv-x="876" d="M70 223l256 375l-256 377h157l256 -377l-256 -375h-157zM395 223l254 375l-254 377h158l254 -377l-254 -375h-158z" />
<glyph unicode="&#xbc;" horiz-adv-x="1615" d="M154 1372l159 62h109v-811h-133v680l-101 -41zM336 -84l797 1602h149l-797 -1602h-149zM920 162v100l387 549h133v-532h104v-117h-104v-162h-131v162h-389zM1057 279h252v364z" />
<glyph unicode="&#xbd;" horiz-adv-x="1636" d="M154 1372l159 62h109v-811h-133v680l-101 -41zM295 -84l799 1602h149l-799 -1602h-149zM997 643q27 76 88.5 130t163.5 54q119 0 189.5 -67.5t70.5 -173.5q0 -61 -35.5 -116.5t-88 -97.5t-105.5 -80t-91 -84t-42 -93h375v-115h-523v82q0 82 59.5 157.5t129 123t129 106.5 t59.5 115q0 53 -35.5 88t-95.5 35q-96 0 -141 -107z" />
<glyph unicode="&#xbe;" horiz-adv-x="1728" d="M111 791l104 45q49 -111 162 -111q63 0 103 36t40 103q0 143 -168 144h-76v100l193 209h-322v117h482v-99l-213 -231q100 -2 169.5 -67.5t69.5 -174.5q0 -119 -78.5 -187.5t-197.5 -68.5q-195 0 -268 185zM449 -84l798 1602h150l-799 -1602h-149zM999 162v100l387 549 h134v-532h104v-117h-104v-162h-131v162h-390zM1137 279h252v364z" />
<glyph unicode="&#xbf;" horiz-adv-x="956" d="M80 41q0 92 38 170t91 131t107.5 101.5t92 105.5t37.5 119v90h160v-96q0 -76 -37 -143.5t-89 -118t-104 -100.5t-89 -114.5t-37 -138.5q0 -106 65.5 -173t180.5 -67q174 0 252 173l126 -60q-37 -102 -131 -181t-251 -79q-188 0 -300 106.5t-112 274.5zM410 1030 q0 47 33.5 82t80.5 35t81 -35t34 -82t-34 -81t-81 -34t-80.5 34t-33.5 81z" />
<glyph unicode="&#xc0;" horiz-adv-x="1292" d="M25 0l536 1434h168l537 -1434h-168l-172 465h-561l-172 -465h-168zM393 1815h176l148 -291h-144zM416 608h461l-232 643z" />
<glyph unicode="&#xc1;" horiz-adv-x="1292" d="M25 0l536 1434h168l537 -1434h-168l-172 465h-561l-172 -465h-168zM416 608h461l-232 643zM565 1524l146 291h178l-182 -291h-142z" />
<glyph unicode="&#xc2;" horiz-adv-x="1292" d="M25 0l536 1434h168l537 -1434h-168l-172 465h-561l-172 -465h-168zM367 1534l192 266h172l193 -266h-152l-127 168l-125 -168h-153zM416 608h461l-232 643z" />
<glyph unicode="&#xc3;" horiz-adv-x="1292" d="M25 0l536 1434h168l537 -1434h-168l-172 465h-561l-172 -465h-168zM326 1554q0 98 53 156.5t139 58.5q55 0 139 -45t117 -45q35 0 55.5 25t22.5 65h115q0 -98 -52.5 -157.5t-136.5 -59.5q-57 0 -139 46.5t-119 46.5q-35 0 -55.5 -25t-22.5 -66h-116zM416 608h461 l-232 643z" />
<glyph unicode="&#xc4;" horiz-adv-x="1292" d="M25 0l536 1434h168l537 -1434h-168l-172 465h-561l-172 -465h-168zM379 1663q0 41 29.5 71.5t72.5 30.5t73 -29.5t30 -72.5t-29 -72.5t-74 -29.5q-43 0 -72.5 29.5t-29.5 72.5zM416 608h461l-232 643zM715 1663q0 43 29.5 72.5t72.5 29.5t73 -30.5t30 -71.5 q0 -43 -30 -72.5t-73 -29.5q-45 0 -73.5 29.5t-28.5 72.5z" />
<glyph unicode="&#xc5;" horiz-adv-x="1292" d="M25 0l536 1434h168l537 -1434h-168l-172 465h-561l-172 -465h-168zM416 608h461l-232 643zM461 1694q0 78 52 128t130 50q82 0 134 -49t52 -127t-52 -129t-132 -51t-132 50t-52 128zM561 1694q0 -39 22.5 -62.5t61.5 -23.5t61.5 23.5t22.5 64.5q0 37 -22.5 60.5 t-63.5 23.5q-37 0 -59.5 -23.5t-22.5 -62.5z" />
<glyph unicode="&#xc6;" horiz-adv-x="1660" d="M16 0l732 1434h784v-152h-514v-477h448v-150h-448v-505h534v-150h-700v465h-428l-227 -465h-181zM494 608h358v674h-31z" />
<glyph unicode="&#xc7;" horiz-adv-x="1343" d="M80 717q0 315 209 529t514 214q260 0 444 -149l-53 -148q-174 141 -387 142q-238 0 -396.5 -169t-158.5 -419q0 -254 156.5 -421t402.5 -167q224 0 408 154l51 -146q-37 -33 -90.5 -65.5t-157.5 -65.5t-215 -33l-33 2l-8 -71q76 -8 120 -55.5t44 -118.5 q0 -96 -65.5 -143.5t-166.5 -47.5q-55 0 -86 10l19 105q33 -6 61 -6q115 0 115 84t-117 84l-39 -4l23 174q-264 43 -429 245.5t-165 485.5z" />
<glyph unicode="&#xc8;" horiz-adv-x="970" d="M162 0v1434h680v-152h-514v-477h448v-150h-448v-505h536v-150h-702zM297 1815h176l148 -291h-144z" />
<glyph unicode="&#xc9;" horiz-adv-x="970" d="M162 0v1434h680v-152h-514v-477h448v-150h-448v-505h536v-150h-702zM418 1524l145 291h178l-182 -291h-141z" />
<glyph unicode="&#xca;" horiz-adv-x="970" d="M162 0v1434h680v-152h-514v-477h448v-150h-448v-505h536v-150h-702zM236 1534l192 266h172l193 -266h-152l-127 168l-125 -168h-153z" />
<glyph unicode="&#xcb;" horiz-adv-x="970" d="M162 0v1434h680v-152h-514v-477h448v-150h-448v-505h536v-150h-702zM256 1663q0 41 29.5 71.5t72.5 30.5t73 -29.5t30 -72.5t-29 -72.5t-74 -29.5q-43 0 -72.5 29.5t-29.5 72.5zM592 1663q0 43 29.5 72.5t72.5 29.5t73 -30.5t30 -71.5q0 -43 -30 -72.5t-73 -29.5 q-45 0 -73.5 29.5t-28.5 72.5z" />
<glyph unicode="&#xcc;" horiz-adv-x="489" d="M12 1815h176l148 -291h-143zM162 0v1434h166v-1434h-166z" />
<glyph unicode="&#xcd;" horiz-adv-x="489" d="M156 1524l145 291h178l-182 -291h-141zM162 0v1434h166v-1434h-166z" />
<glyph unicode="&#xce;" horiz-adv-x="489" d="M-27 1534l193 266h172l192 -266h-151l-127 168l-125 -168h-154zM162 0v1434h166v-1434h-166z" />
<glyph unicode="&#xcf;" horiz-adv-x="489" d="M-16 1663q0 41 29.5 71.5t72.5 30.5t72.5 -29.5t29.5 -72.5t-28.5 -72.5t-73.5 -29.5q-43 0 -72.5 29.5t-29.5 72.5zM162 0v1434h166v-1434h-166zM319 1663q0 43 30 72.5t73 29.5t72.5 -30.5t29.5 -71.5q0 -43 -29.5 -72.5t-72.5 -29.5q-45 0 -74 29.5t-29 72.5z" />
<glyph unicode="&#xd0;" horiz-adv-x="1310" d="M49 651v148h119v635h297q365 0 566.5 -189.5t201.5 -527.5q0 -350 -202 -533.5t-566 -183.5h-297v651h-119zM334 147h164q262 0 412.5 146.5t150.5 423.5q0 266 -151.5 416.5t-411.5 150.5h-164v-485h297v-148h-297v-504z" />
<glyph unicode="&#xd1;" horiz-adv-x="1441" d="M160 0v1434h166l790 -1172v1172h164v-1434h-164l-790 1167v-1167h-166zM406 1554q0 98 53 156.5t139 58.5q55 0 139 -45t117 -45q35 0 55.5 25t22.5 65h115q0 -98 -52.5 -157.5t-136.5 -59.5q-57 0 -139 46.5t-119 46.5q-35 0 -55.5 -25t-22.5 -66h-116z" />
<glyph unicode="&#xd2;" d="M78 717q0 317 210 530t521 213t521 -214t210 -529q0 -317 -210 -530.5t-523 -213.5q-311 0 -520 212.5t-209 531.5zM250 717q0 -254 159.5 -421t399.5 -167t399.5 167t159.5 421q0 252 -160.5 420t-398.5 168t-398.5 -168t-160.5 -420zM569 1815h176l148 -291h-143z" />
<glyph unicode="&#xd3;" d="M78 717q0 317 210 530t521 213t521 -214t210 -529q0 -317 -210 -530.5t-523 -213.5q-311 0 -520 212.5t-209 531.5zM250 717q0 -254 159.5 -421t399.5 -167t399.5 167t159.5 421q0 252 -160.5 420t-398.5 168t-398.5 -168t-160.5 -420zM707 1524l145 291h178l-182 -291 h-141z" />
<glyph unicode="&#xd4;" d="M78 717q0 317 210 530t521 213t521 -214t210 -529q0 -317 -210 -530.5t-523 -213.5q-311 0 -520 212.5t-209 531.5zM250 717q0 -254 159.5 -421t399.5 -167t399.5 167t159.5 421q0 252 -160.5 420t-398.5 168t-398.5 -168t-160.5 -420zM528 1534l193 266h172l192 -266 h-151l-127 168l-125 -168h-154z" />
<glyph unicode="&#xd5;" d="M78 717q0 317 210 530t521 213t521 -214t210 -529q0 -317 -210 -530.5t-523 -213.5q-311 0 -520 212.5t-209 531.5zM250 717q0 -254 159.5 -421t399.5 -167t399.5 167t159.5 421q0 252 -160.5 420t-398.5 168t-398.5 -168t-160.5 -420zM494 1554q0 98 53 156.5t139 58.5 q55 0 139 -45t117 -45q35 0 55.5 25t22.5 65h115q0 -98 -52.5 -157.5t-136.5 -59.5q-57 0 -139 46.5t-119 46.5q-35 0 -55.5 -25t-22.5 -66h-116z" />
<glyph unicode="&#xd6;" d="M78 717q0 317 210 530t521 213t521 -214t210 -529q0 -317 -210 -530.5t-523 -213.5q-311 0 -520 212.5t-209 531.5zM250 717q0 -254 159.5 -421t399.5 -167t399.5 167t159.5 421q0 252 -160.5 420t-398.5 168t-398.5 -168t-160.5 -420zM543 1663q0 41 29.5 71.5 t72.5 30.5t73 -29.5t30 -72.5t-29 -72.5t-74 -29.5q-43 0 -72.5 29.5t-29.5 72.5zM879 1663q0 43 29.5 72.5t72.5 29.5t72.5 -30.5t29.5 -71.5q0 -43 -29.5 -72.5t-72.5 -29.5q-45 0 -73.5 29.5t-28.5 72.5z" />
<glyph unicode="&#xd7;" horiz-adv-x="1087" d="M96 254l350 377l-350 379l97 98l350 -377l350 377l94 -96l-352 -379l354 -381l-96 -96l-352 379l-348 -377z" />
<glyph unicode="&#xd8;" d="M80 717q0 317 210 530t521 213q223 0 403 -121l107 134l102 -82l-104 -134q223 -213 223 -540q0 -317 -210 -530.5t-523 -213.5q-227 0 -408 119l-104 -133l-102 82l104 133q-219 213 -219 543zM252 717q0 -246 154 -410l708 905q-135 92 -303 93q-240 0 -399.5 -168 t-159.5 -420zM502 219q133 -90 309 -90q238 0 398.5 167t160.5 421q0 242 -156 409z" />
<glyph unicode="&#xd9;" horiz-adv-x="1376" d="M154 514v920h165v-918q0 -182 95.5 -285.5t273.5 -103.5t274.5 104.5t96.5 286.5v916h164v-918q0 -246 -141.5 -394.5t-393.5 -148.5q-254 0 -394 146.5t-140 394.5zM469 1815h176l148 -291h-144z" />
<glyph unicode="&#xda;" horiz-adv-x="1376" d="M154 514v920h165v-918q0 -182 95.5 -285.5t273.5 -103.5t274.5 104.5t96.5 286.5v916h164v-918q0 -246 -141.5 -394.5t-393.5 -148.5q-254 0 -394 146.5t-140 394.5zM592 1524l145 291h178l-182 -291h-141z" />
<glyph unicode="&#xdb;" horiz-adv-x="1376" d="M154 514v920h165v-918q0 -182 95.5 -285.5t273.5 -103.5t274.5 104.5t96.5 286.5v916h164v-918q0 -246 -141.5 -394.5t-393.5 -148.5q-254 0 -394 146.5t-140 394.5zM410 1534l192 266h172l193 -266h-152l-127 168l-125 -168h-153z" />
<glyph unicode="&#xdc;" horiz-adv-x="1376" d="M154 514v920h165v-918q0 -182 95.5 -285.5t273.5 -103.5t274.5 104.5t96.5 286.5v916h164v-918q0 -246 -141.5 -394.5t-393.5 -148.5q-254 0 -394 146.5t-140 394.5zM422 1663q0 41 29.5 71.5t72.5 30.5t73 -29.5t30 -72.5t-29 -72.5t-74 -29.5q-43 0 -72.5 29.5 t-29.5 72.5zM758 1663q0 43 29.5 72.5t72.5 29.5t73 -30.5t30 -71.5q0 -43 -30 -72.5t-73 -29.5q-45 0 -73.5 29.5t-28.5 72.5z" />
<glyph unicode="&#xdd;" horiz-adv-x="1089" d="M18 1434h191l336 -605l342 605h184l-444 -762v-672h-164v672zM459 1524l145 291h178l-182 -291h-141z" />
<glyph unicode="&#xde;" horiz-adv-x="1050" d="M162 0v1434h166v-281h235q197 0 312.5 -109.5t115.5 -302t-118.5 -306t-309.5 -113.5h-235v-322h-166zM328 467h221q127 0 199.5 73.5t72.5 198.5t-71.5 196t-200.5 71h-221v-539z" />
<glyph unicode="&#xdf;" horiz-adv-x="1101" d="M135 0v1120q0 180 102.5 267.5t278.5 87.5q166 0 266.5 -88.5t100.5 -212.5q0 -193 -162 -267q139 -41 229 -151.5t90 -268.5q0 -242 -153.5 -364.5t-401.5 -122.5v143q154 0 271.5 83t117.5 259q0 160 -115.5 248t-273.5 88v142q92 0 163 48t71 140q0 82 -55.5 130 t-147.5 48q-217 0 -217 -237v-1092h-164z" />
<glyph unicode="&#xe0;" horiz-adv-x="1044" d="M70 328q0 152 114.5 251t294.5 99q94 0 169 -28.5t112 -67.5v131q0 111 -69.5 173t-188.5 62q-158 0 -314 -92l-65 119q186 117 393 117q209 0 307.5 -104.5t98.5 -285.5v-702h-140l-18 90q-102 -117 -289 -117q-176 0 -290.5 99.5t-114.5 255.5zM233 330 q0 -94 74 -157.5t195 -63.5q117 0 190.5 62t73.5 159q0 100 -72.5 159.5t-193.5 59.5q-119 0 -193 -62.5t-74 -156.5zM299 1485h176l148 -291h-144z" />
<glyph unicode="&#xe1;" horiz-adv-x="1044" d="M70 328q0 152 114.5 251t294.5 99q94 0 169 -28.5t112 -67.5v131q0 111 -69.5 173t-188.5 62q-158 0 -314 -92l-65 119q186 117 393 117q209 0 307.5 -104.5t98.5 -285.5v-702h-140l-18 90q-102 -117 -289 -117q-176 0 -290.5 99.5t-114.5 255.5zM233 330 q0 -94 74 -157.5t195 -63.5q117 0 190.5 62t73.5 159q0 100 -72.5 159.5t-193.5 59.5q-119 0 -193 -62.5t-74 -156.5zM424 1194l145 291h179l-183 -291h-141z" />
<glyph unicode="&#xe2;" horiz-adv-x="1044" d="M70 328q0 152 114.5 251t294.5 99q94 0 169 -28.5t112 -67.5v131q0 111 -69.5 173t-188.5 62q-158 0 -314 -92l-65 119q186 117 393 117q209 0 307.5 -104.5t98.5 -285.5v-702h-140l-18 90q-102 -117 -289 -117q-176 0 -290.5 99.5t-114.5 255.5zM233 330 q0 -94 74 -157.5t195 -63.5q117 0 190.5 62t73.5 159q0 100 -72.5 159.5t-193.5 59.5q-119 0 -193 -62.5t-74 -156.5zM242 1217l192 266h172l193 -266h-152l-127 167l-125 -167h-153z" />
<glyph unicode="&#xe3;" horiz-adv-x="1044" d="M70 328q0 152 114.5 251t294.5 99q94 0 169 -28.5t112 -67.5v131q0 111 -69.5 173t-188.5 62q-158 0 -314 -92l-65 119q186 117 393 117q209 0 307.5 -104.5t98.5 -285.5v-702h-140l-18 90q-102 -117 -289 -117q-176 0 -290.5 99.5t-114.5 255.5zM197 1233q0 98 53 156.5 t139 58.5q55 0 139 -45t117 -45q35 0 55.5 24.5t22.5 65.5h115q0 -98 -52.5 -157.5t-136.5 -59.5q-57 0 -139 46t-119 46q-35 0 -55.5 -24.5t-22.5 -65.5h-116zM233 330q0 -94 74 -157.5t195 -63.5q117 0 190.5 62t73.5 159q0 100 -72.5 159.5t-193.5 59.5 q-119 0 -193 -62.5t-74 -156.5z" />
<glyph unicode="&#xe4;" horiz-adv-x="1044" d="M70 328q0 152 114.5 251t294.5 99q94 0 169 -28.5t112 -67.5v131q0 111 -69.5 173t-188.5 62q-158 0 -314 -92l-65 119q186 117 393 117q209 0 307.5 -104.5t98.5 -285.5v-702h-140l-18 90q-102 -117 -289 -117q-176 0 -290.5 99.5t-114.5 255.5zM233 330 q0 -94 74 -157.5t195 -63.5q117 0 190.5 62t73.5 159q0 100 -72.5 159.5t-193.5 59.5q-119 0 -193 -62.5t-74 -156.5zM262 1337q0 41 30 72t73 31t72.5 -30t29.5 -73t-28.5 -72.5t-73.5 -29.5q-43 0 -73 29.5t-30 72.5zM598 1337q0 43 29.5 73t72.5 30t73 -31t30 -72 q0 -43 -30 -72.5t-73 -29.5q-45 0 -73.5 29.5t-28.5 72.5z" />
<glyph unicode="&#xe5;" horiz-adv-x="1044" d="M70 328q0 152 114.5 251t294.5 99q94 0 169 -28.5t112 -67.5v131q0 111 -69.5 173t-188.5 62q-158 0 -314 -92l-65 119q186 117 393 117q209 0 307.5 -104.5t98.5 -285.5v-702h-140l-18 90q-102 -117 -289 -117q-176 0 -290.5 99.5t-114.5 255.5zM233 330 q0 -94 74 -157.5t195 -63.5q117 0 190.5 62t73.5 159q0 100 -72.5 159.5t-193.5 59.5q-119 0 -193 -62.5t-74 -156.5zM340 1360q0 78 52 128t130 50q82 0 134.5 -49t52.5 -127t-52.5 -129t-132.5 -51t-132 50t-52 128zM440 1360q0 -39 22.5 -62.5t61.5 -23.5t61.5 23.5 t22.5 64.5q0 37 -22.5 60.5t-63.5 23.5q-37 0 -59.5 -23.5t-22.5 -62.5z" />
<glyph unicode="&#xe6;" horiz-adv-x="1841" d="M70 328q0 152 114.5 251t294.5 99q94 0 169 -28.5t112 -67.5v131q0 111 -69.5 173t-188.5 62q-158 0 -314 -92l-65 119q186 117 393 117q281 0 358 -207q68 98 171.5 152.5t224.5 54.5q231 0 368.5 -150.5t137.5 -394.5v-49h-854q2 -176 107.5 -278.5t273.5 -102.5 q213 0 331 166l107 -78q-55 -92 -165 -162t-273 -70q-150 0 -267.5 58.5t-181.5 169.5q-39 -94 -135 -161t-244 -67q-176 0 -290.5 99.5t-114.5 255.5zM233 330q0 -94 74 -157.5t195 -63.5q117 0 188.5 61t71.5 160q0 100 -72 159.5t-190.5 59.5t-192.5 -62.5t-74 -156.5z M928 618h682q-8 160 -104.5 247t-235.5 87q-135 0 -231.5 -89t-110.5 -245z" />
<glyph unicode="&#xe7;" horiz-adv-x="1048" d="M68 532q0 238 156.5 399t387.5 161q223 -1 375 -146l-55 -139q-129 135 -316 135q-166 0 -273 -117.5t-107 -292.5q0 -172 110.5 -291.5t274.5 -119.5q176 0 317 141l49 -137q-29 -31 -71 -60.5t-126.5 -60.5t-177.5 -31l-10 -69q76 -8 120 -55.5t44 -118.5 q0 -96 -65.5 -143.5t-165.5 -47.5q-55 0 -86 10l18 105q33 -6 61 -6q115 0 115 84t-117 84l-39 -4l23 172q-197 35 -319.5 186.5t-122.5 361.5z" />
<glyph unicode="&#xe8;" horiz-adv-x="1157" d="M70 528q0 250 149.5 407t366.5 157q231 0 368.5 -150.5t137.5 -394.5q0 -29 -2 -49h-854q2 -176 108.5 -278.5t273.5 -102.5q213 0 332 166l107 -78q-55 -92 -166 -162t-275 -70q-242 0 -394 154.5t-152 400.5zM244 618h682q-8 160 -104.5 247t-235.5 87 q-133 0 -233.5 -93.5t-108.5 -240.5zM365 1485h176l147 -291h-143z" />
<glyph unicode="&#xe9;" horiz-adv-x="1157" d="M70 528q0 250 149.5 407t366.5 157q231 0 368.5 -150.5t137.5 -394.5q0 -29 -2 -49h-854q2 -176 108.5 -278.5t273.5 -102.5q213 0 332 166l107 -78q-55 -92 -166 -162t-275 -70q-242 0 -394 154.5t-152 400.5zM244 618h682q-8 160 -104.5 247t-235.5 87 q-133 0 -233.5 -93.5t-108.5 -240.5zM483 1194l146 291h178l-182 -291h-142z" />
<glyph unicode="&#xea;" horiz-adv-x="1157" d="M70 528q0 250 149.5 407t366.5 157q231 0 368.5 -150.5t137.5 -394.5q0 -29 -2 -49h-854q2 -176 108.5 -278.5t273.5 -102.5q213 0 332 166l107 -78q-55 -92 -166 -162t-275 -70q-242 0 -394 154.5t-152 400.5zM244 618h682q-8 160 -104.5 247t-235.5 87 q-133 0 -233.5 -93.5t-108.5 -240.5zM309 1217l193 266h172l192 -266h-151l-127 167l-125 -167h-154z" />
<glyph unicode="&#xeb;" horiz-adv-x="1157" d="M70 528q0 250 149.5 407t366.5 157q231 0 368.5 -150.5t137.5 -394.5q0 -29 -2 -49h-854q2 -176 108.5 -278.5t273.5 -102.5q213 0 332 166l107 -78q-55 -92 -166 -162t-275 -70q-242 0 -394 154.5t-152 400.5zM244 618h682q-8 160 -104.5 247t-235.5 87 q-133 0 -233.5 -93.5t-108.5 -240.5zM322 1337q0 41 29.5 72t72.5 31t72.5 -30t29.5 -73t-28.5 -72.5t-73.5 -29.5q-43 0 -72.5 29.5t-29.5 72.5zM657 1337q0 43 30 73t73 30t72.5 -31t29.5 -72q0 -43 -29.5 -72.5t-72.5 -29.5q-45 0 -74 29.5t-29 72.5z" />
<glyph unicode="&#xec;" horiz-adv-x="440" d="M-12 1485h176l147 -291h-143zM139 0v1065h162v-1065h-162z" />
<glyph unicode="&#xed;" horiz-adv-x="440" d="M127 1194l145 291h179l-183 -291h-141zM139 0v1065h162v-1065h-162z" />
<glyph unicode="&#xee;" horiz-adv-x="440" d="M-53 1217l192 266h172l193 -266h-152l-127 167l-125 -167h-153zM139 0v1065h162v-1065h-162z" />
<glyph unicode="&#xef;" horiz-adv-x="440" d="M-47 1337q0 41 29.5 72t72.5 31t73 -30t30 -73t-29 -72.5t-74 -29.5q-43 0 -72.5 29.5t-29.5 72.5zM139 0v1065h162v-1065h-162zM289 1337q0 43 29.5 73t72.5 30t73 -31t30 -72q0 -43 -30 -72.5t-73 -29.5q-45 0 -73.5 29.5t-28.5 72.5z" />
<glyph unicode="&#xf0;" horiz-adv-x="1210" d="M72 508q0 225 147.5 372.5t380.5 147.5q129 0 221 -63q-43 66 -109.5 131t-117.5 98l-330 -129l-18 119l239 96q-98 70 -223 135l105 80q139 -61 278 -158l252 99l21 -119l-168 -68q381 -305 380 -700q0 -250 -140 -413t-396 -163q-231 0 -376.5 154t-145.5 381zM238 508 q0 -164 99 -276.5t259 -112.5q178 0 273.5 117.5t95.5 295.5q0 150 -100.5 254.5t-256.5 104.5q-170 0 -270 -109.5t-100 -273.5z" />
<glyph unicode="&#xf1;" horiz-adv-x="1122" d="M139 0v1065h160v-154q41 76 126 128.5t191 52.5q180 0 277.5 -119t97.5 -307v-666h-162v672q0 125 -70.5 198.5t-180.5 73.5q-123 0 -200 -83t-77 -214v-647h-162zM244 1233q0 98 53 156.5t139 58.5q55 0 139 -45t117 -45q35 0 55.5 24.5t22.5 65.5h115 q0 -98 -52.5 -157.5t-136.5 -59.5q-57 0 -139 46t-119 46q-35 0 -55.5 -24.5t-22.5 -65.5h-116z" />
<glyph unicode="&#xf2;" horiz-adv-x="1247" d="M68 532.5q0 241.5 158.5 400.5t398 159t397.5 -160t158 -399.5t-159 -399.5t-398.5 -160t-397 159t-157.5 400.5zM233 532q0 -180 110 -295.5t280 -115.5q172 0 282.5 116.5t110.5 295t-110.5 295t-282.5 116.5q-170 0 -280 -118t-110 -294zM377 1485h176l147 -291h-143z " />
<glyph unicode="&#xf3;" horiz-adv-x="1247" d="M68 532.5q0 241.5 158.5 400.5t398 159t397.5 -160t158 -399.5t-159 -399.5t-398.5 -160t-397 159t-157.5 400.5zM233 532q0 -180 110 -295.5t280 -115.5q172 0 282.5 116.5t110.5 295t-110.5 295t-282.5 116.5q-170 0 -280 -118t-110 -294zM522 1194l146 291h178 l-182 -291h-142z" />
<glyph unicode="&#xf4;" horiz-adv-x="1247" d="M68 532.5q0 241.5 158.5 400.5t398 159t397.5 -160t158 -399.5t-159 -399.5t-398.5 -160t-397 159t-157.5 400.5zM233 532q0 -180 110 -295.5t280 -115.5q172 0 282.5 116.5t110.5 295t-110.5 295t-282.5 116.5q-170 0 -280 -118t-110 -294zM350 1217l193 266h172 l192 -266h-151l-127 167l-125 -167h-154z" />
<glyph unicode="&#xf5;" horiz-adv-x="1247" d="M68 532.5q0 241.5 158.5 400.5t398 159t397.5 -160t158 -399.5t-159 -399.5t-398.5 -160t-397 159t-157.5 400.5zM233 532q0 -180 110 -295.5t280 -115.5q172 0 282.5 116.5t110.5 295t-110.5 295t-282.5 116.5q-170 0 -280 -118t-110 -294zM309 1233q0 98 53.5 156.5 t139.5 58.5q55 0 139 -45t117 -45q35 0 55.5 24.5t22.5 65.5h114q0 -98 -52 -157.5t-136 -59.5q-57 0 -139 46t-119 46q-35 0 -55.5 -24.5t-22.5 -65.5h-117z" />
<glyph unicode="&#xf6;" horiz-adv-x="1247" d="M68 532.5q0 241.5 158.5 400.5t398 159t397.5 -160t158 -399.5t-159 -399.5t-398.5 -160t-397 159t-157.5 400.5zM233 532q0 -180 110 -295.5t280 -115.5q172 0 282.5 116.5t110.5 295t-110.5 295t-282.5 116.5q-170 0 -280 -118t-110 -294zM360 1337q0 41 30 72t73 31 t72.5 -30t29.5 -73t-28.5 -72.5t-73.5 -29.5q-43 0 -73 29.5t-30 72.5zM696 1337q0 43 30 73t73 30t72.5 -31t29.5 -72q0 -43 -29.5 -72.5t-72.5 -29.5q-45 0 -74 29.5t-29 72.5z" />
<glyph unicode="&#xf7;" horiz-adv-x="1126" d="M82 569v138h962v-138h-962zM459 281q0 43 30.5 73.5t73.5 30.5t73 -30.5t30 -73.5q0 -41 -30 -72t-73 -31t-73.5 31t-30.5 72zM459 993q0 43 30.5 74t73.5 31t73 -31t30 -74t-30 -72.5t-73 -29.5t-73.5 29.5t-30.5 72.5z" />
<glyph unicode="&#xf8;" horiz-adv-x="1249" d="M68 532q0 242 158.5 401t398.5 159q170 0 303 -86l78 100l94 -76l-78 -98q158 -158 158 -400q0 -240 -159 -399.5t-398 -159.5q-164 0 -291 76l-78 -98l-94 74l76 96q-168 161 -168 411zM233 532q0 -172 103 -284l495 637q-96 59 -208 59q-170 0 -280 -118t-110 -294z M428 172q82 -51 195 -51q172 0 282.5 116.5t110.5 294.5q0 156 -94 271z" />
<glyph unicode="&#xf9;" horiz-adv-x="1112" d="M129 399v666h162v-672q0 -125 70.5 -198.5t181.5 -73.5q123 0 199.5 83t76.5 214v647h164v-1065h-162v154q-39 -76 -125 -128.5t-190 -52.5q-180 0 -278.5 119t-98.5 307zM348 1485h176l148 -291h-144z" />
<glyph unicode="&#xfa;" horiz-adv-x="1112" d="M129 399v666h162v-672q0 -125 70.5 -198.5t181.5 -73.5q123 0 199.5 83t76.5 214v647h164v-1065h-162v154q-39 -76 -125 -128.5t-190 -52.5q-180 0 -278.5 119t-98.5 307zM461 1194l145 291h178l-182 -291h-141z" />
<glyph unicode="&#xfb;" horiz-adv-x="1112" d="M129 399v666h162v-672q0 -125 70.5 -198.5t181.5 -73.5q123 0 199.5 83t76.5 214v647h164v-1065h-162v154q-39 -76 -125 -128.5t-190 -52.5q-180 0 -278.5 119t-98.5 307zM281 1217l192 266h172l193 -266h-152l-127 167l-125 -167h-153z" />
<glyph unicode="&#xfc;" horiz-adv-x="1112" d="M129 399v666h162v-672q0 -125 70.5 -198.5t181.5 -73.5q123 0 199.5 83t76.5 214v647h164v-1065h-162v154q-39 -76 -125 -128.5t-190 -52.5q-180 0 -278.5 119t-98.5 307zM297 1337q0 41 29.5 72t72.5 31t73 -30t30 -73t-29 -72.5t-74 -29.5q-43 0 -72.5 29.5t-29.5 72.5 zM633 1337q0 43 29.5 73t72.5 30t73 -31t30 -72q0 -43 -30 -72.5t-73 -29.5q-45 0 -73.5 29.5t-28.5 72.5z" />
<glyph unicode="&#xfd;" horiz-adv-x="1040" d="M12 1065h176l338 -856l328 856h172l-571 -1432h-162l153 377zM430 1194l145 291h179l-183 -291h-141z" />
<glyph unicode="&#xfe;" horiz-adv-x="1255" d="M139 -383v1864h162v-580q143 190 365 191q227 0 373.5 -157t146.5 -400q0 -248 -141.5 -405t-366.5 -157q-145 0 -241.5 65.5t-135.5 133.5v-555h-162zM295 535q0 -190 104.5 -302t259.5 -112q158 0 259.5 115.5t101.5 298.5q0 184 -103.5 296.5t-261.5 112.5 q-162 0 -261 -118.5t-99 -290.5z" />
<glyph unicode="&#xff;" horiz-adv-x="1040" d="M12 1065h176l338 -856l328 856h172l-571 -1432h-162l153 377zM260 1337q0 41 29.5 72t73 31t73 -30t29.5 -73t-28.5 -72.5t-74.5 -29.5q-43 0 -72.5 29.5t-29.5 72.5zM596 1337q0 43 29.5 73t72.5 30t73 -31t30 -72q0 -43 -30 -72.5t-73 -29.5q-45 0 -73.5 29.5 t-28.5 72.5z" />
<glyph unicode="&#x152;" horiz-adv-x="2211" d="M78 717q0 317 210 530t521 213q98 0 201 -26h1073v-152h-791q211 -188 242 -477h483v-150h-479q-25 -311 -248 -505h815v-150h-1097q-102 -27 -201 -27q-311 0 -520 212.5t-209 531.5zM250 717q0 -254 159.5 -421t399.5 -167t399.5 167t159.5 421q0 252 -160.5 420 t-398.5 168t-398.5 -168t-160.5 -420z" />
<glyph unicode="&#x153;" horiz-adv-x="2099" d="M68 532.5q0 241.5 158.5 400.5t398.5 159q154 0 276.5 -72t192.5 -195q63 125 179 196t255 71q233 0 370.5 -150.5t137.5 -394.5q0 -41 -2 -49h-854q2 -178 107.5 -279.5t275.5 -101.5q211 0 329 166l109 -78q-57 -94 -167 -163t-273 -69q-158 0 -281 71t-186 196 q-68 -123 -193 -195t-278 -72q-240 0 -397.5 159t-157.5 400.5zM233 532q0 -180 110 -295.5t280 -115.5q172 0 282.5 116.5t110.5 295t-110.5 295t-282.5 116.5q-170 0 -280 -118t-110 -294zM1186 618h682q-8 160 -103.5 247t-236.5 87q-135 0 -231.5 -89t-110.5 -245z" />
<glyph unicode="&#x178;" horiz-adv-x="1089" d="M18 1434h191l336 -605l342 605h184l-444 -762v-672h-164v672zM281 1696q0 41 29.5 71.5t72.5 30.5t72.5 -29.5t29.5 -72.5t-28.5 -73t-73.5 -30q-43 0 -72.5 30t-29.5 73zM616 1696q0 43 30 72.5t73 29.5t72.5 -30.5t29.5 -71.5q0 -43 -29.5 -73t-72.5 -30q-45 0 -74 30 t-29 73z" />
<glyph unicode="&#x2c6;" horiz-adv-x="923" d="M182 1217l193 266h172l192 -266h-151l-127 167l-125 -167h-154z" />
<glyph unicode="&#x2dc;" horiz-adv-x="923" d="M139 1233q0 98 53.5 156.5t139.5 58.5q55 0 139 -45t117 -45q35 0 55.5 24.5t22.5 65.5h114q0 -98 -52 -157.5t-136 -59.5q-57 0 -139 46t-119 46q-35 0 -55.5 -24.5t-22.5 -65.5h-117z" />
<glyph unicode="&#x2000;" horiz-adv-x="936" />
<glyph unicode="&#x2001;" horiz-adv-x="1872" />
<glyph unicode="&#x2002;" horiz-adv-x="936" />
<glyph unicode="&#x2003;" horiz-adv-x="1872" />
<glyph unicode="&#x2004;" horiz-adv-x="624" />
<glyph unicode="&#x2005;" horiz-adv-x="468" />
<glyph unicode="&#x2006;" horiz-adv-x="312" />
<glyph unicode="&#x2007;" horiz-adv-x="312" />
<glyph unicode="&#x2008;" horiz-adv-x="234" />
<glyph unicode="&#x2009;" horiz-adv-x="374" />
<glyph unicode="&#x200a;" horiz-adv-x="104" />
<glyph unicode="&#x2010;" horiz-adv-x="692" d="M84 541v151h522v-151h-522z" />
<glyph unicode="&#x2011;" horiz-adv-x="692" d="M84 541v151h522v-151h-522z" />
<glyph unicode="&#x2012;" horiz-adv-x="692" d="M84 541v151h522v-151h-522z" />
<glyph unicode="&#x2013;" horiz-adv-x="1228" d="M84 547v139h1061v-139h-1061z" />
<glyph unicode="&#x2014;" horiz-adv-x="1773" d="M84 547v139h1604v-139h-1604z" />
<glyph unicode="&#x2018;" horiz-adv-x="378" d="M70 1141q0 190 157 325l76 -73q-31 -23 -62.5 -65t-37.5 -83q45 -8 72.5 -39.5t27.5 -72.5q0 -47 -32.5 -82t-80.5 -35q-51 0 -85.5 34.5t-34.5 90.5z" />
<glyph unicode="&#x2019;" horiz-adv-x="378" d="M74 1090q86 66 100 149q-45 6 -71.5 39t-26.5 74q0 47 31.5 80.5t78.5 33.5q53 0 87 -33.5t34 -89.5q0 -188 -157 -327z" />
<glyph unicode="&#x201a;" horiz-adv-x="434" d="M100 88q0 47 33 81t80 34q51 0 86 -34t35 -89q0 -188 -158 -328l-76 74q86 66 101 149q-45 6 -73 39t-28 74z" />
<glyph unicode="&#x201c;" horiz-adv-x="681" d="M70 1141q0 190 157 325l76 -73q-31 -23 -62.5 -65t-37.5 -83q45 -8 72.5 -39.5t27.5 -72.5q0 -47 -32.5 -82t-80.5 -35q-51 0 -85.5 34.5t-34.5 90.5zM373 1141q0 190 157 325l76 -73q-31 -23 -62.5 -65t-37.5 -83q45 -8 72.5 -39.5t27.5 -72.5q0 -47 -32.5 -82 t-79.5 -35q-51 0 -86 34.5t-35 90.5z" />
<glyph unicode="&#x201d;" horiz-adv-x="681" d="M74 1090q86 66 100 149q-45 6 -71.5 39t-26.5 74q0 47 31.5 80.5t78.5 33.5q53 0 87 -33.5t34 -89.5q0 -188 -157 -327zM377 1090q86 66 100 149q-45 6 -71.5 39t-26.5 74q0 47 31.5 80.5t78.5 33.5q53 0 87 -33.5t34 -89.5q0 -188 -157 -327z" />
<glyph unicode="&#x201e;" horiz-adv-x="681" d="M74 -174q86 66 100 149q-45 6 -71.5 39t-26.5 74q0 47 31.5 81t78.5 34q53 0 87 -34t34 -89q0 -188 -157 -328zM377 -174q86 66 100 149q-45 6 -71.5 39t-26.5 74q0 47 31.5 81t78.5 34q53 0 87 -34t34 -89q0 -188 -157 -328z" />
<glyph unicode="&#x2022;" horiz-adv-x="831" d="M63 634.5q0 147.5 100.5 250t252 102.5t252 -102.5t100.5 -250t-100.5 -249.5t-252 -102t-252 102t-100.5 249.5z" />
<glyph unicode="&#x202f;" horiz-adv-x="374" />
<glyph unicode="&#x2039;" horiz-adv-x="552" d="M70 598l254 377h157l-254 -377l254 -375h-157z" />
<glyph unicode="&#x203a;" horiz-adv-x="552" d="M70 223l254 375l-254 377h157l254 -377l-254 -375h-157z" />
<glyph unicode="&#x205f;" horiz-adv-x="468" />
<glyph unicode="&#x20ac;" horiz-adv-x="1284" d="M57 510v125h107q-4 45 -4 82q0 41 4 98h-107v125h131q63 229 241.5 374.5t414.5 145.5q217 0 350 -88l-70 -135q-119 70 -266 70q-176 0 -307 -100.5t-182 -266.5h567l-10 -125h-586q-6 -45 -6 -96q0 -43 6 -84h571l-10 -125h-530q49 -166 178 -272.5t307 -106.5 q172 0 291 80l67 -133q-45 -37 -142 -71t-212 -34q-256 0 -435 153t-239 384h-129z" />
<glyph unicode="&#x2122;" horiz-adv-x="1492" d="M59 1319v115h504v-115h-190v-623h-123v623h-191zM641 696v738h150l245 -512l248 512h148v-738h-117v531l-219 -447h-119l-217 447v-531h-119z" />
<glyph unicode="&#x25fc;" horiz-adv-x="1064" d="M0 0v1065h1065v-1065h-1065z" />
</font>
</defs>
</svg>
