<?xml version="1.0" standalone="no"?>
<!DOCTYPE svg PUBLIC "-//W3C//DTD SVG 1.1//EN" "http://www.w3.org/Graphics/SVG/1.1/DTD/svg11.dtd" >
<svg xmlns="http://www.w3.org/2000/svg" xmlns:xlink="http://www.w3.org/1999/xlink" version="1.1">
<metadata></metadata>
<defs>
<font id="montgomeryregular" horiz-adv-x="1366" >
<font-face units-per-em="2048" ascent="1638" descent="-410" />
<missing-glyph horiz-adv-x="569" />
<glyph horiz-adv-x="0" />
<glyph unicode="&#xd;" horiz-adv-x="569" />
<glyph unicode=" "  horiz-adv-x="569" />
<glyph unicode="&#x09;" horiz-adv-x="569" />
<glyph unicode="&#xa0;" horiz-adv-x="569" />
<glyph unicode="!" horiz-adv-x="714" d="M17 196q3 175 199 243q251 37 325 -198q-62 -224 -325 -198q-119 31 -199 153zM71 1657l18 54q61 -13 145 -9h72h27h27h27h154q64 8 153 -9q0 -39 -18 -90l-18 -99v-27l-9 -28l-9 -27l-27 -126l-18 -90l-18 -108l-18 -45l-9 -54l-9 -73l-19 -54l-9 -54l-9 -54l-9 -54 l-18 -63l-126 9q-86 -4 -208 27v189l9 72l-9 18v73l-9 27q-8 98 -9 171l-9 72l-9 72q3 71 -18 163v81z" />
<glyph unicode="&#x22;" horiz-adv-x="836" d="M134 1362q-5 33 108 25q100 13 102.5 -23t-5.5 -85q0 -39 -26 -181l-54 -295l-18 -63l-70 364q-20 117 -34 221q2 4 -3 37zM511 1263q-22 119 13.5 121.5t81.5 2.5q43 0 75.5 -2.5t24.5 -104.5q-15 -82 -27 -184l-54 -296l-15 -60l-69 361l-19 118q-2 19 -11 44z" />
<glyph unicode="#" horiz-adv-x="1139" d="M21 432q4 83 35 197v5q281 -152 278 53q-59 -6 -128 12h-92q16 77 11 185h232h35q32 107 46 267l12 46l127 -12l71 -15q13 4 33 -8l-46 -185q-16 -37 -27 -98l131 5l35 151l11 35q6 57 24 127q94 1 197 -58q-22 -78 -47 -185l-15 -67q142 -2 282 55q17 -83 11 -208 q-140 -21 -336 -35l-34 -162l-7 -45l-15 -56l18 -9q67 -29 169 -51q24 -2 43 -13l35 -12l46 -20l25 4l-17 -42q6 -69 -31 -139l-290 81l-46 12l-15 -35q-19 -89 27 -197q-105 -19 -220 24l-47 11q162 344 -69 278q-33 -82 -53 -185l-17 -47l-81 24l-93 23l-23 11l-34 12 q8 61 57 127l24 93q-87 32 -209 35zM502 505q176 -100 191 194h-128q-55 -94 -63 -194z" />
<glyph unicode="$" d="M92 325l4 43l24 56q237 -66 473 64l45 50q6 53 -13 107q-54 77 -145 114q-315 150 -272 520q33 65 80 111q49 75 136 144l16 8l21 14q61 38 155 106l23 8l88 48q36 15 80 33q50 12 117 37q51 11 123 42q8 -1 16 8l24 -8q1 -68 4 -171l5 -61v-29l10 6q-9 -2 6 -54l15 -67 l8 -32l-13 -39q-45 13 -99 39l-81 30q-89 39 -223 26q-169 -43 -246 -212q-2 -229 222 -363q78 -61 166 -186q39 -40 50 -110l11 -3l-2 -103q-11 -22 -33 -77q-8 -3 -16 -16q-24 -17 -25 -23l-31 -33q-10 -7 -10 -19q-35 -15 -55 -41l-67 -35l-51 -23l-56 -34l-176 -64 l-26 -6l-22 -18l-24 -8l-16 -16l-27 -5q-44 -37 -109 -67l-16 -16q-67 138 -68 325zM307 -68l384 1940h16l184 72l-488 -2060z" />
<glyph unicode="%" horiz-adv-x="1706" d="M72 1018q0 105 40 193.5t109.5 132t142.5 43.5q148 38 216 -93t68 -276q0 -174 -49.5 -291t-192.5 -167q-148 -38 -236 59t-93 195.5t-5 203.5zM231 1019q0 -139 22 -212q17 -55 53 -85q21 -18 52 -18q73 38 88 115q0 70 6 188q38 196 -11 273q-32 51 -80 51 q-51 0 -90.5 -60t-39.5 -252zM346 182l869 1286l346 -75l-994 -1449zM1060 308q0 105 39.5 192t108 136.5t151.5 61.5q77 31 150.5 -4.5t99.5 -159t26 -226.5q0 -177 -78.5 -311t-182.5 -147q-116 -38 -207 73t-99 194.5t-8 190.5zM1225 301q-6 -179 40 -250q34 -51 82 -51 q46 0 82 55q48 73 48 251q0 188 -48 263q-33 51 -82 51q-48 0 -83 -54q-45 -70 -39 -265z" />
<glyph unicode="&#x26;" d="M90 309q-20 429 357 697l-8 70q-153 306 113 566q145 73 270 -44q261 -355 -18 -731q15 -58 51 -139l19 -27l61 29l87 84l18 18l34 52l18 17l17 27l26 17l18 35q3 16 17 26l26 -61q9 -90 70 -200l9 -35q2 -9 17 -18q-3 -39 18 -87l17 -26q-61 -27 -105 -72 q-47 -29 -113 -67l-17 -18l-26 -26q60 -152 217 -270q-21 -20 -61 -44q-130 -99 -322 -69q4 108 -78 209q-317 -272 -653 -87l-61 130l-9 18q1 14 -9 26zM434 346q168 -67 277 89q-49 112 -169 198q-7 -15 -40 -30q-152 -98 -68 -257zM600 1374q-5 -110 42 -253 q132 -46 137 95q-26 148 -179 158z" />
<glyph unicode="'" horiz-adv-x="369" d="M81 1379q43 1 49 4.5t51 3.5t77 -1.5t40 -1.5q-13 -141 -44 -283l-72 -392l-21 94l-41 304q-26 118 -39 272z" />
<glyph unicode="(" horiz-adv-x="895" d="M132 736q-52 435 253 806q93 31 169 112q47 8 84 47l85 37l37 10q226 5 75 -66q-565 -283 -543 -862q-97 -509 581 -805q-244 -46 -450 131q-289 200 -291 590z" />
<glyph unicode=")" horiz-adv-x="476" d="M-82 1724l47 28q84 0 207 -28q42 -50 113 -75q57 -67 159 -104q3 -9 19 -19q3 -9 19 -18q38 -53 57 -123q209 -260 159 -648q16 -359 -291 -592q-174 -164 -451 -132q561 221 611 733q-5 38 -28 76q30 603 -621 902z" />
<glyph unicode="*" horiz-adv-x="797" d="M65 1046q81 15 272 33q-91 51 -113 131q81 6 176 -64q-14 100 31 258q21 -66 28 -116q23 -161 37 -135l161 49q-22 -81 -121 -130q114 -35 258 -47q-35 -99 -218 -87l26 -39q56 -66 94 -136q-93 17 -207 120q-28 -127 -45 -290l-20 -59q-43 83 -55 350q-68 -70 -160 -121 q7 56 92 179q-240 20 -236 104z" />
<glyph unicode="+" horiz-adv-x="1196" d="M114 585l10 246l444 -65l-50 484l280 -50l-50 -424l393 50l-5 -246l-393 35l30 -464l-225 55l25 414z" />
<glyph unicode="," horiz-adv-x="569" d="M226 -80q48 18 100 70q-297 213 -25 391q186 37 240 -150q8 -209 -220 -331l-85 -10z" />
<glyph unicode="-" horiz-adv-x="682" d="M83 535l577 19l-1 -194l-554 8z" />
<glyph unicode="." horiz-adv-x="569" d="M189 163q-20 161 146 241q192 13 232 -164q7 -174 -172 -240q-156 1 -206 163z" />
<glyph unicode="/" horiz-adv-x="670" d="M3 199l333 1462l320 -44l-397 -1658z" />
<glyph unicode="0" horiz-adv-x="1299" d="M35 713q16 137 70 291q44 75 70 162q49 72 106 179l21 10l11 21q36 28 83 83l31 31l31 23l21 29q25 8 50 31q73 10 145 61l148 5l18 -5h65l65 -40q65 -39 150 -166l13 -24q68 -78 89 -194q39 -98 44 -238q5 -90 -11 -207l3 -8l-13 -74q-18 -241 -205 -425l-31 -51 q-197 -241 -582 -197q-37 34 -104 70q-42 55 -112 101q-33 59 -96 131q-10 44 -51 101v32l-19 33zM341 823q-134 -556 321 -573q313 241 341 690q40 365 -282 368q-246 -128 -380 -485z" />
<glyph unicode="1" horiz-adv-x="1139" d="M223 1525l50 8q75 23 186 50l22 5l53 27l47 15q28 18 51 45l30 17l4 5h-9h9q45 -21 108 -27l72 -27l118 -36l36 -10l27 -5l27 -3v-109v-27q-10 -40 -9 -90v-63v-27v-100v-126v-54q-10 -47 -9 -117v-181v-27v-54l-15 -154l6 -63q-13 -58 -9 -108v-27v-154v-45l18 -63h-109 h-27h-153h-36q-40 20 -100 18l-23 3l-67 15q-1 13 -18 18q8 43 27 99q0 50 18 118v27l18 27l-7 -201l23 175q-18 52 9 5q-82 -204 -13 94q-21 -159 -44 -278q37 347 46 253q39 100 28 99l37 160l16 184l31 282l14 284q-72 -2 -318 -164q-27 -16 -48 -45q-17 52 -42 96 q-8 116 -75 256z" />
<glyph unicode="2" horiz-adv-x="1494" d="M60 1477q53 15 97 60l34 15q260 242 540 194q38 3 106 5q32 -2 89 -14l19 -14l9 -5q71 -9 158 -55l38 -9l27 -9l19 -20l36 -23l19 -23q79 -60 140 -168l5 -37l14 -18q57 -165 -42 -350q-30 -27 -75 -73q-27 -19 -51 -37q-67 -30 -140 -90q-16 -3 -28 -18q-14 1 -28 -10 l-28 -18q-13 1 -27 -9l-28 -19q356 -11 717 196q4 -40 0 -94q0 -29 -9 -74v-28v-65l16 -19l-16 -19v-92l6 -29l-7 -44q15 -30 1 -22q-44 -48 -13 42l23 -40l6 20l-10 -20l-19 33l16 -9v-6q12 -3 -10 -3h-22l-2 -22l-139 25q-140 -13 -277 0l-226 -5q-142 13 -313 18l-108 -7 l-97 -5q3 5 -20 14v87q5 15 4 33l1 13l-5 66v29v27v85l-8 45q595 -99 561 469q-183 285 -587 86q-137 -185 -149 -188q-54 64 -120 133q-37 30 -69 68v27z" />
<glyph unicode="3" horiz-adv-x="1315" d="M100 250q44 39 97 108l18 17q24 21 54 62q47 37 90 99q35 -11 26 -62q79 -186 294 -232q231 -37 350 151q31 169 -53 243q-181 141 -386 71q-49 -27 -116 -65v322q1 13 -9 27l9 44q540 -169 473 226q-192 235 -408 50l-56 -97q-27 46 -57 95q-45 58 -80 124l-36 63 l-32 59l-30 12q63 25 137 75l71 18l27 8l32 12q267 39 509 -127l39 -18q66 -60 115 -126q19 -45 51 -94q8 -56 29 -129q-4 -37 12 -77q-9 -52 -39 -118q0 -8 -18 -51q-34 -48 -109 -128q369 -286 127 -633q-21 -36 -71 -80q-8 -2 -18 -18q-512 -199 -1033 115q-42 12 -9 54z " />
<glyph unicode="4" horiz-adv-x="1616" d="M26 572q9 62 60 113l51 68l7 20q9 42 55 99l7 31q163 295 114 669l5 15l-14 45q224 -96 473 -7l47 -23q-18 -36 -38 -98q-43 -58 -68 -150q-64 -99 -90 -256l-7 -14q53 10 119 45l68 14l16 9q-5 37 7 89v151l7 21l4 80l112 -22q74 -17 163 -22l135 10l-8 -46 q-22 -54 -38 -142l-14 -45q73 35 128 75q7 -1 14 7q8 -1 15 9q8 -1 16 7l74 30l24 15l30 7q-5 -23 -5 -49q10 -88 32 -197l6 -39q21 -98 65 -196l14 -44q-99 -7 -233 -17l-101 -2l-52 -14l-50 -15l-23 -125v-53l-7 -16v-22v-83l-7 -59l-8 -39v-29v-38l-7 -29v-46v-30v-31 q-11 -40 -9 -98l-7 -37l16 -30q-7 -17 -23 -38q-60 -4 -128 23h-23l-112 23l-15 8h-23h-30l-23 14l-30 9l-22 7q-1 7 -16 14l38 38q0 53 16 135q5 55 7 106l7 45l16 82q0 40 7 83l7 38q7 40 16 116l-68 -11l-53 -23l-60 -7l-127 -38l-23 -7q-11 0 -23 -7l-30 -9 q-69 -10 -173 -44q-11 1 -21 -8h-23l-24 -7l-37 -8q-22 -15 -63 -31z" />
<glyph unicode="5" horiz-adv-x="1565" d="M85 436q83 21 153 76q57 22 119 77l25 8l9 17q34 2 59 34l25 -9q84 -198 373 -322q390 21 337 439q-133 243 -514 172q-55 -14 -136 -51l-43 26l17 169v26l9 51l8 34v25l9 111q23 84 28 215q-8 -18 -3 -3v34q80 -6 178 25q25 0 51 9q43 -6 94 8l93 9h26q38 3 104 10l92 9 q78 4 199 20l52 4q20 4 53 -7q40 18 89 10q-69 -212 -20 -503l11 23q17 -5 17 -12l-15 -5l-21 5l-25 9l-41 -5q-2 25 -23 8l-40 15l-26 1l-44 10l-79 8l-62 25l-61 4l-69 10l-73 5l-139 25l-26 -142q88 -3 138 -20q675 -39 501 -798q-262 -378 -756 -305q-82 1 -212 34 l-25 8l-102 26q-12 6 -34 8l-119 85l-42 51q-17 2 -9 9l-18 12q-51 73 -92 183z" />
<glyph unicode="6" horiz-adv-x="1139" d="M179 227q-279 606 209 1128q51 39 105 87q53 46 177 147q9 2 17 1l21 13q18 -3 11 11q122 31 242 120l37 20l86 -199l13 -14q-6 -14 13 -42l10 -29q26 -57 63 -95l-12 -12l-23 -2q-115 11 -249 -56q-253 -167 -357 -474q34 13 64 49q36 13 81 48l19 20l21 4q8 2 16 16 q287 90 411 -145q127 -160 87 -400q-5 -28 -38 -75l-17 -65q-8 -3 -16 -16l-32 -48q-27 -24 -48 -65l-16 -8q-12 -25 -46 -54q-40 -24 -91 -59l-25 -8q-8 2 -16 -8q-27 -3 -56 -16q-52 9 -97 8h-24h-137l-24 8h-33l-32 8l-130 39l-55 34q-38 33 -89 96l-24 17q-2 8 -16 16z M630 299q71 -168 242 0q54 131 48 298q-45 119 -185 105q-175 -151 -105 -403z" />
<glyph unicode="7" horiz-adv-x="1639" d="M97 1593q73 4 173 -9h26h34h26h44h26h34h26h35h43h95h104h26h147h34h113h104h26h147h155h35l64 -5l-30 -55q-25 -75 -95 -147l-8 -26l-9 -17l-52 -70l-17 -34l-17 -26l-18 -35l-26 -34l-17 -35l-26 -34l-26 -26l-17 -35l-26 -26l-17 -35q-11 -58 -52 -129 q-25 -39 -40 -52l-12 -43q-7 -38 -26 -87q-14 -37 -26 -95q-7 -12 -19 -30l-16 -39l-8 -43l-70 -165l-15 -26l-2 -17l-17 -61q-24 -41 -43 -112l-26 -43l1 17q-22 -54 -53 -95q-27 27 -61 35q-25 9 -69 34l-17 9l-69 43l-26 17l-35 9q-58 45 -129 79l-6 12l10 4q-16 2 -1 -2 l-5 3q14 -17 -9 -15l10 10q-6 -17 -18 -23l170 310l87 130q77 93 101 158q74 155 47 83q89 127 98 182q22 43 49 74l40 39l128 194q-502 30 -845 -69q-8 13 -1 -15q-12 6 -54 120l-26 41q-7 34 -26 86l-9 35q-7 35 -26 86z" />
<glyph unicode="8" horiz-adv-x="1370" d="M83 435v190l16 16q6 310 316 458q-23 24 -63 48q-211 425 213 569h158l24 -8h32h24l23 -8h32q12 -5 24 0q43 -24 110 -39l16 -16l24 -8q243 -280 8 -569q386 -200 276 -657l-20 -80q-305 -396 -841 -315q-280 107 -372 419zM567 381q159 -256 282 -26q156 293 -67 568 l-57 5q-218 -234 -158 -547zM700 1508q-214 -250 39 -353q135 49 130 209q-31 136 -169 144z" />
<glyph unicode="9" horiz-adv-x="1139" d="M85 305l1 32l48 23q30 18 81 41q8 2 16 17q16 2 24 16q8 -2 16 8l56 34q42 40 112 86l8 16l121 96l8 16l8 25q-497 63 -430 556q118 289 462 371q265 13 446 -205q32 -66 52 -152l-8 -24q10 -56 -7 -127q-13 -63 -27 -154q-14 -23 -30 -65l-10 -29l-6 -27l-16 -24l-8 -32 l-31 -61l15 21l-17 -24l-8 -32l-16 -33q-49 -50 -80 -118q-36 -42 -80 -106l-15 -24q-32 -38 -74 -105l-24 -16q-18 -32 -56 -72l-24 -32l-24 -39l-19 -29l-45 -77q-17 -23 -49 -56q-109 37 -200 136l-113 73l-8 16l-24 8q-12 32 -25 72zM503 1184q13 -164 177 -182 q123 97 93 257q-17 96 -101 130q-153 -35 -169 -205z" />
<glyph unicode=":" horiz-adv-x="569" d="M188 515q-21 162 147 242q163 3 233 -164q7 -176 -173 -242q-156 1 -207 164zM188 1148q-21 162 147 242q163 3 233 -164q7 -176 -173 -242q-156 2 -207 164z" />
<glyph unicode=";" horiz-adv-x="569" d="M245 -31q50 -18 99 31q-282 199 -19 379q174 31 225 -148q0 -200 -202 -294l-68 -10zM290 986q206 37 275 -138q8 -227 -256 -223q-269 156 -19 361z" />
<glyph unicode="&#x3c;" horiz-adv-x="1155" d="M37 554v152l1067 637l43 -322l-849 -334l862 -295l-26 -269z" />
<glyph unicode="=" horiz-adv-x="1155" d="M37 439l28 154l1076 -8l-22 -145zM43 947l1057 8l25 -143l-1079 -30z" />
<glyph unicode="&#x3e;" horiz-adv-x="1135" d="M17 388l839 287l-790 342l-29 318l1089 -637l-13 -45l-1076 -543z" />
<glyph unicode="?" horiz-adv-x="1139" d="M90 1397q163 216 462 304q103 24 271 -11l26 -15q22 -23 69 -45q57 -42 69 -57q4 -8 -11 8l28 -42l28 -42l29 -47l36 -131q66 -360 -347 -540l-5 -120v-30l5 -30v-60l5 -4q-4 -13 8 -18q-141 -26 -328 18q28 118 11 263l-20 99l-25 103v26l-9 17q374 -121 431 69 q53 186 -146 287q-263 52 -371 -226q-41 30 -78 86q-20 22 -60 52l-9 25l-17 18l-17 17zM369 238q25 100 154 130q169 12 210 -130q29 -200 -169 -238q-209 14 -195 238z" />
<glyph unicode="@" horiz-adv-x="1886" d="M97 444q0 264 124 492.5t347.5 357t474.5 128.5q207 0 373.5 -85.5t253.5 -250t87 -349.5q0 -183 -81.5 -362.5t-207.5 -261.5t-263 -82q-76 0 -114.5 36t-38.5 101q0 56 18 147q-148 -179 -237 -232t-157 -53q-71 0 -126 63.5t-55 169.5q0 145 94.5 325t250.5 293 q115 83 206 83q67 0 111.5 -34.5t60.5 -103.5l-24 280l262 7l-165 -554q-65 -224 -79 -284t-14 -96q0 -32 5.5 -34t69.5 -10q89 41 163.5 102t167.5 200.5t93 317.5q0 171 -94.5 300t-233 190t-360.5 70q-239 -24 -384.5 -119t-265 -312.5t-136.5 -465.5q17 -222 134.5 -414 t265 -272.5t359.5 -88.5q255 33 407 174t235 387l261 -32q-90 -298 -351.5 -456t-564.5 -158q-238 0 -442 112.5t-317 319t-113 454.5zM685 301q-8 -39 19.5 -58t63.5 -27q26 -16 98 36t130 123t146 171q89 192 40 227q-32 58 -60.5 73t-72.5 15q-83 -1 -120 -47 q-137 -92 -217 -289q-59 -144 -27 -224z" />
<glyph unicode="A" d="M-3 112l121 242l20 30l60 131q36 41 61 100l30 61q47 67 101 181l10 20l10 20l20 20l10 31l25 45l15 45l20 51l21 50l40 70l35 91l-81 -15q-19 -9 -33 -9q-47 0 -47 93q0 67 25 183l81 5l70 -5q38 0 91 -5q85 1 201 5l30 -5l41 5h40q15 -8 40 0q27 0 61 -20 q-16 -59 -16 -119q0 -57 14 -115v-26q0 -88 12 -165l15 -92q8 -149 26 -208q-1 -14 -1 -28q0 -51 16 -114l9 -57l16 -105l-14 -10l52 -175l3 5l-17 1q5 -8 8 -8q6 0 5 29q0 13 -1 32h-16v-48l11 -43l7 -53l42 -161l10 -81l30 -50l-10 -26l-45 -35l-197 -30q-16 -2 -32.5 -2 t-32.5 2h-35q-25 12 -31 20q16 64 16 137t-16 155q4 13 4 29q0 23 -9 52q3 17 3 34q0 37 -13 76l-146 -20l-20 -5l-141 5h-30h-40h-30h-41l-30 -10q-83 -145 -91 -342l-30 -30q-74 28 -181 90l-20 11q-49 17 -111 20zM575 615q47 -13 91 -13q15 0 30 2h9q62 0 137 26l55 5 l25 5q3 42 3 83q0 104 -18 209q-2 49 -25 121l-20 85l-10 40q-54 -112 -76 -181q-56 -105 -80 -161l-30 -50l-10 -30l-21 -21l-25 -50l-15 -20z" />
<glyph unicode="B" horiz-adv-x="1196" d="M-20 -152l27 55q20 44 35 105q48 124 66 311l25 45v30q0 66 20 164v30l10 162l10 22l-10 20q18 53 20 132q0 83 21 136v10q0 63 24 142l17 179v42q-4 72 -44 159l-27 84l60 11q148 -3 295 -55q43 -29 112 -47l42 -10l155 -56q340 -179 340 -387q0 -189 -282 -402l-57 -30 q180 -55 247 -129l20 -24l13 -31q3 -9 21 -20q8 -29 30 -60q19 -76 28 -167l-31 -176l14 36l-31 -73l-36 -27q-91 -91 -223 -136l-66 -18l-150 -13l-54 -7l-79 -3l-53 -6l-31 9l-40 -3l-31 3h-40l-35 -3l-38 3q-49 -15 -111 -15q-38 0 -81 6l-40 -11zM388 47q25 -1 48 -1 q144 0 248 42l108 66q104 78 104 147q0 147 -467 257q-37 -268 -41 -511zM448 850q40 -10 82 -10q44 0 90 11q236 127 236 230q0 128 -370 218q-2 -76 -14 -176q-5 -49 -13 -95q-6 -80 -11 -178z" />
<glyph unicode="C" horiz-adv-x="1245" d="M66 614q150 816 1043 985q46 4 99 19q-8 -66 -8 -124q0 -81 16 -145l5 -30l-64 11q-459 -42 -739 -456q-88 -128 -88 -277q0 -112 50 -235q80 -84 197 -84q144 0 344 129l198 169l19 9l30 -105q-2 -36 40 -179l9 -40q-206 -182 -463 -246q-94 -27 -176 -27 q-279 0 -433 302l-59 187l-10 45l-1 44l-8 14z" />
<glyph unicode="D" horiz-adv-x="1397" d="M19 1441l28 151q8 28 10 76q7 47 18 66q64 -26 171 -38l28 -9l29 -9h28l29 -10l75 -19q41 -4 95 -19l47 -10l37 -9l39 -19l47 -9q48 -14 113 -47l38 -10l63 -33q78 -31 164 -90q19 -30 56 -47l29 -19q28 -28 57 -76l22 -15l110 -193l10 -28l10 -28l18 -19l11 -61v-46 l-1 -42q-121 -594 -795 -769l-53 -14q-37 -7 -99 -23l-16 -11q-55 -6 -124 -8l-19 56q4 22 4 50.5t-4 63.5l19 161v170q9 40 9 86v17v209l9 47l3 32l-3 53v57q-11 46 -11 114q0 27 2 57l2 37l-2 47l-8 58l-11 112q-28 3 -59 3q-80 0 -178 -22h-28q-4 17 -19 29zM527 1117 l10 -21v-79v-29l-9 -26l9 -64v-30v-29l-3 -88v-24q0 -56 7 -123q-8 -47 -8 -106q0 -40 4 -86v-70q188 1 377 120q222 132 222 346q0 71 -24 150q-92 325 -565 446q-17 -59 -17 -128q0 -43 7 -90z" />
<glyph unicode="E" horiz-adv-x="1027" d="M66 10q16 52 20 130v10q0 57 20 130l-5 30l15 110l10 49v50v30l10 40l10 100l10 50v50l10 170q19 66 20 160l10 50l10 70l10 129v60l20 80l-10 60l-10 50q71 16 190 20l20 10q20 -1 41 -1q241 0 468 121l20 15l-20 -15l30 35q21 -79 21 -155q0 -107 -41 -210 q-14 35 -52 35h-8l5 5l-135 -30l-55 -20l-45 -15l-25 -15l-35 -10l-46 13q1 -79 -51 -456q108 6 407 104q31 -48 40 -110v-70v-13q0 -41 -10 -107q-46 2 -100 5q-47 5 -105 5h-20q-10 1 -15 0q-34 3 -30 0h-45l-136 -2l-6 -70l-9 -68q-18 -48 -18 -120q5 -3 -5 -20l-10 -30 l-10 -79l-10 -40l-10 -50q87 2 149 30q139 4 280 90l20 10h40l-5 -60l5 -90v-175l-130 -5q-63 -9 -160 -15q-48 -16 -99 -16q-15 0 -30 1h-35l-45 -10h-30h-30q-45 -6 -91 -6q-17 0 -34 1q-70 -21 -145 -25z" />
<glyph unicode="F" horiz-adv-x="1251" d="M168 59q17 70 25 184l9 51q8 3 6 17l10 58q6 65 21 153l5 32l6 24q-3 17 2 35l2 37q19 25 19 59q0 6 -1 13l-3 25l17 134v34l16 59l10 75q-5 23 15 56l6 53l3 26q-1 8 -1 17q0 33 9 75q-2 11 -2 23q0 28 11 61l168 17l25 8l32 -1l10 10l13 -9q84 9 188 34h10q68 0 158 25 h25q9 -1 17 8l67 9h13q33 0 71 8q9 2 22 2q30 15 57 15h9q-16 -91 -16 -189q0 -74 9 -152l12 -43l-26 -19l-167 -8h-26h-92h-84q-23 -4 -42 -4q-13 0 -25 2l-25 2l-31 3l-36 -3l-14 -47q-13 -74 -45 -163l-5 -94q77 -14 161 -14q93 0 196 17l26 7l35 -2l-10 -116v-25 q5 -41 5 -76q0 -22 -2 -41l-28 -9q-25 4 -53 4q-49 0 -107 -12h-25h-59q-13 1 -25 6q-14 -1 -31 -1q-28 0 -61 3h-34q-70 -160 -70 -345q0 -73 11 -150l-55 -2q-40 4 -91 4q-20 0 -42 -1l-72 7l-44 7q-38 4 -82 27z" />
<glyph unicode="G" horiz-adv-x="1319" d="M117 441v37q-6 42 -6 89q0 72 14 155l5 27q12 39 22 90l36 63l10 28l9 27l9 26l17 37l19 27l18 36l18 27l22 36q52 45 93 121q65 48 118 112q58 34 102 65l17 19l32 13q82 40 172 89q52 30 96 41l33 4q61 34 138 78l37 19l44 17l27 -107l7 -147l-8 -6q19 -61 20 -110v-45 l-48 21q-63 14 -123 14q-220 0 -394 -187q-82 -66 -160 -160q-95 -109 -152 -268q-38 -92 -38 -176q0 -180 173 -320q40 -7 78 -7q189 0 321 180q13 51 13 107.5t-13 118.5l-64 -9q-28 8 -73 9q-45 -10 -107 -10q-23 0 -47 1l-63 -19q-31 -10 -72 -18q-27 54 -27 115t27 130 l171 8l10 5l27 -9l79 12q58 8 129 24q53 13 126 22h45h47l54 9l36 -18l-36 -162l-18 -63v-36l-10 -19q-1 -74 -18 -180l-8 -64v-27l-9 -27l-10 -36l-8 -133q-85 -30 -145 -61q-51 -23 -118 -49l-27 -10q-15 2 -28 -9h-199h-63q-41 8 -100 9q-18 6 -102 55q-55 38 -102 123 l-58 175z" />
<glyph unicode="H" horiz-adv-x="1568" d="M67 704l31 73h21q123 0 270 53h32l20 186l-11 21l4 31l11 38q-13 63 -13 145q0 68 9 150q0 30 -0.5 66.5t0.5 79.5l-11 42v27q0 39 -4 73q94 -23 180 -23q93 0 178 27l31 -21q-16 -71 -29 -167l-2 -83l-10 -31l-10 -135l-10 -42v-63l-11 -72v-32l-42 -134q-2 -6 -2 -10 q0 -21 39 -21q54 0 182 40l63 12q216 18 216 85q0 9 -4 18q35 97 43 219q-4 109 -16 249v177l-7 38q-17 56 -44 133q94 45 206 79l63 21q29 10 69 10h14h11h-11l38 13l4 -55q-13 -129 -31 -284l-11 -38v-32l-9 -42l-21 -186l-11 -41l-11 -53l-11 -31q0 -60 -20 -146l-10 -72 v-32l-4 -167l-17 -124v-31v-177v-42q1 -9 1 -18q0 -41 -11 -96v-41v-42l13 -43q30 -48 55 -124q-142 -43 -299 -43q-25 0 -51 1q-12 23 -62 28q27 42 47 77q67 200 67 397q0 68 -8 136q4 6 4 10q0 8 -17 7q-41 0 -176 -41l-31 -7q-21 15 -32 -13l7 16l-79 -17l-22 -14 l-51 -6q-17 9 -32 6l-31 -17q-87 -194 -87 -425q0 -96 15 -199q-23 -39 -72 -52l-157 31l-25 20l-24 -3l-24 15l-52 20l1 -11q-57 25 -74 33q149 233 190 547q-129 -33 -253 -79h-20q-52 89 -52 223v5z" />
<glyph unicode="I" horiz-adv-x="381" d="M4 214l86 121q77 243 77 516q0 155 -25 319l-23 45q-12 10 6 33q78 -20 198 -26l22 7q20 -7 64 -12h2q21 0 22 -22q0 -18 -15 -50l-34 -188q1 -35 1 -74q0 -52 -2 -109v-69q-8 -48 -8 -102q0 -25 2 -51v-36l3 8v-182l5 -36q11 -40 50 -74q-48 -20 -121 -26 q-63 -21 -140 -21q-32 0 -67 4l-25 11h-26zM105 1544q22 131 164 155h52q39 -5 76 -31q26 -24 43 -52q4 -32 4 -60q0 -171 -157 -171q-58 0 -137 23q-46 32 -46 113q0 11 1 23z" />
<glyph unicode="J" horiz-adv-x="1169" d="M55 -293q36 34 72 80q88 93 206 285l25 -17q101 -116 228 -116q76 0 161 41l-7 288q-5 7 -5 26q0 17 4 42l-9 42q-2 66 -10 151l-10 63l8 62v64l4 89l-42 65l-3 24l-7 6l-106 106l83 8q76 -6 170 -6q56 0 119 2q24 -7 66 -7q26 0 60 3l33 -21l-17 -92q-5 -93 -5 -199v-35 l10 -32v-32l-10 -34v-42q11 -45 11 -95q0 -12 -1 -24v-44l12 -34v-64q36 -130 36 -244q0 -303 -253 -493l-173 -32q-35 -3 -70 -3t-71 3l-32 11l-44 10q-57 28 -162 44q-49 35 -131 54l-21 21l-43 12l-33 11zM589 1272q-30 88 -30 157q0 239 362 251q225 -56 225 -281 q0 -22 -2 -46q-115 -176 -282 -176q-123 0 -273 95z" />
<glyph unicode="K" horiz-adv-x="1430" d="M65 1630l104 3l-2 -6q82 -17 165 -25l40 5l39 -1l45 -12l-22 -40q-42 -109 -52 -244q-16 -96 -16 -203q10 -62 16 -127l-7 -14l6 -33l9 -21l102 154l7 21q11 2 15 14l14 15l7 22l21 14q6 10 13 34l17 9l14 28l21 37l22 21l21 14q5 21 32 50q4 13 26 44l14 43l15 21 q7 3 14 14q15 31 44 58l17 17q5 30 25 61l15 30l-9 55l109 9q33 0 87 -7h21q28 6 59 6t63 -6h29l28 -7q-60 -56 -108 -151q-74 -62 -129 -173q-43 -46 -78 -129l-14 -14q-13 -20 -40 -50q-26 -43 -60 -97q-65 -67 -106 -162q-58 -74 -104 -185q54 -40 137 -75 q39 -12 107 -33l85 -31q32 -23 138 -48q10 -6 29 -7q28 -16 72 -29q30 -6 71 -31l25 -2q29 -16 69 -24l122 -15l14 -7q-1 -70 -36 -165v-21q-32 -41 -43 -101q-7 -1 -15 -26q-46 9 -92 17l-37 23l-28 8l-22 18q-64 16 -164 54l-51 28q-55 10 -151 44l-14 7l-14 14l-44 15 q-31 22 -78 28l-16 14l-21 7l-94 36h-15q-35 19 -77 37l-14 14l-51 7q-7 -26 -7 -58.5t7 -70.5q-8 -33 -7 -69q0 -49 14 -103q4 -45 21 -86v-22q-70 -35 -186 -51l-21 -2l-22 5q-5 -1 -11 -1q-45 0 -114 35l25 64q15 41 30 88l-2 34l18 62q5 25 5 55q0 41 -9 91 q6 30 6.5 65.5t-6.5 78.5l8 14l-15 57q12 45 12 94q0 32 -5 65l15 78l-3 14l3 29q-8 2 3 20q-5 81 -18 209q2 12 2 24q0 24 -9 49l7 28q-6 27 -21 64q0 31 -7 72q-7 16 -21 36v11q0 33 -15 68l7 22q-10 5 -5 13z" />
<glyph unicode="L" horiz-adv-x="893" d="M67 -27q33 90 49 224l9 20l10 155v30q9 44 10 107v29q10 60 10 149v16l9 39q-1 16 -1 34q0 53 11 122v29q-1 9 -1 18q0 41 11 99l-10 263l-10 38l-9 234l-16 39q108 -19 210 -25q9 2 30 -4h29l24 4l49 11l-24 -220v-29l-10 -39v-29v-78v-136v-175v-39v-127v-48v-59 l-15 -136v-121l-5 -35l-10 -118q115 11 217 11h17q39 9 78 10l29 -5l59 10q14 -120 22 -194l-256 -44h-29l-20 -10l-77 -20h-39l-30 -9l-29 -10q-14 1 -29 -10h-39q-47 -8 -107 -29h-109q-4 37 -8 58z" />
<glyph unicode="M" horiz-adv-x="1706" d="M152 190q60 41 101 89l30 33q20 38 47 86l3 31l17 26l5 25q38 46 50 115l28 69l17 17q5 44 40 100l10 30q36 106 66 287q58 157 58 358v7l-6 22l17 160q69 -9 149 -9q103 0 224 15l-5 -183q-14 -69 -14 -154q0 -46 4 -97l2 -25v-84v-25v-42l-7 -30q3 -76 15 -188l9 -33 v-42l25 -17q46 79 78 188q16 24 10 33l17 39l5 28l14 30l1 25l17 42l8 34l17 42l17 33l2 47l18 42q12 71 42 341q35 -6 71 -6l31 1l54 6q24 6 62.5 6t91.5 -6l-20 -506v-34v-25v-33l8 -25v-34l9 -67v-25q-5 -22 -5 -45t5 -47v-42l8 -117l8 -34q-1 -10 -1 -21q0 -43 10 -96 v-34q0 -79 16 -176l-8 -41q-1 -9 8 -17v-50q-5 -22 -5 -45t5 -48q-6 -26 -8 -67q18 -62 42 -117q-19 -2 -38 -2q-82 0 -188 27h-35q-35 35 -51 19q-3 19 -3 37q0 51 22 87l8 134v192q1 13 7 25q-4 46 -7 109v34l-7 -13l-10 33l4 21l-15 21l-20 129q-1 4 -3 4q-9 0 -41 -104 l-43 -103l-14 -30l-10 -34l-12 -26l-3 -15l-5 -34l-17 -20l-3 -35v-6q0 -35 -22 -80l-8 -31v-24q-13 -25 -22 -55q-17 -57 -18 -135q0 -12 1 -24h-92q-24 -4 -49 -4l-177 54v10q0 29 -9 65l10 54l-1 30v25l-9 25q12 13 0 34l9 25l-2 82l-7 10v42v25q1 18 1 37q0 30 -2 65 q-1 46 -7 124l-10 132q-100 -200 -183 -405l-41 -102q-28 -52 -28 -126q0 -60 19 -135h-24q-230 0 -358 112z" />
<glyph unicode="N" horiz-adv-x="1330" d="M7 -30l30 50q43 59 90 160q45 83 55 141q16 42 16 68q0 6 -1 12l10 50l40 150l10 20q1 44 20 100l30 140l10 90l20 40l21 110v30q15 57 20 131l10 30q-1 72 -30 170v30q1 10 -11 20v30q11 2 21 20q90 -48 220 -50l70 -20q3 -162 60 -306l15 -55l35 -125q16 -18 50 -105 q11 -36 40 -90l20 -120q18 -36 60 -70q15 75 20 190v160q2 12 2 23q0 28 -12 57q7 40 7 85t-7 96l-10 70q-17 90 -80 190v30l171 20h40h30h30l45 5l65 -5h35h45q27 0 20 -20l-25 -65q-73 -140 -95 -336l-30 -130v-30q-9 -30 -10 -80v-30l-10 -30v-30q0 -32 -10 -80v-30v-70 l-10 -30v-30l-30 -140l-10 -60q2 -20 2 -41q0 -58 -12 -130l-5 -50l5 -50l-30 -50h-101q-44 9 -120 10h-30q-9 77 -60 150l-20 80l-5 25l-15 46l-20 60l-10 20l-10 50q-28 45 -40 110q-17 50 -40 110l-20 50q-9 72 -50 310q-33 -204 -50 -280l-30 -160l-20 -80q1 -6 1 -12 q0 -26 -11 -58l-20 -105l-10 -46q3 -13 0 -40q-7 -43 -7 -87q0 -86 27 -173v-30l-10 -20q-62 -15 -151 -20q-78 12 -170 15z" />
<glyph unicode="O" horiz-adv-x="1147" d="M82 796q-24 105 -24 207q0 345 281 642q96 58 201 67q286 -15 506 -273q34 -78 79 -212q5 -31 6 -67q0 -72 -22 -163l-22 -111q-34 -87 -101 -201l-6 -22l-27 -34q-227 -110 -489 -110q-115 0 -237 21q-59 41 -116 149l2 7l-11 22zM358 842q17 -162 124 -162q71 0 181 70 q127 141 229 382q5 27 5 54q0 169 -189 294q-322 -177 -350 -638z" />
<glyph unicode="P" d="M158 -22l62 257l18 17l6 41l19 26l1 22q15 49 24 125l3 25l9 27q11 37 11 64q0 14 -3 25l19 51l14 63q25 89 29 213q15 60 18 159l9 36l18 44q1 49 17 115v124l-220 -3q40 79 47 214l32 1q32 -6 67 -6t74 6q14 -4 31.5 -4t39.5 4h27l26 -9q23 3 59 3h18q27 -2 58 -2 q57 0 127 7q31 -1 92 -8h45l35 -9l45 2l35 -10q67 -13 132 -45q48 -44 109 -88q28 -57 33 -124l-18 -141q-53 -66 -88 -160l-18 -9l9 7q-48 -56 -106 -131l-45 -26l-26 -19l-27 -17l-13 -16q-67 -26 -146 -81q-40 0 -80 -27l-150 -17l-27 -18q-2 -62 -26 -133 q-16 -58 -18 -141l-9 -18v-27l-9 -17v-36q-1 -13 -6 -31l-2 -31l-9 -44l-9 -142q8 -26 9 -70l-9 -36h-142h-26q-22 -2 -46 -2q-70 0 -149 20zM652 987q17 -11 36 -11q30 0 68 26q127 44 181 188q1 10 1 20q0 150 -244 176q-13 -90 -19 -171q-17 -109 -23 -228z" />
<glyph unicode="Q" d="M92 994l23 82v35q38 77 93 185q54 48 71 73l28 21l7 14q21 9 64 28q81 64 206 101l93 23q724 -22 738 -551q-3 -45 -17 -148l-53 -144l-12 -35l-23 -36l-12 -35l-23 -23l-12 -35l-33 -33l-5 -6q105 -87 132 -196l-30 -23q-117 -122 -286 -164q-58 58 -141 176 q-122 -52 -242 -52q-245 0 -484 216q-42 84 -59 211l-16 33zM467 728q47 -225 260 -228q-88 75 -89 129q126 118 170 245q10 1 21 1q108 0 216 -116q78 173 78 290q0 248 -346 248q-17 0 -34 -1q-277 -169 -277 -518q0 -24 1 -50z" />
<glyph unicode="R" horiz-adv-x="1479" d="M161 -52l66 274l14 19l-4 38l9 28l3 18q1 38 10 83l9 53l14 63q27 59 40 132l9 29l9 56q33 95 48 227q15 64 19 170l9 38l19 47q1 52 19 123v132l-233 -6l-1 -6q-1 0 14 215l9 24q64 -6 116.5 -6.5t94.5 6.5q14 -5 33 -5t42 5h29l28 -10q31 4 71 9q58 -8 124 -8 q38 0 79 3q13 1 29 1q32 0 75 -5h47l38 1l37 -5l48 -5q76 -20 141 -57q71 -38 112 -99q27 -51 29 -123l1 -23q-5 -43 -10 -99q-145 -362 -509 -487l-70 -37q156 -91 316 -138q140 -71 339 -80l-38 -151q-3 -47 -19 -104l-9 -28l-10 -47v-38q-12 -2 -24 -2q-28 0 -61 11 q-47 42 -113 66l-57 38l-8 11l-124 55l-18 6q-63 29 -152 70l-19 9l-37 19l-38 29l-37 19l-48 18l-38 19q-62 -115 -62 -252v-17q-21 -91 -21 -193q0 -64 8 -133l-19 -28q-48 10 -111 10q-19 0 -40 -1h-29h-28h-66q-48 4 -104 19zM661 1025q26 -11 52 -11q45 0 86 33 q135 41 193 195q1 12 1 23q0 159 -243 185q-31 -95 -42 -208q-35 -90 -47 -217z" />
<glyph unicode="S" horiz-adv-x="1223" d="M17 103l5 49l27 64q91 -25 181 -25l361 99l51 57q2 15 2 29q0 46 -17 93q-62 88 -166 131q-317 151 -317 497q0 47 6 98q38 75 91 127q56 86 156 165l18 9l24 16q70 44 178 122l26 9l101 55q41 17 92 37q57 14 133 43q59 12 141 48q9 -1 19 9l27 -9q1 -78 5 -196l5 -70 v-33l12 7q-4 -1 -4 -10q0 -15 11 -52l17 -77l9 -36l-15 -45q-51 15 -113 45l-93 34q-76 34 -182 34q-35 0 -73 -4q-194 -49 -282 -243q-2 -262 254 -415q90 -70 190 -213q45 -46 58 -126l12 -4l-2 -117q-13 -26 -38 -89q-9 -3 -18 -18q-28 -19 -29 -26l-35 -38 q-12 -8 -12 -22q-40 -17 -63 -47l-76 -40l-59 -26l-64 -39l-201 -73l-30 -7l-25 -21l-28 -9l-18 -18l-31 -6q-50 -42 -125 -77l-18 -18q-77 158 -78 372z" />
<glyph unicode="T" horiz-adv-x="1491" d="M14 1852l291 -16h32h184h43h43h43h43h33q25 -1 54 11h140h32h33h32l76 -11h54h194h32l32 -11l54 11q16 -75 22 -194v-32q-62 -14 -128.5 -14t-137.5 14h-155h-32h-32l-33 15l-32 -5h-7q-48 0 -96 -12l-6 -149v-33l-8 -183l-2 -86q13 -15 0 -33v-43v-43l-4 -49 q-7 -48 -7 -109v-15v-183v-76v-64v-76v-64v-184q9 -93 65 -194h-140h-33h-32h-32l-76 11h-54l-32 11q36 32 43 86q-4 31 -4 67q0 73 15 170v216q11 49 11 119v43l-11 64l11 44l5 273q6 38 6 87q0 19 -1 39l11 162q8 38 7.5 78t-7.5 83l11 22q-160 16 -433 18l-91 -23 q-5 25 -11 70q12 24 12 58q0 24 -6 53z" />
<glyph unicode="U" horiz-adv-x="1479" d="M161 917q10 48 10 111q0 16 -1 32l9 117l-1 22l10 77v36l13 46q2 51 14 151l20 131q48 -10 101 -13l103 -37l72 -18l27 -9h27l18 -18h12q44 0 96 -18l-75 -123q-108 -337 -107 -565q0 -262 141 -380q54 -111 168 -119l123 -29q157 23 233 169q27 83 62 168l-11 17l8 25 l5 6l20 176l-20 45l9 27v81l9 26v207l-9 54q3 24 3 49t-3 50l-21 116q70 13 139 13q122 0 241 -40q-1 -11 -1 -22q0 -33 10 -76q-9 -46 -9 -96q0 -23 2 -48l1 -17v-26q0 -52 6 -110q-3 -21 -3 -47q0 -21 2 -47q-4 -29 -4 -69v-16q-31 -65 -31 -155v-16q-16 -38 -28 -95 q-23 -52 -35 -115l-8 -29l-10 -12l-53 -99l-9 -36l-18 -36l-30 -61q-9 -4 -42 -64q-41 -24 -72 -72l-54 -36l-18 -18l-27 -27q-15 -3 -27 -18q-55 -24 -134 -36h-63h-72q-12 -1 -25 -1q-53 0 -128 10l12 3l-67 19l-64 28l-3 -1l-66 43l-27 34l-18 18q-21 19 -49 46 q-21 46 -62 85l-15 39q-45 45 -53 126l-3 -16l-16 28q-11 36 -35 78q-28 62 -54 170q-4 25 -18 45q-21 66 -27 162z" />
<glyph unicode="V" horiz-adv-x="1571" d="M9 1185q6 13 0 26q36 23 78 63q21 8 55 24l55 41l9 2l32 21l96 54q33 -1 42 18q38 -63 46 -101q26 -51 51 -136l15 -29q16 -28 28 -66q39 -152 135 -350l34 -71q21 -55 31 -106q16 -16 19 -73l49 -117q0 -8 3 -8q12 0 74 160q21 32 30 76l17 18l16 27q21 69 56 160l25 44 l23 36q17 27 35 65l-3 18l9 11l28 51q31 71 86 152q18 40 49 101q11 18 34 34q55 -30 137 -102q28 -13 68 -53q31 -42 86 -84q-40 -110 -145 -205l-24 -43q-23 -32 -70 -94l-120 -171l-19 -16l-13 -27l-62 -94l-24 -21l-10 -30l-24 -31l-11 -20l-25 -43l-17 -43l-18 -34 l-25 -34l-67 -79q-30 -39 -70 -72q-24 -19 -62 -39q-127 66 -196 237l-33 55l-128 223l-17 17l-9 17q-2 8 -17 17l-8 26q2 13 -9 25l-14 9l-18 37q-15 28 -45 65q-9 39 -43 77l-34 43q-16 49 -45 104l-23 41l-17 26l-35 86l-8 25q-12 30 -43 60z" />
<glyph unicode="W" horiz-adv-x="2971" d="M33 1174q-7 15 -7 30q0 26 22 52l88 78q26 19 77 58q54 60 104 94l29 38q19 -32 -7 -28l73 38q32 18 66 57q10 -2 19 9q26 -32 47 -85l38 -57l19 -19l29 -66q25 -32 47 -85l19 -19l19 -38q15 -31 47 -76l-13 -4l31 -66l19 -49l33 -62l53 -72q46 -104 105 -212l34 -47 l-7 -16l11 -12l73 -170l148 311l23 29l-4 18l36 129l39 137l55 134l13 106l25 104l9 33q8 30 17 -17l-56 -75l48 132q-11 -3 -12 -3q-5 0 68 22q65 -14 171 -19l118 1q-15 -66 -15 -140q0 -20 1 -40q-1 -10 10 -19v-29l19 -19l28 -94l38 -76l57 -152l19 -28l56 -152l10 -18 l9 -29q-1 -77 105 -298q68 182 86 262l2 34l25 97l10 19q12 39 38 85l9 19l10 38l19 38l18 47l19 28q21 78 76 180l19 38l10 38l5 66q16 -1 32 -1q70 0 143 11q16 -3 35 -3q38 0 88 12h28h28h38l95 -19v-38q-166 -148 -320 -457l-59 -158q-12 -40 -38 -85l-9 -29l-29 -66 l-9 -28l-19 -29l-9 -28l-10 -28l-9 -29q-29 -34 -38 -85q-48 -68 -76 -171l-19 -28l-19 -28v-29l-19 -19l-19 -47h-293h-29h-28l-85 208l-6 39l-13 9l-19 19l-10 28l-19 38v28l-28 38l-10 38l-9 28l-10 29l-28 38l-57 161l-28 56q-77 -92 -114 -227q-35 -53 -57 -142l-9 -19 l-48 -104l-9 -28l-47 -114l-13 6l-13 -40l-12 -73q-57 4 -130 4q-29 0 -60 -1h-28h-104l-38 57l-19 66l-38 57q-36 163 -141 310q-55 112 -142 247l-31 76l-33 60q-39 8 -117 83v-5l-29 34q-120 131 -331 170z" />
<glyph unicode="X" horiz-adv-x="1737" d="M9 1335q49 73 140 172l22 11l10 22l65 75q11 3 21 22q52 -50 140 -108l11 -22q34 -20 76 -64q32 -15 64 -54l140 -108q41 -44 108 -97l43 -10q80 79 183 226q36 32 65 86l32 21l21 33l22 21l22 33l21 43l22 32l237 -97l32 -11q27 -29 75 -43q-2 -11 11 -21 q-52 -57 -118 -162q-67 -56 -130 -151l-21 -21q-33 -32 -65 -86l-21 -11l-22 -32l-97 -119l119 -86q23 -35 75 -64q3 -11 22 -22l10 -22l43 -21l22 -32l43 -22l32 -32l22 -22l32 -21l43 -33q56 -68 151 -129q-24 -44 -32 -97q-59 -68 -130 -183l-21 -32l-140 118l-22 11 q-42 48 -129 108l-32 32q-55 34 -119 97l-118 86l-97 86l-97 -107q-21 -40 -64 -76l-22 -32l-22 -32l-21 -22l-32 -32l-151 -194l-32 -43q-47 -42 -76 -97q-78 29 -161 108l-33 10l-21 22h-33l-10 32l-33 11l-32 11q83 58 151 172l43 54q71 57 129 161l32 22l33 43l75 108 l22 32l57 50l7 36q-72 44 -172 129l-22 11l-10 22q-50 44 -140 97l-22 32q-49 45 -140 97l-11 21l-21 11z" />
<glyph unicode="Y" horiz-adv-x="1284" d="M74 1606q90 0 179 45l51 23q32 19 76 34q9 -1 17 9l21 11q9 -71 39 -122q4 -54 34 -110v-26l9 -17l8 -25q-1 -9 9 -18v-25l8 -34l9 -26l8 -34l9 -25l51 -111l17 -60q3 -34 25 -68q-1 -12 9 -25q5 -23 25 -43q37 35 77 94q8 34 34 85l34 85q18 39 36 85l7 17l17 43l8 34 l17 43l17 34l17 42l17 34l17 51h102h26h145h34h110h43l-31 -51q-31 -32 -54 -85l-43 -48l-17 -20l-8 -26q-38 -32 -68 -76q-31 -20 -60 -60l-17 -25l-25 -24q-16 -26 -60 -70l-26 -32l-17 -11l-25 -42l-26 -60q-27 -17 -42 -51q-52 -74 -105 -148l-12 -22l-2 -26l-14 -170 l-10 -41q-6 -40 -6 -96q0 -45 4 -101v-51q17 -37 17 -87v-16v-25l9 -17v-34v-94q-14 2 -29 2q-37 0 -82 -10q-28 11 -68 17q-46 -15 -111 -17l-17 -9l-25 17l17 162l8 34q1 42 17 94l9 76l8 68l9 43q0 82 -9 213v34l-10 44q-16 46 -58 101q-7 9 -17 42l-15 16q5 13 -2 27 l-43 51l-25 59q-24 37 -51 103l-9 17l-17 25q-24 37 -51 102l-8 17l-17 9l-9 25l-8 17l-17 26l-51 111l-26 34z" />
<glyph unicode="Z" horiz-adv-x="1251" d="M41 88q34 91 127 176l10 29l78 136q27 41 68 93l29 54l20 29l68 117q32 33 69 98l97 146l10 29q10 4 20 20l9 20l10 19l30 29l29 39l49 74l-235 -5h-29h-39h-30h-136h-127l-19 14q4 19 4 39q0 22 -5 44q-12 71 -20 201l69 -6l156 10h39q15 -1 30 10q22 -4 49 -3.5t58 3.5 l39 10h137q46 11 99 11q23 0 47 -2l80 10q-2 -3 4 -3q13 0 63 13h195h29h10h-10h10q-2 -69 -39 -156l-15 -29q-34 -47 -73 -127q-28 -41 -64 -98q-9 -13 -19 -19l-10 -30l-34 -48l-19 -20l-25 -39l-14 -39l-20 -29q-31 -34 -68 -98l-30 -39q-9 -36 -38 -78l-20 -20 q-20 -53 -68 -107l-10 -29q-34 -32 -69 -98l-14 -30l-15 -9l-29 -39l-30 -58q51 -4 105 -4.5t110 4.5h30h107h78h29h39l29 5q69 18 108 68v-112q-6 -118 -49 -264q-88 65 -228 65q-17 0 -35 -1l-69 -5h-175h-39h-30h-39l-34 5l-44 -15h-166l-44 10l-73 5z" />
<glyph unicode="[" horiz-adv-x="682" d="M168 1768l463 140l55 -243l-306 -54l13 -1449l348 62l-87 -281l-479 -7z" />
<glyph unicode="\" horiz-adv-x="747" d="M3 1521l322 33l409 -1350l-150 -232z" />
<glyph unicode="]" horiz-adv-x="682" d="M75 150l235 -62l24 1511l-228 -47l-23 305l471 -54l47 -1911l-495 -8z" />
<glyph unicode="^" horiz-adv-x="961" d="M37 770l431 645l64 -9l412 -661l-163 -19l-288 527l-350 -586z" />
<glyph unicode="_" horiz-adv-x="1140" d="M3 -431l2 111l1122 -19l-6 -92h-1118z" />
<glyph unicode="`" horiz-adv-x="682" d="M118 1390l224 24l111 -347l-44 -31z" />
<glyph unicode="a" d="M-3 112l121 242l20 30l60 131q36 41 61 100l30 61q47 67 101 181l10 20l10 20l20 20l10 31l25 45l15 45l20 51l21 50l40 70l35 91l-81 -15q-19 -9 -33 -9q-47 0 -47 93q0 67 25 183l81 5l70 -5q38 0 91 -5q85 1 201 5l30 -5l41 5h40q15 -8 40 0q27 0 61 -20 q-16 -59 -16 -119q0 -57 14 -115v-26q0 -88 12 -165l15 -92q8 -149 26 -208q-1 -14 -1 -28q0 -51 16 -114l9 -57l16 -105l-14 -10l52 -175l3 5l-17 1q5 -8 8 -8q6 0 5 29q0 13 -1 32h-16v-48l11 -43l7 -53l42 -161l10 -81l30 -50l-10 -26l-45 -35l-197 -30q-16 -2 -32.5 -2 t-32.5 2h-35q-25 12 -31 20q16 64 16 137t-16 155q4 13 4 29q0 23 -9 52q3 17 3 34q0 37 -13 76l-146 -20l-20 -5l-141 5h-30h-40h-30h-41l-30 -10q-83 -145 -91 -342l-30 -30q-74 28 -181 90l-20 11q-49 17 -111 20zM575 615q47 -13 91 -13q15 0 30 2h9q62 0 137 26l55 5 l25 5q3 42 3 83q0 104 -18 209q-2 49 -25 121l-20 85l-10 40q-54 -112 -76 -181q-56 -105 -80 -161l-30 -50l-10 -30l-21 -21l-25 -50l-15 -20z" />
<glyph unicode="b" horiz-adv-x="1196" d="M-20 -152l27 55q20 44 35 105q48 124 66 311l25 45v30q0 66 20 164v30l10 162l10 22l-10 20q18 53 20 132q0 83 21 136v10q0 63 24 142l17 179v42q-4 72 -44 159l-27 84l60 11q148 -3 295 -55q43 -29 112 -47l42 -10l155 -56q340 -179 340 -387q0 -189 -282 -402l-57 -30 q180 -55 247 -129l20 -24l13 -31q3 -9 21 -20q8 -29 30 -60q19 -76 28 -167l-31 -176l14 36l-31 -73l-36 -27q-91 -91 -223 -136l-66 -18l-150 -13l-54 -7l-79 -3l-53 -6l-31 9l-40 -3l-31 3h-40l-35 -3l-38 3q-49 -15 -111 -15q-38 0 -81 6l-40 -11zM388 47q25 -1 48 -1 q144 0 248 42l108 66q104 78 104 147q0 147 -467 257q-37 -268 -41 -511zM448 850q40 -10 82 -10q44 0 90 11q236 127 236 230q0 128 -370 218q-2 -76 -14 -176q-5 -49 -13 -95q-6 -80 -11 -178z" />
<glyph unicode="c" horiz-adv-x="1245" d="M66 614q150 816 1043 985q46 4 99 19q-8 -66 -8 -124q0 -81 16 -145l5 -30l-64 11q-459 -42 -739 -456q-88 -128 -88 -277q0 -112 50 -235q80 -84 197 -84q144 0 344 129l198 169l19 9l30 -105q-2 -36 40 -179l9 -40q-206 -182 -463 -246q-94 -27 -176 -27 q-279 0 -433 302l-59 187l-10 45l-1 44l-8 14z" />
<glyph unicode="d" horiz-adv-x="1397" d="M19 1441l28 151q8 28 10 76q7 47 18 66q64 -26 171 -38l28 -9l29 -9h28l29 -10l75 -19q41 -4 95 -19l47 -10l37 -9l39 -19l47 -9q48 -14 113 -47l38 -10l63 -33q78 -31 164 -90q19 -30 56 -47l29 -19q28 -28 57 -76l22 -15l110 -193l10 -28l10 -28l18 -19l11 -61v-46 l-1 -42q-121 -594 -795 -769l-53 -14q-37 -7 -99 -23l-16 -11q-55 -6 -124 -8l-19 56q4 22 4 50.5t-4 63.5l19 161v170q9 40 9 86v17v209l9 47l3 32l-3 53v57q-11 46 -11 114q0 27 2 57l2 37l-2 47l-8 58l-11 112q-28 3 -59 3q-80 0 -178 -22h-28q-4 17 -19 29zM527 1117 l10 -21v-79v-29l-9 -26l9 -64v-30v-29l-3 -88v-24q0 -56 7 -123q-8 -47 -8 -106q0 -40 4 -86v-70q188 1 377 120q222 132 222 346q0 71 -24 150q-92 325 -565 446q-17 -59 -17 -128q0 -43 7 -90z" />
<glyph unicode="e" horiz-adv-x="1027" d="M66 10q16 52 20 130v10q0 57 20 130l-5 30l15 110l10 49v50v30l10 40l10 100l10 50v50l10 170q19 66 20 160l10 50l10 70l10 129v60l20 80l-10 60l-10 50q71 16 190 20l20 10q20 -1 41 -1q241 0 468 121l20 15l-20 -15l30 35q21 -79 21 -155q0 -107 -41 -210 q-14 35 -52 35h-8l5 5l-135 -30l-55 -20l-45 -15l-25 -15l-35 -10l-46 13q1 -79 -51 -456q108 6 407 104q31 -48 40 -110v-70v-13q0 -41 -10 -107q-46 2 -100 5q-47 5 -105 5h-20q-10 1 -15 0q-34 3 -30 0h-45l-136 -2l-6 -70l-9 -68q-18 -48 -18 -120q5 -3 -5 -20l-10 -30 l-10 -79l-10 -40l-10 -50q87 2 149 30q139 4 280 90l20 10h40l-5 -60l5 -90v-175l-130 -5q-63 -9 -160 -15q-48 -16 -99 -16q-15 0 -30 1h-35l-45 -10h-30h-30q-45 -6 -91 -6q-17 0 -34 1q-70 -21 -145 -25z" />
<glyph unicode="f" horiz-adv-x="1251" d="M168 59q17 70 25 184l9 51q8 3 6 17l10 58q6 65 21 153l5 32l6 24q-3 17 2 35l2 37q19 25 19 59q0 7 -1 13l-3 25l17 134v34l16 59l10 75q-5 23 15 56l6 53l3 26q-1 8 -1 17q0 33 9 75q-2 11 -2 23q0 28 11 61l168 17l25 8l32 -1l10 10l13 -9q84 9 188 34h10q68 0 158 25 h25q9 -1 17 8l67 9h13q33 0 71 8q9 2 22 2q30 15 57 15h9q-16 -91 -16 -189q0 -74 9 -152l12 -43l-26 -19l-167 -8h-26h-92h-84q-23 -4 -42 -4q-13 0 -25 2l-25 2l-31 3l-36 -3l-14 -47q-13 -74 -45 -163l-5 -94q77 -14 161 -14q94 0 196 17l26 7l35 -2l-10 -116v-25 q5 -41 5 -76q0 -22 -2 -41l-28 -9q-25 4 -53 4q-49 0 -107 -12h-25h-59q-13 1 -25 6q-14 -1 -31 -1q-27 0 -61 3h-34q-70 -160 -70 -345q0 -73 11 -150l-55 -2q-40 4 -91 4q-20 0 -42 -1l-72 7l-44 7q-38 4 -82 27z" />
<glyph unicode="g" horiz-adv-x="1319" d="M117 441v37q-6 42 -6 89q0 72 14 155l5 27q12 39 22 90l36 63l10 28l9 27l9 26l17 37l19 27l18 36l18 27l22 36q52 45 93 121q65 48 118 112q58 34 102 65l17 19l32 13q82 40 172 89q52 30 96 41l33 4q61 34 138 78l37 19l44 17l27 -107l7 -147l-8 -6q19 -61 20 -110v-45 l-48 21q-63 14 -123 14q-220 0 -394 -187q-82 -66 -160 -160q-95 -109 -152 -268q-38 -92 -38 -176q0 -180 173 -320q40 -7 78 -7q189 0 321 180q13 51 13 107.5t-13 118.5l-64 -9q-28 8 -73 9q-45 -10 -107 -10q-23 0 -47 1l-63 -19q-31 -10 -72 -18q-27 54 -27 115t27 130 l171 8l10 5l27 -9l79 12q58 8 129 24q53 13 126 22h45h47l54 9l36 -18l-36 -162l-18 -63v-36l-10 -19q-1 -74 -18 -180l-8 -64v-27l-9 -27l-10 -36l-8 -133q-85 -30 -145 -61q-51 -23 -118 -49l-27 -10q-15 2 -28 -9h-199h-63q-41 8 -100 9q-18 6 -102 55q-55 38 -102 123 l-58 175z" />
<glyph unicode="h" horiz-adv-x="1568" d="M67 704l31 73h21q123 0 270 53h32l20 186l-11 21l4 31l11 38q-13 63 -13 145q0 68 9 150q0 30 -0.5 66.5t0.5 79.5l-11 42v27q0 39 -4 73q94 -23 180 -23q93 0 178 27l31 -21q-16 -71 -29 -167l-2 -83l-10 -31l-10 -135l-10 -42v-63l-11 -72v-32l-42 -134q-2 -6 -2 -10 q0 -21 39 -21q54 0 182 40l63 12q216 18 216 85q0 9 -4 18q35 97 43 219q-4 109 -16 249v177l-7 38q-17 56 -44 133q94 45 206 79l63 21q29 10 69 10h14h11h-11l38 13l4 -55q-13 -129 -31 -284l-11 -38v-32l-9 -42l-21 -186l-11 -41l-11 -53l-11 -31q0 -60 -20 -146l-10 -72 v-32l-4 -167l-17 -124v-31v-177v-42q1 -9 1 -18q0 -41 -11 -96v-41v-42l13 -43q30 -48 55 -124q-142 -43 -299 -43q-25 0 -51 1q-12 23 -62 28q27 42 47 77q67 200 67 397q0 68 -8 136q4 6 4 10q0 8 -17 7q-41 0 -176 -41l-31 -7q-21 15 -32 -13l7 16l-79 -17l-22 -14 l-51 -6q-17 9 -32 6l-31 -17q-87 -194 -87 -425q0 -96 15 -199q-23 -39 -72 -52l-157 31l-25 20l-24 -3l-24 15l-52 20l1 -11q-57 25 -74 33q149 233 190 547q-129 -33 -253 -79h-20q-52 89 -52 223v5z" />
<glyph unicode="i" horiz-adv-x="381" d="M4 214l86 121q77 243 77 516q0 155 -25 319l-23 45q-12 10 6 33q78 -20 198 -26l22 7q20 -7 64 -12h2q21 0 22 -22q0 -18 -15 -50l-34 -188q1 -35 1 -74q0 -52 -2 -109v-69q-8 -48 -8 -102q0 -25 2 -51v-36l3 8v-182l5 -36q11 -40 50 -74q-48 -20 -121 -26 q-63 -21 -140 -21q-32 0 -67 4l-25 11h-26zM105 1544q22 131 164 155h52q39 -5 76 -31q26 -24 43 -52q4 -32 4 -60q0 -171 -157 -171q-58 0 -137 23q-46 32 -46 113q0 11 1 23z" />
<glyph unicode="j" horiz-adv-x="1169" d="M55 -293q36 34 72 80q88 93 206 285l25 -17q101 -116 228 -116q76 0 161 41l-7 288q-5 7 -5 26q0 17 4 42l-9 42q-2 66 -10 151l-10 63l8 62v64l4 89l-42 65l-3 24l-7 6l-106 106l83 8q76 -6 170 -6q56 0 119 2q24 -7 66 -7q26 0 60 3l33 -21l-17 -92q-5 -93 -5 -199v-35 l10 -32v-32l-10 -34v-42q11 -45 11 -95q0 -12 -1 -24v-44l12 -34v-64q36 -130 36 -244q0 -303 -253 -493l-173 -32q-35 -3 -70 -3t-71 3l-32 11l-44 10q-57 28 -162 44q-49 35 -131 54l-21 21l-43 12l-33 11zM589 1272q-30 88 -30 157q0 239 362 251q225 -56 225 -281 q0 -22 -2 -46q-115 -176 -282 -176q-123 0 -273 95z" />
<glyph unicode="k" horiz-adv-x="1430" d="M65 1630l104 3l-2 -6q82 -17 165 -25l40 5l39 -1l45 -12l-22 -40q-42 -109 -52 -244q-16 -96 -16 -203q10 -62 16 -127l-7 -14l6 -33l9 -21l102 154l7 21q11 2 15 14l14 15l7 22l21 14q6 10 13 34l17 9l14 28l21 37l22 21l21 14q5 21 32 50q4 13 26 44l14 43l15 21 q7 3 14 14q15 31 44 58l17 17q5 30 25 61l15 30l-9 55l109 9q33 0 87 -7h21q28 6 59 6t63 -6h29l28 -7q-60 -56 -108 -151q-74 -62 -129 -173q-43 -46 -78 -129l-14 -14q-13 -20 -40 -50q-26 -43 -60 -97q-65 -67 -106 -162q-58 -74 -104 -185q54 -40 137 -75 q39 -12 107 -33l85 -31q32 -23 138 -48q10 -6 29 -7q28 -16 72 -29q30 -6 71 -31l25 -2q29 -16 69 -24l122 -15l14 -7q-1 -70 -36 -165v-21q-32 -41 -43 -101q-7 -1 -15 -26q-46 9 -92 17l-37 23l-28 8l-22 18q-64 16 -164 54l-51 28q-55 10 -151 44l-14 7l-14 14l-44 15 q-31 22 -78 28l-16 14l-21 7l-94 36h-15q-35 19 -77 37l-14 14l-51 7q-7 -26 -7 -58.5t7 -70.5q-8 -33 -7 -69q0 -49 14 -103q4 -45 21 -86v-22q-70 -35 -186 -51l-21 -2l-22 5q-5 -1 -11 -1q-45 0 -114 35l25 64q15 41 30 88l-2 34l18 62q5 25 5 55q0 41 -9 91 q6 30 6.5 65.5t-6.5 78.5l8 14l-15 57q12 45 12 94q0 32 -5 65l15 78l-3 14l3 29q-8 2 3 20q-5 81 -18 209q2 12 2 24q0 24 -9 49l7 28q-6 27 -21 64q0 31 -7 72q-7 16 -21 36v11q0 33 -15 68l7 22q-10 5 -5 13z" />
<glyph unicode="l" horiz-adv-x="509" d="M67 -116q33 90 49 224l9 20l10 155v30q9 44 10 107v29q10 60 10 149v16l9 39q-1 16 -1 34q0 53 11 122v29q-1 9 -1 18q0 41 11 99l-10 263l-10 38l-9 234l-16 39q108 -19 210 -25q9 2 30 -4h29l24 4l49 11l-24 -220v-29l-10 -39v-29v-78v-136v-175v-39v-127v-48v-59 l-15 -136v-121l-5 -35l-10 -118q115 11 217 11h17q39 9 78 10l29 -5l59 10q14 -120 22 -194l-256 -44h-29l-20 -10l-77 -20h-39l-30 -9l-29 -10q-14 1 -29 -10h-39q-47 -8 -107 -29h-109q-4 37 -8 58z" />
<glyph unicode="m" horiz-adv-x="1317" d="M-237 190q60 41 101 89l30 33q20 38 47 86l3 31l17 26l5 25q38 46 50 115l28 69l17 17q5 44 40 100l10 30q36 106 66 287q58 157 58 358v7l-6 22l17 160q69 -9 149 -9q103 0 224 15l-5 -183q-14 -69 -14 -154q0 -46 4 -97l2 -25v-84v-25v-42l-7 -30q3 -76 15 -188l9 -33 v-42l25 -17q46 79 78 188q16 24 10 33l17 39l5 28l14 30l1 25l17 42l8 34l17 42l17 33l2 47l18 42q12 71 42 341q35 -6 71 -6l31 1l54 6q24 6 62.5 6t91.5 -6l-20 -506v-34v-25v-33l8 -25v-34l9 -67v-25q-5 -22 -5 -45t5 -47v-42l8 -117l8 -34q-1 -10 -1 -21q0 -43 10 -96 v-34q0 -79 16 -176l-8 -41q-1 -9 8 -17v-50q-5 -22 -5 -45t5 -48q-6 -26 -8 -67q18 -62 42 -117q-19 -2 -38 -2q-82 0 -188 27h-35q-35 35 -51 19q-3 19 -3 37q0 51 22 87l8 134v192q1 13 7 25q-4 46 -7 109v34l-7 -13l-10 33l4 21l-15 21l-20 129q-1 4 -3 4q-9 0 -41 -104 l-43 -103l-14 -30l-10 -34l-12 -26l-3 -15l-5 -34l-17 -20l-3 -35v-6q0 -35 -22 -80l-8 -31v-24q-13 -25 -22 -55q-17 -57 -18 -135q0 -12 1 -24h-92q-24 -4 -49 -4l-177 54v10q0 29 -9 65l10 54l-1 30v25l-9 25q12 13 0 34l9 25l-2 82l-7 10v42v25q1 18 1 37q0 30 -2 65 q-1 46 -7 124l-10 132q-100 -200 -183 -405l-41 -102q-28 -52 -28 -126q0 -60 19 -135h-24q-230 0 -358 112z" />
<glyph unicode="n" horiz-adv-x="1330" d="M7 -30l30 50q43 59 90 160q45 83 55 141q16 42 16 68q0 6 -1 12l10 50l40 150l10 20q1 44 20 100l30 140l10 90l20 40l21 110v30q15 57 20 131l10 30q-1 72 -30 170v30q1 10 -11 20v30q11 2 21 20q90 -48 220 -50l70 -20q3 -162 60 -306l15 -55l35 -125q16 -18 50 -105 q11 -36 40 -90l20 -120q18 -36 60 -70q15 75 20 190v160q2 12 2 23q0 28 -12 57q7 40 7 85t-7 96l-10 70q-17 90 -80 190v30l171 20h40h30h30l45 5l65 -5h35h45q27 0 20 -20l-25 -65q-73 -140 -95 -336l-30 -130v-30q-9 -30 -10 -80v-30l-10 -30v-30q0 -32 -10 -80v-30v-70 l-10 -30v-30l-30 -140l-10 -60q2 -20 2 -41q0 -58 -12 -130l-5 -50l5 -50l-30 -50h-101q-44 9 -120 10h-30q-9 77 -60 150l-20 80l-5 25l-15 46l-20 60l-10 20l-10 50q-28 45 -40 110q-17 50 -40 110l-20 50q-9 72 -50 310q-33 -204 -50 -280l-30 -160l-20 -80q1 -6 1 -12 q0 -26 -11 -58l-20 -105l-10 -46q3 -13 0 -40q-7 -43 -7 -87q0 -86 27 -173v-30l-10 -20q-62 -15 -151 -20q-78 12 -170 15z" />
<glyph unicode="o" horiz-adv-x="1001" d="M25 796q-24 105 -24 207q0 345 281 642q96 58 201 67q286 -15 506 -273q34 -78 79 -212q5 -31 6 -67q0 -72 -22 -163l-22 -111q-34 -87 -101 -201l-6 -22l-27 -34q-227 -110 -489 -110q-115 0 -237 21q-59 41 -116 149l2 7l-11 22zM301 842q17 -162 124 -162q71 0 181 70 q127 141 229 382q5 27 5 54q0 169 -189 294q-322 -177 -350 -638z" />
<glyph unicode="p" d="M158 -22l62 257l18 17l6 41l19 26l1 22q15 49 24 125l3 25l9 27q11 37 11 64q0 14 -3 25l19 51l14 63q25 89 29 213q15 60 18 159l9 36l18 44q1 49 17 115v124l-220 -3q40 79 47 214l32 1q31 -6 66.5 -6t74.5 6q14 -4 31.5 -4t39.5 4h27l26 -9q23 3 59 3h18q27 -2 58 -2 q56 0 127 7q31 -1 92 -8h45l35 -9l45 2l35 -10q67 -13 132 -45q48 -44 109 -88q28 -57 33 -124l-18 -141q-53 -66 -88 -160l-18 -9l9 7q-48 -56 -106 -131l-45 -26l-26 -19l-27 -17l-13 -16q-67 -26 -146 -81q-40 0 -80 -27l-150 -17l-27 -18q-2 -62 -26 -133 q-16 -58 -18 -141l-9 -18v-27l-9 -17v-36q-1 -13 -6 -31l-2 -31l-9 -44l-9 -142q8 -26 9 -70l-9 -36h-142h-26q-23 -2 -46 -2q-70 0 -149 20zM652 987q17 -11 36 -11q31 0 68 26q127 44 181 188q1 10 1 20q0 151 -244 176q-13 -90 -19 -171q-17 -109 -23 -228z" />
<glyph unicode="q" d="M92 994l23 82v35q38 77 93 185q54 48 71 73l28 21l7 14q21 9 64 28q81 64 206 101l93 23q724 -22 738 -551q-3 -45 -17 -148l-53 -144l-12 -35l-23 -36l-12 -35l-23 -23l-12 -35l-33 -33l-5 -6q105 -87 132 -196l-30 -23q-117 -122 -286 -164q-58 58 -141 176 q-122 -52 -242 -52q-245 0 -484 216q-42 84 -59 211l-16 33zM467 728q47 -225 260 -228q-88 75 -89 129q126 118 170 245q10 1 21 1q108 0 216 -116q78 173 78 290q0 248 -346 248q-17 0 -34 -1q-277 -169 -277 -518q0 -24 1 -50z" />
<glyph unicode="r" horiz-adv-x="1479" d="M161 -52l66 274l14 19l-4 38l9 28l3 18q1 38 10 83l9 53l14 63q27 59 40 132l9 29l9 56q33 95 48 227q15 64 19 170l9 38l19 47q1 52 19 123v132l-233 -6l-1 -6q-1 0 14 215l9 24q64 -6 116.5 -6.5t94.5 6.5q14 -5 33 -5t42 5h29l28 -10q31 4 71 9q58 -8 124 -8 q38 0 79 3q13 1 29 1q32 0 75 -5h47l38 1l37 -5l48 -5q76 -20 141 -57q71 -38 112 -99q27 -51 29 -123l1 -23q-5 -43 -10 -99q-145 -362 -509 -487l-70 -37q156 -91 316 -138q140 -71 339 -80l-38 -151q-3 -47 -19 -104l-9 -28l-10 -47v-38q-12 -2 -24 -2q-28 0 -61 11 q-47 42 -113 66l-57 38l-8 11l-124 55l-18 6q-63 29 -152 70l-19 9l-37 19l-38 29l-37 19l-48 18l-38 19q-62 -115 -62 -252v-17q-21 -91 -21 -193q0 -64 8 -133l-19 -28q-48 10 -111 10q-19 0 -40 -1h-29h-28h-66q-48 4 -104 19zM661 1025q26 -11 52 -11q45 0 86 33 q135 41 193 195q1 12 1 23q0 159 -243 185q-31 -95 -42 -208q-35 -90 -47 -217z" />
<glyph unicode="s" horiz-adv-x="1223" d="M17 103l5 49l27 64q91 -25 181 -25l361 99l51 57q2 15 2 29q0 46 -17 93q-62 88 -166 131q-317 151 -317 497q0 47 6 98q38 75 91 127q56 86 156 165l18 9l24 16q70 44 178 122l26 9l101 55q41 17 92 37q57 14 133 43q59 12 141 48q9 -1 19 9l27 -9q1 -78 5 -196l5 -70 v-33l12 7q-4 -1 -4 -10q0 -15 11 -52l17 -77l9 -36l-15 -45q-51 15 -113 45l-93 34q-76 34 -182 34q-35 0 -73 -4q-194 -49 -282 -243q-2 -262 254 -415q90 -70 190 -213q45 -46 58 -126l12 -4l-2 -117q-13 -26 -38 -89q-9 -3 -18 -18q-28 -19 -29 -26l-35 -38 q-12 -8 -12 -22q-40 -17 -63 -47l-76 -40l-59 -26l-64 -39l-201 -73l-30 -7l-25 -21l-28 -9l-18 -18l-31 -6q-50 -42 -125 -77l-18 -18q-77 158 -78 372z" />
<glyph unicode="t" horiz-adv-x="389" d="M-437 1852l291 -16h32h184h43h43h43h43h33q25 -1 54 11h140h32h33h32l76 -11h54h194h32l32 -11l54 11q16 -75 22 -194v-32q-62 -14 -128.5 -14t-137.5 14h-155h-32h-32l-33 15l-32 -5h-7q-48 0 -96 -12l-5 -149v-33l-9 -183l-2 -86q13 -15 0 -33v-43v-43l-4 -49 q-7 -48 -7 -109v-15v-183v-76v-64v-76v-64v-184q9 -93 65 -194h-140h-33h-32h-32l-76 11h-54l-32 11q36 32 43 86q-4 31 -4 67q0 73 15 170v216q11 49 11 119v43l-11 64l11 44l5 273q6 38 6 87q0 19 -1 39l11 162q8 38 8 78t-8 83l11 22q-160 16 -433 18l-91 -23 q-5 25 -11 70q12 24 12 58q0 24 -6 53z" />
<glyph unicode="u" horiz-adv-x="1479" d="M161 917q10 48 10 111q0 16 -1 32l9 117l-1 22l10 77v36l13 46q2 51 14 151l20 131q48 -10 101 -13l103 -37l72 -18l27 -9h27l18 -18h12q44 0 96 -18l-75 -123q-108 -337 -107 -565q0 -262 141 -380q54 -111 168 -119l123 -29q157 23 233 169q27 83 62 168l-11 17l8 25 l5 6l20 176l-20 45l9 27v81l9 26v207l-9 54q3 24 3 49t-3 50l-21 116q70 13 139 13q122 0 241 -40q-1 -11 -1 -22q0 -33 10 -76q-9 -46 -9 -96q0 -23 2 -48l1 -17v-26q0 -52 6 -110q-3 -21 -3 -47q0 -21 2 -47q-4 -29 -4 -69v-16q-31 -65 -31 -155v-16q-16 -38 -28 -95 q-23 -52 -35 -115l-8 -29l-10 -12l-53 -99l-9 -36l-18 -36l-30 -61q-9 -4 -42 -64q-41 -24 -72 -72l-54 -36l-18 -18l-27 -27q-15 -3 -27 -18q-55 -24 -134 -36h-63h-72q-12 -1 -25 -1q-53 0 -128 10l12 3l-67 19l-64 28l-3 -1l-66 43l-27 34l-18 18q-21 19 -49 46 q-21 46 -62 85l-15 39q-45 45 -53 126l-3 -16l-16 28q-11 36 -35 78q-28 62 -54 170q-4 25 -18 45q-21 66 -27 162z" />
<glyph unicode="v" horiz-adv-x="1571" d="M9 1185q6 13 0 26q36 23 78 63q21 8 55 24l55 41l9 2l32 21l96 54q33 -1 42 18q38 -63 46 -101q26 -51 51 -136l15 -29q16 -28 28 -66q39 -152 135 -350l34 -71q21 -55 31 -106q16 -16 19 -73l49 -117q0 -8 3 -8q12 0 74 160q21 32 30 76l17 18l16 27q21 69 56 160l25 44 l23 36q17 27 35 65l-3 18l9 11l28 51q31 71 86 152q18 40 49 101q11 18 34 34q55 -30 137 -102q28 -13 68 -53q31 -42 86 -84q-40 -110 -145 -205l-24 -43q-23 -32 -70 -94l-120 -171l-19 -16l-13 -27l-62 -94l-24 -21l-10 -30l-24 -31l-11 -20l-25 -43l-17 -43l-18 -34 l-25 -34l-67 -79q-30 -39 -70 -72q-24 -19 -62 -39q-127 66 -196 237l-33 55l-128 223l-17 17l-9 17q-2 8 -17 17l-8 26q2 13 -9 25l-14 9l-18 37q-15 28 -45 65q-9 39 -43 77l-34 43q-16 49 -45 104l-23 41l-17 26l-35 86l-8 25q-12 30 -43 60z" />
<glyph unicode="w" horiz-adv-x="2760" d="M33 1174q-7 15 -7 30q0 26 22 52l88 78q26 19 77 58q54 60 104 94l29 38q19 -32 -7 -28l73 38q32 18 66 57q10 -2 19 9q26 -32 47 -85l38 -57l19 -19l29 -66q25 -32 47 -85l19 -19l19 -38q15 -31 47 -76l-13 -4l31 -66l19 -49l33 -62l53 -72q46 -104 105 -212l34 -47 l-7 -16l11 -12l73 -170l148 311l23 29l-4 18l36 129l39 137l55 134l13 106l25 104l9 33q8 30 17 -17l-56 -75l48 132q-11 -3 -12 -3q-5 0 68 22q65 -14 171 -19l118 1q-15 -66 -15 -140q0 -20 1 -40q-1 -10 10 -19v-29l19 -19l28 -94l38 -76l57 -152l19 -28l56 -152l10 -18 l9 -29q-1 -77 105 -298q68 182 86 262l2 34l25 97l10 19q12 39 38 85l9 19l10 38l19 38l18 47l19 28q21 78 76 180l19 38l10 38l5 66q16 -1 32 -1q70 0 143 11q16 -3 35 -3q38 0 88 12h28h28h38l95 -19v-38q-166 -148 -320 -457l-59 -158q-12 -40 -38 -85l-9 -29l-29 -66 l-9 -28l-19 -29l-9 -28l-10 -28l-9 -29q-29 -34 -38 -85q-48 -68 -76 -171l-19 -28l-19 -28v-29l-19 -19l-19 -47h-293h-29h-28l-85 208l-6 39l-13 9l-19 19l-10 28l-19 38v28l-28 38l-10 38l-9 28l-10 29l-28 38l-57 161l-28 56q-77 -92 -114 -227q-35 -53 -57 -142l-9 -19 l-48 -104l-9 -28l-47 -114l-13 6l-13 -40l-12 -73q-57 4 -130 4q-29 0 -60 -1h-28h-104l-38 57l-19 66l-38 57q-36 163 -141 310q-55 112 -142 247l-31 76l-33 60q-39 8 -117 83v-5l-29 34q-120 131 -331 170z" />
<glyph unicode="x" horiz-adv-x="1737" d="M9 1335q49 73 140 172l22 11l10 22l65 75q11 3 21 22q52 -50 140 -108l11 -22q34 -20 76 -64q32 -15 64 -54l140 -108q41 -44 108 -97l43 -10q80 79 183 226q36 32 65 86l32 21l21 33l22 21l22 33l21 43l22 32l237 -97l32 -11q27 -29 75 -43q-2 -11 11 -21 q-52 -57 -118 -162q-67 -56 -130 -151l-21 -21q-33 -32 -65 -86l-21 -11l-22 -32l-97 -119l119 -86q23 -35 75 -64q3 -11 22 -22l10 -22l43 -21l22 -32l43 -22l32 -32l22 -22l32 -21l43 -33q56 -68 151 -129q-24 -44 -32 -97q-59 -68 -130 -183l-21 -32l-140 118l-22 11 q-42 48 -129 108l-32 32q-55 34 -119 97l-118 86l-97 86l-97 -107q-21 -40 -64 -76l-22 -32l-22 -32l-21 -22l-32 -32l-151 -194l-32 -43q-47 -42 -76 -97q-78 29 -161 108l-33 10l-21 22h-33l-10 32l-33 11l-32 11q83 58 151 172l43 54q71 57 129 161l32 22l33 43l75 108 l22 32l57 50l7 36q-72 44 -172 129l-22 11l-10 22q-50 44 -140 97l-22 32q-49 45 -140 97l-11 21l-21 11z" />
<glyph unicode="y" horiz-adv-x="1100" d="M-110 1606q90 0 179 45l51 23q32 19 76 34q9 -1 17 9l21 11q9 -71 39 -122q4 -54 34 -110v-26l9 -17l8 -25q-1 -9 9 -18v-25l8 -34l9 -26l8 -34l9 -25l51 -111l17 -60q3 -34 25 -68q-1 -12 9 -25q5 -23 25 -43q37 35 77 94q8 34 34 85l34 85q18 39 36 85l7 17l17 43l8 34 l17 43l17 34l17 42l17 34l17 51h102h26h145h34h110h43l-31 -51q-31 -32 -54 -85l-43 -48l-17 -20l-8 -26q-38 -32 -68 -76q-31 -20 -60 -60l-17 -25l-25 -24q-16 -26 -60 -70l-26 -32l-17 -11l-25 -42l-26 -60q-27 -17 -42 -51q-52 -74 -105 -148l-12 -22l-2 -26l-14 -170 l-10 -41q-6 -40 -6 -96q0 -45 4 -101v-51q17 -37 17 -87v-16v-25l9 -17v-34v-94q-14 2 -29 2q-37 0 -82 -10q-28 11 -68 17q-46 -15 -111 -17l-17 -9l-25 17l17 162l8 34q1 42 17 94l9 76l8 68l9 43q0 82 -9 213v34l-10 44q-16 46 -58 101q-7 9 -17 42l-15 16q5 13 -2 27 l-43 51l-25 59q-24 37 -51 103l-9 17l-17 25q-24 37 -51 102l-8 17l-17 9l-9 25l-8 17l-17 26l-51 111l-26 34z" />
<glyph unicode="z" horiz-adv-x="1251" d="M41 88q34 91 127 176l10 29l78 136q27 41 68 93l29 54l20 29l68 117q32 33 69 98l97 146l10 29q10 4 20 20l9 20l10 19l30 29l29 39l49 74l-235 -5h-29h-39h-30h-136h-127l-19 14q4 19 4 39q0 22 -5 44q-12 71 -20 201l69 -6l156 10h39q15 -1 30 10q22 -4 49 -3.5t58 3.5 l39 10h137q46 11 99 11q23 0 47 -2l80 10q-2 -3 4 -3q13 0 63 13h195h29h10h-10h10q-2 -69 -39 -156l-15 -29q-34 -47 -73 -127q-28 -41 -64 -98q-9 -13 -19 -19l-10 -30l-34 -48l-19 -20l-25 -39l-14 -39l-20 -29q-31 -34 -68 -98l-30 -39q-9 -36 -38 -78l-20 -20 q-20 -53 -68 -107l-10 -29q-34 -32 -69 -98l-14 -30l-15 -9l-29 -39l-30 -58q51 -4 105 -4.5t110 4.5h30h107h78h29h39l29 5q69 18 108 68v-112q-6 -118 -49 -264q-88 65 -228 65q-17 0 -35 -1l-69 -5h-175h-39h-30h-39l-34 5l-44 -15h-166l-44 10l-73 5z" />
<glyph unicode="{" horiz-adv-x="983" d="M283 559q245 -2 309.5 44t64.5 119q0 53 -23 148t-23 168q8 241 100.5 338t307.5 62l-32 -51q-117 -28 -155.5 -91.5t-46.5 -131.5q-24 -67 10.5 -151.5t10.5 -176.5q0 -101 -74 -196t-221 -147q144 -53 219.5 -150t75.5 -198q0 -68 -22.5 -164.5t-22.5 -155.5 q40 -84 74.5 -143.5t151.5 -88.5v-35q-167 -34 -291.5 58.5t-84.5 326.5q0 72 7 155.5t15 168.5q24 64 -69 110.5t-216 -20.5z" />
<glyph unicode="|" horiz-adv-x="410" d="M161 1527l269 -16l-8 -1945l-245 89z" />
<glyph unicode="}" horiz-adv-x="983" d="M177 1430q191 -30 295.5 -142.5t104.5 -250.5q0 -72 -3 -142.5t13 -156.5q25 -72 45 -142.5t248 -3.5l-32 -219q-212 18 -264.5 -12t-52.5 -102q0 -53 23 -148.5t23 -167.5q0 -136 -104.5 -249t-271.5 -136v35q117 29 159.5 84t66.5 148q0 59 -27 155.5t-51 163.5 q24 183 102.5 237.5t225.5 106.5q-144 53 -220 150t-76 198q0 68 23 164.5t23 155.5q0 76 -54.5 115t-171.5 116z" />
<glyph unicode="~" horiz-adv-x="1363" d="M26 672q-32 280 287 542q77 25 173 15q59 -23 132 -74l24 -23l35 -44q34 -56 106 -120q18 5 23 -9q263 -103 429 229q58 111 129 95q-36 -70 -65 -139l-24 -94l-11 -35l-20 -47q-47 -107 -192 -259l-35 -23q-12 -3 -23 -24q-308 -85 -466 230q-155 57 -260 -74 q-94 -79 -141 -194q-32 -40 -40 -99z" />
<glyph unicode="&#xa1;" horiz-adv-x="714" d="M17 1468q3 175 199 243q251 37 325 -198q-62 -224 -325 -198q-119 31 -199 153zM78 137l14 36v80q17 90 14 160l8 71l7 71q0 72 7 169l7 27v71l7 18l-7 71v187q96 30 164 26l100 9l14 -62l7 -53l7 -54l7 -53l15 -53l7 -72l7 -53l15 -45l14 -106l14 -89l21 -124l7 -27 l8 -27v-27l14 -97q14 -51 14 -89q-70 -17 -121 -9h-121h-22h-21h-21h-57q-67 4 -115 -9z" />
<glyph unicode="&#xa2;" horiz-adv-x="1245" d="M66 614l1 -34l8 -14l1 -44l10 -45l59 -187q200 -391 609 -275q257 64 463 246l-9 40q-42 143 -40 179l-30 105l-19 -9l-198 -169q-361 -233 -541 -45q-116 287 38 512q280 414 739 456l64 -11l-5 30q-28 110 -8 269q-53 -15 -99 -19q-893 -169 -1043 -985zM515 -124 l248 1818l-7 -14l219 7l-240 -1797zM515 -124l248 1818l-7 -14l219 7l-240 -1797z" />
<glyph unicode="&#xab;" horiz-adv-x="841" d="M55 416l2 18q2 6 2 17.5v23.5q0 17 8.5 31t55.5 55t105.5 125t89 133t44.5 49l19 15l80 30q-6 -16 -2 -45q2 -24 8 -45.5t-25.5 -78t-75.5 -106.5t-74 -92t-39 -58.5t-9 -24.5q0 -14 41 -72.5t59 -95.5q39 -64 59.5 -115t24.5 -67q8 -31 4 -50l-18 -14l-17 4 q-24 13 -52 42.5t-48.5 56t-91 103.5t-110.5 108.5t-40 52.5zM379 416l2 18q2 6 2 17.5v23.5q0 17 8 31t55.5 55t105.5 125t94 125t40 57l21 9l41 24q16 -35 0 -84q-9 -22 -11 -26.5t-21.5 -53.5t-45 -99t-55 -92t-39 -58.5t-9.5 -24.5q0 -14 41 -72.5t60 -95.5 q39 -64 66.5 -113t27.5 -69q0 -23 -19 -13l-16 2l-22 7q-23 4 -43.5 10t-41 32.5t-91 103.5t-110.5 108.5t-40 52.5z" />
<glyph unicode="&#xad;" horiz-adv-x="682" d="M83 535l577 19l-1 -194l-554 8z" />
<glyph unicode="&#xbb;" horiz-adv-x="841" d="M82 901l18 -4l58 -29q12 0 32.5 -18.5t41 -45t91 -103t110.5 -108.5t40 -52l-2 -19q-2 -6 -2 -17v-24q0 -16 -8.5 -30.5t-55.5 -55.5t-105.5 -125t-84 -125t-49.5 -57l-17 -8l-49 -14q-2 24 -2 45q0 12 10.5 37.5t28.5 72.5t49 95.5t55.5 92.5t33.5 60t9 25 q0 14 -40.5 72.5t-59.5 95.5q-39 63 -66.5 112t-27.5 70q0 22 -8 57zM409 893l2 14l23 -8q59 -31 79.5 -49.5t41 -45t91.5 -103t110.5 -108.5t39.5 -52l-2 -19q-2 -6 -2 -17v-24q0 -16 -8 -30.5t-55 -55.5t-105.5 -125t-89 -120.5t-49.5 -45.5l-20 -18l-51 -2q8 6 8 27 q0 12 10 37.5t28.5 72.5t44 97.5t55.5 92.5t39 58t9 25q0 14 -41 72.5t-59 95.5q-39 63 -66.5 112t-27.5 70q0 22 -5 49z" />
<glyph unicode="&#xbf;" horiz-adv-x="1139" d="M100 411q-63 333 329 500l5 111v27l-5 28v56l-4 3q3 12 -8 17q134 24 312 -17q-27 -109 -10 -243l19 -92l23 -95v-24l9 -16q-356 112 -410 -64q-50 -172 139 -265q250 -48 353 209q39 -28 74 -80q19 -20 57 -48l8 -23l17 -16l16 -16l33 -24q-155 -200 -439 -282 q-98 -22 -258 11l-25 14q-21 21 -65 41q-54 39 -66 53q-4 7 11 -8l-27 39l-27 39l-27 44zM388 1568q25 100 154 130q169 12 210 -130q29 -200 -169 -238q-209 14 -195 238z" />
<glyph unicode="&#xc0;" d="M-3 112l20 -40q62 -3 111 -20l20 -11q107 -62 181 -90l30 30q8 197 91 342l30 10h41h30h40h30l141 -5l20 5l146 20q19 -57 10 -110q16 -48 5 -81q32 -164 0 -292q6 -8 31 -20h35q32 -4 65 0l197 30l45 35l10 26l-30 50l-10 81l-42 161l-7 53l-11 43v48h16q5 -84 -12 -53 l17 -1l-3 -5l-52 175l14 10l-16 105l-9 57q-21 80 -15 142q-18 59 -26 208l-15 92q-14 88 -12 191q-29 120 2 234q-34 20 -61 20q-25 -8 -40 0h-40l-41 -5l-30 5q-116 -4 -201 -5q-53 5 -91 5l-70 5l-81 -5q-69 -325 55 -267l81 15l-35 -91l-40 -70l-21 -50l-20 -51l-15 -45 l-25 -45l-10 -31l-20 -20l-10 -20l-10 -20q-54 -114 -101 -181l-30 -61q-25 -59 -61 -100l-60 -131l-20 -30zM575 615l20 50l15 20l25 50l21 21l10 30l30 50q24 56 80 161q22 69 76 181l10 -40l20 -85q23 -72 25 -121q25 -146 15 -292l-25 -5l-55 -5q-80 -28 -146 -26 q-57 -6 -121 11zM686 1781l114 12l57 -177l-22 -16z" />
<glyph unicode="&#xc1;" d="M-3 112l20 -40q62 -3 111 -20l20 -11q107 -62 181 -90l30 30q8 197 91 342l30 10h41h30h40h30l141 -5l20 5l146 20q19 -57 10 -110q16 -48 5 -81q32 -164 0 -292q6 -8 31 -20h35q32 -4 65 0l197 30l45 35l10 26l-30 50l-10 81l-42 161l-7 53l-11 43v48h16q5 -84 -12 -53 l17 -1l-3 -5l-52 175l14 10l-16 105l-9 57q-21 80 -15 142q-18 59 -26 208l-15 92q-14 88 -12 191q-29 120 2 234q-34 20 -61 20q-25 -8 -40 0h-40l-41 -5l-30 5q-116 -4 -201 -5q-53 5 -91 5l-70 5l-81 -5q-69 -325 55 -267l81 15l-35 -91l-40 -70l-21 -50l-20 -51l-15 -45 l-25 -45l-10 -31l-20 -20l-10 -20l-10 -20q-54 -114 -101 -181l-30 -61q-25 -59 -61 -100l-60 -131l-20 -30zM575 615l20 50l15 20l25 50l21 21l10 30l30 50q24 56 80 161q22 69 76 181l10 -40l20 -85q23 -72 25 -121q25 -146 15 -292l-25 -5l-55 -5q-80 -28 -146 -26 q-57 -6 -121 11zM805 1570l65 215h140l-184 -215h-21z" />
<glyph unicode="&#xc2;" d="M-3 112l20 -40q62 -3 111 -20l20 -11q107 -62 181 -90l30 30q8 197 91 342l30 10h41h30h40h30l141 -5l20 5l146 20q19 -57 10 -110q16 -48 5 -81q32 -164 0 -292q6 -8 31 -20h35q32 -4 65 0l197 30l45 35l10 26l-30 50l-10 81l-42 161l-7 53l-11 43v48h16q5 -84 -12 -53 l17 -1l-3 -5l-52 175l14 10l-16 105l-9 57q-21 80 -15 142q-18 59 -26 208l-15 92q-14 88 -12 191q-29 120 2 234q-34 20 -61 20q-25 -8 -40 0h-40l-41 -5l-30 5q-116 -4 -201 -5q-53 5 -91 5l-70 5l-81 -5q-69 -325 55 -267l81 15l-35 -91l-40 -70l-21 -50l-20 -51l-15 -45 l-25 -45l-10 -31l-20 -20l-10 -20l-10 -20q-54 -114 -101 -181l-30 -61q-25 -59 -61 -100l-60 -131l-20 -30zM575 615l20 50l15 20l25 50l21 21l10 30l30 50q24 56 80 161q22 69 76 181l10 -40l20 -85q23 -72 25 -121q25 -146 15 -292l-25 -5l-55 -5q-80 -28 -146 -26 q-57 -6 -121 11zM734 1603l108 161l16 -2l103 -166l-41 -4l-72 132l-87 -147z" />
<glyph unicode="&#xc3;" d="M-3 112l121 242l20 30l60 131q36 41 61 100l30 61q47 67 101 181l10 20l10 20l20 20l10 31l25 45l15 45l20 51l21 50l40 70l35 91l-81 -15q-124 -58 -55 267l81 5l70 -5q38 0 91 -5q85 1 201 5l30 -5l41 5h40q15 -8 40 0q27 0 61 -20q-31 -114 -2 -234q-2 -103 12 -191 l15 -92q8 -149 26 -208q-6 -62 15 -142l9 -57l16 -105l-14 -10l52 -175l3 5l-17 1q17 -31 12 53h-16v-48l11 -43l7 -53l42 -161l10 -81l30 -50l-10 -26l-45 -35l-197 -30q-33 -4 -65 0h-35q-25 12 -31 20q32 128 0 292q11 33 -5 81q9 53 -10 110l-146 -20l-20 -5l-141 5h-30 h-40h-30h-41l-30 -10q-83 -145 -91 -342l-30 -30q-74 28 -181 90l-20 11q-49 17 -111 20zM575 615q64 -17 121 -11q66 -2 146 26l55 5l25 5q10 146 -15 292q-2 49 -25 121l-20 85l-10 40q-54 -112 -76 -181q-56 -105 -80 -161l-30 -50l-10 -30l-21 -21l-25 -50l-15 -20z M671 1610q-9 76 78 148q21 7 47 3q16 -6 36 -20l6 -6l10 -11q10 -16 29 -34q5 2 6 -1q71 -29 117 62q16 30 35 25q-10 -18 -18 -38l-6 -25l-3 -10l-6 -13q-13 -29 -52 -70l-10 -6q-3 -1 -6 -7q-83 -23 -127 63q-42 16 -70 -20q-26 -22 -39 -53q-9 -11 -11 -27z" />
<glyph unicode="&#xc4;" d="M-3 112l20 -40q62 -3 111 -20l20 -11q107 -62 181 -90l30 30q8 197 91 342l30 10h41h30h40h30l141 -5l20 5l146 20q19 -57 10 -110q16 -48 5 -81q32 -164 0 -292q6 -8 31 -20h35q32 -4 65 0l197 30l45 35l10 26l-30 50l-10 81l-42 161l-7 53l-11 43v48h16q5 -84 -12 -53 l17 -1l-3 -5l-52 175l14 10l-16 105l-9 57q-21 80 -15 142q-18 59 -26 208l-15 92q-14 88 -12 191q-29 120 2 234q-34 20 -61 20q-25 -8 -40 0h-40l-41 -5l-30 5q-116 -4 -201 -5q-53 5 -91 5l-70 5l-81 -5q-69 -325 55 -267l81 15l-35 -91l-40 -70l-21 -50l-20 -51l-15 -45 l-25 -45l-10 -31l-20 -20l-10 -20l-10 -20q-54 -114 -101 -181l-30 -61q-25 -59 -61 -100l-60 -131l-20 -30zM572 1700q0 43 31.5 75t73.5 32q41 0 69.5 -30.5t28.5 -76.5q0 -45 -30 -76.5t-72 -31.5q-40 0 -70.5 31.5t-30.5 76.5zM575 615l20 50l15 20l25 50l21 21l10 30 l30 50q24 56 80 161q22 69 76 181l10 -40l20 -85q23 -72 25 -121q25 -146 15 -292l-25 -5l-55 -5q-80 -28 -146 -26q-57 -6 -121 11zM876 1700q0 43 31.5 75t73.5 32q41 0 69.5 -30.5t28.5 -76.5q0 -45 -30 -76.5t-72 -31.5q-40 0 -70.5 31.5t-30.5 76.5z" />
<glyph unicode="&#xc5;" d="M-3 112l20 -40q62 -3 111 -20l20 -11q107 -62 181 -90l30 30q8 197 91 342l30 10h41h30h40h30l141 -5l20 5l146 20q19 -57 10 -110q16 -48 5 -81q32 -164 0 -292q6 -8 31 -20h35q32 -4 65 0l197 30l45 35l10 26l-30 50l-10 81l-42 161l-7 53l-11 43v48h16q5 -84 -12 -53 l17 -1l-3 -5l-52 175l14 10l-16 105l-9 57q-21 80 -15 142q-18 59 -26 208l-15 92q-14 88 -12 191q-29 120 2 234q-34 20 -61 20q-25 -8 -40 0h-40l-41 -5l-30 5q-116 -4 -201 -5q-53 5 -91 5l-70 5l-81 -5q-69 -325 55 -267l81 15l-35 -91l-40 -70l-21 -50l-20 -51l-15 -45 l-25 -45l-10 -31l-20 -20l-10 -20l-10 -20q-54 -114 -101 -181l-30 -61q-25 -59 -61 -100l-60 -131l-20 -30zM575 615l20 50l15 20l25 50l21 21l10 30l30 50q24 56 80 161q22 69 76 181l10 -40l20 -85q23 -72 25 -121q25 -146 15 -292l-25 -5l-55 -5q-80 -28 -146 -26 q-57 -6 -121 11zM747 1655q0 45 31.5 77t76.5 32q46 0 77.5 -32t31.5 -77t-32 -76.5t-77 -31.5q-44 0 -76 31.5t-32 76.5zM803 1657q0 -26 17.5 -43.5t42.5 -17.5t43 17.5t18 43.5q0 25 -18 42.5t-43 17.5t-42.5 -17.5t-17.5 -42.5z" />
<glyph unicode="&#xc6;" d="M-3 112l20 -40q62 -3 111 -20l20 -11q107 -62 181 -90l30 30q8 197 91 342l30 10h41h30h40h30l141 -5l20 5l146 20q19 -57 10 -110q16 -48 5 -81q32 -164 0 -292q6 -8 31 -20h35q32 -4 65 0l197 30l45 35l10 26l-30 50l-10 81l-42 161l-7 53l-11 43v48h16q5 -84 -12 -53 l17 -1l-3 -5l-52 175l14 10l-16 105l-9 57q-21 80 -15 142q-18 59 -26 208l-15 92q-14 88 -12 191q-29 120 2 234q-34 20 -61 20q-25 -8 -40 0h-40l-41 -5l-30 5q-116 -4 -201 -5q-53 5 -91 5l-70 5l-81 -5q-69 -325 55 -267l81 15l-35 -91l-40 -70l-21 -50l-20 -51l-15 -45 l-25 -45l-10 -31l-20 -20l-10 -20l-10 -20q-54 -114 -101 -181l-30 -61q-25 -59 -61 -100l-60 -131l-20 -30zM575 615l20 50l15 20l25 50l21 21l10 30l30 50q24 56 80 161q22 69 76 181l10 -40l20 -85q23 -72 25 -121q25 -146 15 -292l-25 -5l-55 -5q-80 -28 -146 -26 q-57 -6 -121 11zM1099 1369l15 164l490 59l15 -134zM1151 902l282 74l30 -186l-290 -51zM1255 212l460 111l45 -186l-461 -96z" />
<glyph unicode="&#xc7;" horiz-adv-x="1245" d="M66 614q150 816 1043 985q46 4 99 19q-20 -159 8 -269l5 -30l-64 11q-459 -42 -739 -456q-154 -225 -38 -512q180 -188 541 45l198 169l19 9l30 -105q-2 -36 40 -179l9 -40q-206 -182 -463 -246q-409 -116 -609 275l-59 187l-10 45l-1 44l-8 14zM380 -361q28 -4 48 -4 q51 0 86 33.5t35 76.5q0 30 -23 52t-57 22q-10 0 -26 -2l111 178h60l-50 -79q63 -16 94 -54t31 -92q0 -72 -60 -126.5t-155 -54.5q-37 0 -94 7v43z" />
<glyph unicode="&#xc8;" horiz-adv-x="1027" d="M66 10q16 52 20 130q-2 60 20 140l-5 30l15 110l10 49v50v30l10 40l10 100l10 50v50l10 170q19 66 20 160l10 50l10 70l10 129v60l20 80l-10 60l-10 50q71 16 190 20l20 10q263 -11 509 120l20 15l-20 -15l30 35q51 -188 -20 -365q-15 39 -60 35l5 5l-135 -30l-55 -20 l-45 -15l-25 -15l-35 -10l-46 13q1 -79 -51 -456q108 6 407 104q31 -48 40 -110v-70q2 -43 -10 -120q-46 2 -100 5q-55 6 -125 5q-10 1 -15 0q-34 3 -30 0h-45l-136 -2l-6 -70l-9 -68q-18 -48 -18 -120q5 -3 -5 -20l-10 -30l-10 -79l-10 -40l-10 -50q87 2 149 30 q139 4 280 90l20 10h40l-5 -60l5 -90v-175l-130 -5q-63 -9 -160 -15q-62 -21 -129 -15h-35l-45 -10h-30h-30q-62 -8 -125 -5q-70 -21 -145 -25zM414 1777l73 8l36 -113l-14 -10z" />
<glyph unicode="&#xc9;" horiz-adv-x="1027" d="M66 10q16 52 20 130q-2 60 20 140l-5 30l15 110l10 49v50v30l10 40l10 100l10 50v50l10 170q19 66 20 160l10 50l10 70l10 129v60l20 80l-10 60l-10 50q71 16 190 20l20 10q263 -11 509 120l20 15l-20 -15l30 35q51 -188 -20 -365q-15 39 -60 35l5 5l-135 -30l-55 -20 l-45 -15l-25 -15l-35 -10l-46 13q1 -79 -51 -456q108 6 407 104q31 -48 40 -110v-70q2 -43 -10 -120q-46 2 -100 5q-55 6 -125 5q-10 1 -15 0q-34 3 -30 0h-45l-136 -2l-6 -70l-9 -68q-18 -48 -18 -120q5 -3 -5 -20l-10 -30l-10 -79l-10 -40l-10 -50q87 2 149 30 q139 4 280 90l20 10h40l-5 -60l5 -90v-175l-130 -5q-63 -9 -160 -15q-62 -21 -129 -15h-35l-45 -10h-30h-30q-62 -8 -125 -5q-70 -21 -145 -25zM509 1655l44 144h93l-123 -144h-14z" />
<glyph unicode="&#xca;" horiz-adv-x="1027" d="M66 10q75 4 145 25q63 -3 125 5h30h30l45 10h35q67 -6 129 15q97 6 160 15l130 5v175l-5 90l5 60h-40l-20 -10q-141 -86 -280 -90q-62 -28 -149 -30l10 50l10 40l10 79l10 30q10 17 5 20q0 72 18 120l9 68l6 70l136 2h45q-4 3 30 0q5 1 15 0q70 1 125 -5q54 -3 100 -5 q12 77 10 120v70q-9 62 -40 110q-299 -98 -407 -104q52 377 51 456l46 -13l35 10l25 15l45 15l55 20l135 30l-5 -5q45 4 60 -35q71 177 20 365l-30 -35l20 15l-20 -15q-246 -131 -509 -120l-20 -10q-119 -4 -190 -20l10 -50l10 -60l-20 -80v-60l-10 -129l-10 -70l-10 -50 q-1 -94 -20 -160l-10 -170v-50l-10 -50l-10 -100l-10 -40v-30v-50l-10 -49l-15 -110l5 -30q-22 -80 -20 -140q-4 -78 -20 -130zM469 1689l81 121l12 -2l77 -123l-31 -4l-54 99l-65 -110z" />
<glyph unicode="&#xcb;" horiz-adv-x="1027" d="M66 10q16 52 20 130q-2 60 20 140l-5 30l15 110l10 49v50v30l10 40l10 100l10 50v50l10 170q19 66 20 160l10 50l10 70l10 129v60l20 80l-10 60l-10 50q71 16 190 20l20 10q263 -11 509 120l20 15l-20 -15l30 35q51 -188 -20 -365q-15 39 -60 35l5 5l-135 -30l-55 -20 l-45 -15l-25 -15l-35 -10l-46 13q1 -79 -51 -456q108 6 407 104q31 -48 40 -110v-70q2 -43 -10 -120q-46 2 -100 5q-55 6 -125 5q-10 1 -15 0q-34 3 -30 0h-45l-136 -2l-6 -70l-9 -68q-18 -48 -18 -120q5 -3 -5 -20l-10 -30l-10 -79l-10 -40l-10 -50q87 2 149 30 q139 4 280 90l20 10h40l-5 -60l5 -90v-175l-130 -5q-63 -9 -160 -15q-62 -21 -129 -15h-35l-45 -10h-30h-30q-62 -8 -125 -5q-70 -21 -145 -25zM371 1730q0 17 12.5 29.5t29.5 12.5q16 0 27 -12t11 -30t-11.5 -30.5t-28.5 -12.5q-16 0 -28 12.5t-12 30.5zM527 1738 q0 17 12.5 29.5t29.5 12.5q16 0 27 -12t11 -30t-11.5 -30.5t-28.5 -12.5q-16 0 -28 12.5t-12 30.5z" />
<glyph unicode="&#xcc;" horiz-adv-x="388" d="M4 214l52 -14h26l25 -11q118 -12 207 17q73 6 121 26q-39 34 -50 74l-5 36v182l-3 -8v36q-5 83 6 153v69q4 101 1 183l34 188q33 74 -9 72q-44 5 -64 12l-22 -7q-120 6 -198 26q-18 -23 -6 -33l23 -45q68 -454 -52 -835zM98 1577l181 19l90 -281l-36 -25z" />
<glyph unicode="&#xcd;" horiz-adv-x="448" d="M4 214l52 -14h26l25 -11q118 -12 207 17q73 6 121 26q-39 34 -50 74l-5 36v182l-3 -8v36q-5 83 6 153v69q4 101 1 183l34 188q33 74 -9 72q-44 5 -64 12l-22 -7q-120 6 -198 26q-18 -23 -6 -33l23 -45q68 -454 -52 -835zM237 1287l84 275h178l-235 -275h-27z" />
<glyph unicode="&#xce;" horiz-adv-x="381" d="M4 214l52 -14h26l25 -11q118 -12 207 17q73 6 121 26q-39 34 -50 74l-5 36v182l-3 -8v36q-5 83 6 153v69q4 101 1 183l34 188q33 74 -9 72q-44 5 -64 12l-22 -7q-120 6 -198 26q-18 -23 -6 -33l23 -45q68 -454 -52 -835zM153 1375l127 191l19 -3l122 -195l-48 -6l-85 156 l-104 -173z" />
<glyph unicode="&#xcf;" horiz-adv-x="381" d="M4 214l52 -14h26l25 -11q118 -12 207 17q73 6 121 26q-39 34 -50 74l-5 36v182l-3 -8v36q-5 83 6 153v69q4 101 1 183l34 188q33 74 -9 72q-44 5 -64 12l-22 -7q-120 6 -198 26q-18 -23 -6 -33l23 -45q68 -454 -52 -835zM121 1407q0 30 22 52.5t51 22.5t48.5 -21 t19.5 -53t-20.5 -54t-50.5 -22q-28 0 -49 22t-21 53zM299 1400q0 30 22 52.5t51 22.5t48.5 -21t19.5 -53t-20.5 -54t-50.5 -22q-28 0 -49 22t-21 53z" />
<glyph unicode="&#xd0;" horiz-adv-x="1397" d="M19 1441l28 151q8 28 10 76q7 47 18 66q64 -26 171 -38l28 -9l29 -9h28l29 -10l75 -19q41 -4 95 -19l47 -10l37 -9l39 -19l47 -9q48 -14 113 -47l38 -10l63 -33q78 -31 164 -90q19 -30 56 -47l29 -19q28 -28 57 -76l22 -15l110 -193l10 -28l10 -28l18 -19l11 -61v-46 l-1 -42q-121 -594 -795 -769l-53 -14q-37 -7 -99 -23l-16 -11q-55 -6 -124 -8l-19 56q7 44 0 114l19 161v170q11 47 9 103v209l9 47l3 32l-3 53v57q-15 65 -9 171l2 37l-2 47l-8 58l-11 112q-101 12 -237 -19h-28q-4 17 -19 29zM120 890l804 45l7 -150l-804 -52zM120 890 l804 45l7 -150l-804 -52zM527 1117l10 -21v-79v-29l-9 -26l9 -64v-30v-29l-3 -88q-2 -66 7 -147q-13 -80 -4 -192v-70q188 1 377 120q296 176 198 496q-92 325 -565 446q-27 -96 -10 -218z" />
<glyph unicode="&#xd1;" horiz-adv-x="1330" d="M7 -30l30 50q43 59 90 160q45 83 55 141q20 53 15 80l10 50l40 150l10 20q1 44 20 100l30 140l10 90l20 40l21 110v30q15 57 20 131l10 30q-1 72 -30 170v30q1 10 -11 20v30q11 2 21 20q90 -48 220 -50l70 -20q3 -162 60 -306l15 -55l35 -125q16 -18 50 -105 q11 -36 40 -90l20 -120q18 -36 60 -70q15 75 20 190v160q7 40 -10 80q14 79 0 181l-10 70q-17 90 -80 190v30l171 20h40h30h30l45 5l65 -5h35h45q27 0 20 -20l-25 -65q-73 -140 -95 -336l-30 -130v-30q-9 -30 -10 -80v-30l-10 -30v-30q0 -32 -10 -80v-30v-70l-10 -30v-30 l-30 -140l-10 -60q6 -72 -10 -171l-5 -50l5 -50l-30 -50h-101q-44 9 -120 10h-30q-9 77 -60 150l-20 80l-5 25l-15 46l-20 60l-10 20l-10 50q-28 45 -40 110q-17 50 -40 110l-20 50q-9 72 -50 310q-33 -204 -50 -280l-30 -160l-20 -80q3 -31 -10 -70l-20 -105l-10 -46 q3 -13 0 -40q-21 -128 20 -260v-30l-10 -20q-62 -15 -151 -20q-78 12 -170 15zM618 1577q-11 98 101 190q27 9 60 5q21 -8 47 -26l8 -8l13 -15q12 -20 37 -43q6 2 8 -2q92 -37 151 80q20 39 45 33q-13 -24 -23 -49l-8 -33l-4 -12l-7 -17q-17 -37 -68 -90l-12 -8q-4 -2 -8 -9 q-108 -30 -164 81q-54 20 -91 -26q-33 -28 -50 -68q-11 -14 -14 -35z" />
<glyph unicode="&#xd2;" horiz-adv-x="1147" d="M82 796l20 -78l11 -22l-2 -7q57 -108 116 -149q399 -70 726 89l27 34l6 22q67 114 101 201l22 111q32 137 16 230q-45 134 -79 212q-220 258 -506 273q-105 -9 -201 -67q-364 -385 -257 -849zM358 842q28 461 350 638q218 -145 184 -348q-102 -241 -229 -382 q-277 -177 -305 92zM602 1803l58 6l28 -89l-11 -8z" />
<glyph unicode="&#xd3;" horiz-adv-x="1147" d="M82 796l20 -78l11 -22l-2 -7q57 -108 116 -149q399 -70 726 89l27 34l6 22q67 114 101 201l22 111q32 137 16 230q-45 134 -79 212q-220 258 -506 273q-105 -9 -201 -67q-364 -385 -257 -849zM358 842q28 461 350 638q218 -145 184 -348q-102 -241 -229 -382 q-277 -177 -305 92zM586 1732l24 79h51l-67 -79h-8z" />
<glyph unicode="&#xd4;" horiz-adv-x="1147" d="M82 796l20 -78l11 -22l-2 -7q57 -108 116 -149q399 -70 726 89l27 34l6 22q67 114 101 201l22 111q32 137 16 230q-45 134 -79 212q-220 258 -506 273q-105 -9 -201 -67q-364 -385 -257 -849zM358 842q28 461 350 638q218 -145 184 -348q-102 -241 -229 -382 q-277 -177 -305 92zM641 1719l64 95l9 -1l61 -98l-24 -2l-43 77l-51 -86z" />
<glyph unicode="&#xd5;" horiz-adv-x="1147" d="M82 796q-107 464 257 849q96 58 201 67q286 -15 506 -273q34 -78 79 -212q16 -93 -16 -230l-22 -111q-34 -87 -101 -201l-6 -22l-27 -34q-327 -159 -726 -89q-59 41 -116 149l2 7l-11 22zM358 842q28 -269 305 -92q127 141 229 382q34 203 -184 348q-322 -177 -350 -638z M466 1727q-4 39 40 75q11 4 24 2q8 -3 19 -10l3 -3l5 -6q5 -8 15 -17q2 0 3 -1q37 -15 60 32q8 15 18 13q-5 -10 -9 -20l-3 -13l-2 -5l-3 -6q-6 -15 -27 -36l-5 -3q-1 -1 -3 -4q-43 -12 -65 32q-21 8 -36 -10q-13 -11 -20 -27q-4 -6 -6 -14z" />
<glyph unicode="&#xd6;" horiz-adv-x="1147" d="M82 796l20 -78l11 -22l-2 -7q57 -108 116 -149q399 -70 726 89l27 34l6 22q67 114 101 201l22 111q32 137 16 230q-45 134 -79 212q-220 258 -506 273q-105 -9 -201 -67q-364 -385 -257 -849zM358 842q28 461 350 638q218 -145 184 -348q-102 -241 -229 -382 q-277 -177 -305 92zM492 1769q0 17 12.5 29.5t29.5 12.5q16 0 27 -12t11 -30t-11.5 -30.5t-28.5 -12.5q-16 0 -28 12.5t-12 30.5zM648 1764q0 17 12.5 29.5t29.5 12.5q16 0 27 -12t11 -30t-11.5 -30.5t-28.5 -12.5q-16 0 -28 12.5t-12 30.5z" />
<glyph unicode="&#xd8;" horiz-adv-x="1147" d="M82 796q-107 464 257 849q96 58 201 67q286 -15 506 -273q34 -78 79 -212q16 -93 -16 -230l-22 -111q-34 -87 -101 -201l-6 -22l-27 -34q-327 -159 -726 -89q-59 41 -116 149l2 7l-11 22zM277 413l555 1314v11l151 -26l-535 -1387zM358 842q28 -269 305 -92 q127 141 229 382q34 203 -184 348q-322 -177 -350 -638z" />
<glyph unicode="&#xd9;" horiz-adv-x="1479" d="M161 917q6 -96 27 -162q14 -20 18 -45q26 -108 54 -170q24 -42 35 -78l16 -28l3 16q8 -81 53 -126l15 -39q41 -39 62 -85q28 -27 49 -46l18 -18l27 -34l66 -43l3 1l64 -28l67 -19l-12 -3q94 -12 153 -9h72h63q79 12 134 36q12 15 27 18l27 27l18 18l54 36q31 48 72 72 q33 60 42 64l30 61l18 36l9 36l53 99l10 12l8 29q12 63 35 115q12 57 28 95q-3 100 31 171q-1 50 4 85q-4 57 1 94q-8 72 -6 136l-1 17q-6 77 7 144q-14 58 -9 98q-186 62 -380 27l21 -116q6 -51 0 -99l9 -54v-207l-9 -26v-81l-9 -27l20 -45l-20 -176l-5 -6l-8 -25l11 -17 q-35 -85 -62 -168q-76 -146 -233 -169l-123 29q-114 8 -168 119q-265 221 -34 945l75 123q-59 21 -108 18l-18 18h-27l-27 9l-72 18l-103 37q-53 3 -101 13l-20 -131q-12 -100 -14 -151l-13 -46v-36l-10 -77l1 -22l-9 -117q3 -83 -9 -143zM789 1791l181 19l90 -281l-36 -25z " />
<glyph unicode="&#xda;" horiz-adv-x="1479" d="M161 917q6 -96 27 -162q14 -20 18 -45q26 -108 54 -170q24 -42 35 -78l16 -28l3 16q8 -81 53 -126l15 -39q41 -39 62 -85q28 -27 49 -46l18 -18l27 -34l66 -43l3 1l64 -28l67 -19l-12 -3q94 -12 153 -9h72h63q79 12 134 36q12 15 27 18l27 27l18 18l54 36q31 48 72 72 q33 60 42 64l30 61l18 36l9 36l53 99l10 12l8 29q12 63 35 115q12 57 28 95q-3 100 31 171q-1 50 4 85q-4 57 1 94q-8 72 -6 136l-1 17q-6 77 7 144q-14 58 -9 98q-186 62 -380 27l21 -116q6 -51 0 -99l9 -54v-207l-9 -26v-81l-9 -27l20 -45l-20 -176l-5 -6l-8 -25l11 -17 q-35 -85 -62 -168q-76 -146 -233 -169l-123 29q-114 8 -168 119q-265 221 -34 945l75 123q-59 21 -108 18l-18 18h-27l-27 9l-72 18l-103 37q-53 3 -101 13l-20 -131q-12 -100 -14 -151l-13 -46v-36l-10 -77l1 -22l-9 -117q3 -83 -9 -143zM904 1536l78 256h166l-219 -256 h-25z" />
<glyph unicode="&#xdb;" horiz-adv-x="1479" d="M161 917q6 -96 27 -162q14 -20 18 -45q26 -108 54 -170q24 -42 35 -78l16 -28l3 16q8 -81 53 -126l15 -39q41 -39 62 -85q28 -27 49 -46l18 -18l27 -34l66 -43l3 1l64 -28l67 -19l-12 -3q94 -12 153 -9h72h63q79 12 134 36q12 15 27 18l27 27l18 18l54 36q31 48 72 72 q33 60 42 64l30 61l18 36l9 36l53 99l10 12l8 29q12 63 35 115q12 57 28 95q-3 100 31 171q-1 50 4 85q-4 57 1 94q-8 72 -6 136l-1 17q-6 77 7 144q-14 58 -9 98q-186 62 -380 27l21 -116q6 -51 0 -99l9 -54v-207l-9 -26v-81l-9 -27l20 -45l-20 -176l-5 -6l-8 -25l11 -17 q-35 -85 -62 -168q-76 -146 -233 -169l-123 29q-114 8 -168 119q-265 221 -34 945l75 123q-59 21 -108 18l-18 18h-27l-27 9l-72 18l-103 37q-53 3 -101 13l-20 -131q-12 -100 -14 -151l-13 -46v-36l-10 -77l1 -22l-9 -117q3 -83 -9 -143zM808 1568l162 241l24 -3l154 -248 l-61 -7l-108 197l-131 -219z" />
<glyph unicode="&#xdc;" horiz-adv-x="1479" d="M161 917q6 -96 27 -162q14 -20 18 -45q26 -108 54 -170q24 -42 35 -78l16 -28l3 16q8 -81 53 -126l15 -39q41 -39 62 -85q28 -27 49 -46l18 -18l27 -34l66 -43l3 1l64 -28l67 -19l-12 -3q94 -12 153 -9h72h63q79 12 134 36q12 15 27 18l27 27l18 18l54 36q31 48 72 72 q33 60 42 64l30 61l18 36l9 36l53 99l10 12l8 29q12 63 35 115q12 57 28 95q-3 100 31 171q-1 50 4 85q-4 57 1 94q-8 72 -6 136l-1 17q-6 77 7 144q-14 58 -9 98q-186 62 -380 27l21 -116q6 -51 0 -99l9 -54v-207l-9 -26v-81l-9 -27l20 -45l-20 -176l-5 -6l-8 -25l11 -17 q-35 -85 -62 -168q-76 -146 -233 -169l-123 29q-114 8 -168 119q-265 221 -34 945l75 123q-59 21 -108 18l-18 18h-27l-27 9l-72 18l-103 37q-53 3 -101 13l-20 -131q-12 -100 -14 -151l-13 -46v-36l-10 -77l1 -22l-9 -117q3 -83 -9 -143zM764 1714q0 23 17 40t39 17t37 -16 t15 -41q0 -24 -16 -40.5t-38 -16.5t-38 17t-16 40zM992 1714q0 23 17 40t39 17t37 -16t15 -41q0 -24 -16 -40.5t-38 -16.5t-38 17t-16 40z" />
<glyph unicode="&#xdd;" horiz-adv-x="1284" d="M74 1606l17 -59l26 -34l51 -111l17 -26l8 -17l9 -25l17 -9l8 -17q27 -65 51 -102l17 -25l9 -17q27 -66 51 -103l25 -59l43 -51q7 -14 2 -27l15 -16q10 -33 17 -42q42 -55 58 -101l10 -44v-34q9 -131 9 -213l-9 -43l-8 -68l-9 -76q-16 -52 -17 -94l-8 -34l-17 -162l25 -17 l17 9q65 2 111 17q40 -6 68 -17q65 14 111 8v94v34l-9 17v25q3 61 -17 103v51q-8 125 2 197l10 41l14 170l2 26l12 22q53 74 105 148q15 34 42 51l26 60l25 42l17 11l26 32q44 44 60 70l25 24l17 25q29 40 60 60q30 44 68 76l8 26l17 20l43 48q23 53 54 85l31 51h-43h-110 h-34h-145h-26h-102l-17 -51l-17 -34l-17 -42l-17 -34l-17 -43l-8 -34l-17 -43l-7 -17q-18 -46 -36 -85l-34 -85q-26 -51 -34 -85q-40 -59 -77 -94q-20 20 -25 43q-10 13 -9 25q-22 34 -25 68l-17 60l-51 111l-9 25l-8 34l-9 26l-8 34v25q-10 9 -9 18l-8 25l-9 17v26 q-30 56 -34 110q-30 51 -39 122l-21 -11q-8 -10 -17 -9q-44 -15 -76 -34l-51 -23q-89 -45 -179 -45zM704 1582l67 221h142l-187 -221h-22z" />
<glyph unicode="&#xde;" d="M158 1766q40 -18 60 -15.5t143 17.5h72h53l-29 -295q0 -33 19 -39t57 -6q57 0 138 -30t181 -94t157 -152.5t57 -199.5q0 -262 -188 -420.5t-299 -196.5t-113 -63t-2 -34v-111t5 -73q15 -63 24 -78q-160 -5 -234.5 -10t-71.5 66.5t2 142t-1 113.5v61l-3 691zM485 1132 l4 -138q1 -76 2 -139.5t4 -146.5v-14l1 -31q0 -23 8 -23q57 0 122 87.5t64 190.5q-2 125 -88 173q-26 18 -59.5 29.5t-57.5 11.5z" />
<glyph unicode="&#xdf;" horiz-adv-x="1251" d="M154 -51q14 91 11.5 110t-2.5 85l16 943q0 158 9 217t18.5 105t31 99t54.5 108.5t124 55.5q27 0 79.5 -0.5t118.5 -41.5q43 -47 50 -67t26 -59.5t35 -106t16 -118.5q0 -86 -43 -176q-48 -77 -95 -153q97 -36 171.5 -141t74.5 -302q0 -146 -37 -248t-127.5 -195.5 t-239.5 -118.5q2 25 -5.5 57.5t-7.5 114.5q0 43 6 76t19 33l54 -14q42 0 76 98t34 222q0 115 -27 225.5t-76.5 126.5t-60 26t-10.5 35q0 29 53 75.5t53 177.5q0 81 -22.5 144.5t-51.5 63.5q-32 0 -56.5 -86t-24.5 -253l-12 -878l10 -244q-20 0 -59 5l-131 -9q-30 0 -52 8z " />
<glyph unicode="&#xe0;" d="M-3 112l20 -40q62 -3 111 -20l20 -11q107 -62 181 -90l30 30q8 197 91 342l30 10h41h30h40h30l141 -5l20 5l146 20q19 -57 10 -110q16 -48 5 -81q32 -164 0 -292q6 -8 31 -20h35q32 -4 65 0l197 30l45 35l10 26l-30 50l-10 81l-42 161l-7 53l-11 43v48h16q5 -84 -12 -53 l17 -1l-3 -5l-52 175l14 10l-16 105l-9 57q-21 80 -15 142q-18 59 -26 208l-15 92q-14 88 -12 191q-29 120 2 234q-34 20 -61 20q-25 -8 -40 0h-40l-41 -5l-30 5q-116 -4 -201 -5q-53 5 -91 5l-70 5l-81 -5q-69 -325 55 -267l81 15l-35 -91l-40 -70l-21 -50l-20 -51l-15 -45 l-25 -45l-10 -31l-20 -20l-10 -20l-10 -20q-54 -114 -101 -181l-30 -61q-25 -59 -61 -100l-60 -131l-20 -30zM575 615l20 50l15 20l25 50l21 21l10 30l30 50q24 56 80 161q22 69 76 181l10 -40l20 -85q23 -72 25 -121q25 -146 15 -292l-25 -5l-55 -5q-80 -28 -146 -26 q-57 -6 -121 11zM686 1781l114 12l57 -177l-22 -16z" />
<glyph unicode="&#xe1;" d="M-3 112l20 -40q62 -3 111 -20l20 -11q107 -62 181 -90l30 30q8 197 91 342l30 10h41h30h40h30l141 -5l20 5l146 20q19 -57 10 -110q16 -48 5 -81q32 -164 0 -292q6 -8 31 -20h35q32 -4 65 0l197 30l45 35l10 26l-30 50l-10 81l-42 161l-7 53l-11 43v48h16q5 -84 -12 -53 l17 -1l-3 -5l-52 175l14 10l-16 105l-9 57q-21 80 -15 142q-18 59 -26 208l-15 92q-14 88 -12 191q-29 120 2 234q-34 20 -61 20q-25 -8 -40 0h-40l-41 -5l-30 5q-116 -4 -201 -5q-53 5 -91 5l-70 5l-81 -5q-69 -325 55 -267l81 15l-35 -91l-40 -70l-21 -50l-20 -51l-15 -45 l-25 -45l-10 -31l-20 -20l-10 -20l-10 -20q-54 -114 -101 -181l-30 -61q-25 -59 -61 -100l-60 -131l-20 -30zM575 615l20 50l15 20l25 50l21 21l10 30l30 50q24 56 80 161q22 69 76 181l10 -40l20 -85q23 -72 25 -121q25 -146 15 -292l-25 -5l-55 -5q-80 -28 -146 -26 q-57 -6 -121 11zM805 1570l65 215h140l-184 -215h-21z" />
<glyph unicode="&#xe2;" d="M-3 112l20 -40q62 -3 111 -20l20 -11q107 -62 181 -90l30 30q8 197 91 342l30 10h41h30h40h30l141 -5l20 5l146 20q19 -57 10 -110q16 -48 5 -81q32 -164 0 -292q6 -8 31 -20h35q32 -4 65 0l197 30l45 35l10 26l-30 50l-10 81l-42 161l-7 53l-11 43v48h16q5 -84 -12 -53 l17 -1l-3 -5l-52 175l14 10l-16 105l-9 57q-21 80 -15 142q-18 59 -26 208l-15 92q-14 88 -12 191q-29 120 2 234q-34 20 -61 20q-25 -8 -40 0h-40l-41 -5l-30 5q-116 -4 -201 -5q-53 5 -91 5l-70 5l-81 -5q-69 -325 55 -267l81 15l-35 -91l-40 -70l-21 -50l-20 -51l-15 -45 l-25 -45l-10 -31l-20 -20l-10 -20l-10 -20q-54 -114 -101 -181l-30 -61q-25 -59 -61 -100l-60 -131l-20 -30zM575 615l20 50l15 20l25 50l21 21l10 30l30 50q24 56 80 161q22 69 76 181l10 -40l20 -85q23 -72 25 -121q25 -146 15 -292l-25 -5l-55 -5q-80 -28 -146 -26 q-57 -6 -121 11zM734 1603l108 161l16 -2l103 -166l-41 -4l-72 132l-87 -147z" />
<glyph unicode="&#xe3;" d="M-3 112l121 242l20 30l60 131q36 41 61 100l30 61q47 67 101 181l10 20l10 20l20 20l10 31l25 45l15 45l20 51l21 50l40 70l35 91l-81 -15q-124 -58 -55 267l81 5l70 -5q38 0 91 -5q85 1 201 5l30 -5l41 5h40q15 -8 40 0q27 0 61 -20q-31 -114 -2 -234q-2 -103 12 -191 l15 -92q8 -149 26 -208q-6 -62 15 -142l9 -57l16 -105l-14 -10l52 -175l3 5l-17 1q17 -31 12 53h-16v-48l11 -43l7 -53l42 -161l10 -81l30 -50l-10 -26l-45 -35l-197 -30q-33 -4 -65 0h-35q-25 12 -31 20q32 128 0 292q11 33 -5 81q9 53 -10 110l-146 -20l-20 -5l-141 5h-30 h-40h-30h-41l-30 -10q-83 -145 -91 -342l-30 -30q-74 28 -181 90l-20 11q-49 17 -111 20zM575 615q64 -17 121 -11q66 -2 146 26l55 5l25 5q10 146 -15 292q-2 49 -25 121l-20 85l-10 40q-54 -112 -76 -181q-56 -105 -80 -161l-30 -50l-10 -30l-21 -21l-25 -50l-15 -20z M671 1610q-9 76 78 148q21 7 47 3q16 -6 36 -20l6 -6l10 -11q10 -16 29 -34q5 2 6 -1q71 -29 117 62q16 30 35 25q-10 -18 -18 -38l-6 -25l-3 -10l-6 -13q-13 -29 -52 -70l-10 -6q-3 -1 -6 -7q-83 -23 -127 63q-42 16 -70 -20q-26 -22 -39 -53q-9 -11 -11 -27z" />
<glyph unicode="&#xe4;" d="M-3 112l20 -40q62 -3 111 -20l20 -11q107 -62 181 -90l30 30q8 197 91 342l30 10h41h30h40h30l141 -5l20 5l146 20q19 -57 10 -110q16 -48 5 -81q32 -164 0 -292q6 -8 31 -20h35q32 -4 65 0l197 30l45 35l10 26l-30 50l-10 81l-42 161l-7 53l-11 43v48h16q5 -84 -12 -53 l17 -1l-3 -5l-52 175l14 10l-16 105l-9 57q-21 80 -15 142q-18 59 -26 208l-15 92q-14 88 -12 191q-29 120 2 234q-34 20 -61 20q-25 -8 -40 0h-40l-41 -5l-30 5q-116 -4 -201 -5q-53 5 -91 5l-70 5l-81 -5q-69 -325 55 -267l81 15l-35 -91l-40 -70l-21 -50l-20 -51l-15 -45 l-25 -45l-10 -31l-20 -20l-10 -20l-10 -20q-54 -114 -101 -181l-30 -61q-25 -59 -61 -100l-60 -131l-20 -30zM572 1700q0 43 31.5 75t73.5 32q41 0 69.5 -30.5t28.5 -76.5q0 -45 -30 -76.5t-72 -31.5q-40 0 -70.5 31.5t-30.5 76.5zM575 615l20 50l15 20l25 50l21 21l10 30 l30 50q24 56 80 161q22 69 76 181l10 -40l20 -85q23 -72 25 -121q25 -146 15 -292l-25 -5l-55 -5q-80 -28 -146 -26q-57 -6 -121 11zM876 1700q0 43 31.5 75t73.5 32q41 0 69.5 -30.5t28.5 -76.5q0 -45 -30 -76.5t-72 -31.5q-40 0 -70.5 31.5t-30.5 76.5z" />
<glyph unicode="&#xe5;" d="M-3 112l20 -40q62 -3 111 -20l20 -11q107 -62 181 -90l30 30q8 197 91 342l30 10h41h30h40h30l141 -5l20 5l146 20q19 -57 10 -110q16 -48 5 -81q32 -164 0 -292q6 -8 31 -20h35q32 -4 65 0l197 30l45 35l10 26l-30 50l-10 81l-42 161l-7 53l-11 43v48h16q5 -84 -12 -53 l17 -1l-3 -5l-52 175l14 10l-16 105l-9 57q-21 80 -15 142q-18 59 -26 208l-15 92q-14 88 -12 191q-29 120 2 234q-34 20 -61 20q-25 -8 -40 0h-40l-41 -5l-30 5q-116 -4 -201 -5q-53 5 -91 5l-70 5l-81 -5q-69 -325 55 -267l81 15l-35 -91l-40 -70l-21 -50l-20 -51l-15 -45 l-25 -45l-10 -31l-20 -20l-10 -20l-10 -20q-54 -114 -101 -181l-30 -61q-25 -59 -61 -100l-60 -131l-20 -30zM575 615l20 50l15 20l25 50l21 21l10 30l30 50q24 56 80 161q22 69 76 181l10 -40l20 -85q23 -72 25 -121q25 -146 15 -292l-25 -5l-55 -5q-80 -28 -146 -26 q-57 -6 -121 11zM747 1655q0 45 31.5 77t76.5 32q46 0 77.5 -32t31.5 -77t-32 -76.5t-77 -31.5q-44 0 -76 31.5t-32 76.5zM803 1657q0 -26 17.5 -43.5t42.5 -17.5t43 17.5t18 43.5q0 25 -18 42.5t-43 17.5t-42.5 -17.5t-17.5 -42.5z" />
<glyph unicode="&#xe6;" d="M-3 112l20 -40q62 -3 111 -20l20 -11q107 -62 181 -90l30 30q8 197 91 342l30 10h41h30h40h30l141 -5l20 5l146 20q19 -57 10 -110q16 -48 5 -81q32 -164 0 -292q6 -8 31 -20h35q32 -4 65 0l197 30l45 35l10 26l-30 50l-10 81l-42 161l-7 53l-11 43v48h16q5 -84 -12 -53 l17 -1l-3 -5l-52 175l14 10l-16 105l-9 57q-21 80 -15 142q-18 59 -26 208l-15 92q-14 88 -12 191q-29 120 2 234q-34 20 -61 20q-25 -8 -40 0h-40l-41 -5l-30 5q-116 -4 -201 -5q-53 5 -91 5l-70 5l-81 -5q-69 -325 55 -267l81 15l-35 -91l-40 -70l-21 -50l-20 -51l-15 -45 l-25 -45l-10 -31l-20 -20l-10 -20l-10 -20q-54 -114 -101 -181l-30 -61q-25 -59 -61 -100l-60 -131l-20 -30zM575 615l20 50l15 20l25 50l21 21l10 30l30 50q24 56 80 161q22 69 76 181l10 -40l20 -85q23 -72 25 -121q25 -146 15 -292l-25 -5l-55 -5q-80 -28 -146 -26 q-57 -6 -121 11zM1099 1369l15 164l490 59l15 -134zM1151 902l282 74l30 -186l-290 -51zM1255 212l460 111l45 -186l-461 -96z" />
<glyph unicode="&#xe7;" horiz-adv-x="1245" d="M66 614q150 816 1043 985q46 4 99 19q-20 -159 8 -269l5 -30l-64 11q-459 -42 -739 -456q-154 -225 -38 -512q180 -188 541 45l198 169l19 9l30 -105q-2 -36 40 -179l9 -40q-206 -182 -463 -246q-409 -116 -609 275l-59 187l-10 45l-1 44l-8 14zM380 -361q28 -4 48 -4 q51 0 86 33.5t35 76.5q0 30 -23 52t-57 22q-10 0 -26 -2l111 178h60l-50 -79q63 -16 94 -54t31 -92q0 -72 -60 -126.5t-155 -54.5q-37 0 -94 7v43z" />
<glyph unicode="&#xe8;" horiz-adv-x="1027" d="M66 10q16 52 20 130q-2 60 20 140l-5 30l15 110l10 49v50v30l10 40l10 100l10 50v50l10 170q19 66 20 160l10 50l10 70l10 129v60l20 80l-10 60l-10 50q71 16 190 20l20 10q263 -11 509 120l20 15l-20 -15l30 35q51 -188 -20 -365q-15 39 -60 35l5 5l-135 -30l-55 -20 l-45 -15l-25 -15l-35 -10l-46 13q1 -79 -51 -456q108 6 407 104q31 -48 40 -110v-70q2 -43 -10 -120q-46 2 -100 5q-55 6 -125 5q-10 1 -15 0q-34 3 -30 0h-45l-136 -2l-6 -70l-9 -68q-18 -48 -18 -120q5 -3 -5 -20l-10 -30l-10 -79l-10 -40l-10 -50q87 2 149 30 q139 4 280 90l20 10h40l-5 -60l5 -90v-175l-130 -5q-63 -9 -160 -15q-62 -21 -129 -15h-35l-45 -10h-30h-30q-62 -8 -125 -5q-70 -21 -145 -25zM414 1777l73 8l36 -113l-14 -10z" />
<glyph unicode="&#xe9;" horiz-adv-x="1027" d="M66 10q16 52 20 130q-2 60 20 140l-5 30l15 110l10 49v50v30l10 40l10 100l10 50v50l10 170q19 66 20 160l10 50l10 70l10 129v60l20 80l-10 60l-10 50q71 16 190 20l20 10q263 -11 509 120l20 15l-20 -15l30 35q51 -188 -20 -365q-15 39 -60 35l5 5l-135 -30l-55 -20 l-45 -15l-25 -15l-35 -10l-46 13q1 -79 -51 -456q108 6 407 104q31 -48 40 -110v-70q2 -43 -10 -120q-46 2 -100 5q-55 6 -125 5q-10 1 -15 0q-34 3 -30 0h-45l-136 -2l-6 -70l-9 -68q-18 -48 -18 -120q5 -3 -5 -20l-10 -30l-10 -79l-10 -40l-10 -50q87 2 149 30 q139 4 280 90l20 10h40l-5 -60l5 -90v-175l-130 -5q-63 -9 -160 -15q-62 -21 -129 -15h-35l-45 -10h-30h-30q-62 -8 -125 -5q-70 -21 -145 -25zM509 1655l44 144h93l-123 -144h-14z" />
<glyph unicode="&#xea;" horiz-adv-x="1027" d="M66 10q75 4 145 25q63 -3 125 5h30h30l45 10h35q67 -6 129 15q97 6 160 15l130 5v175l-5 90l5 60h-40l-20 -10q-141 -86 -280 -90q-62 -28 -149 -30l10 50l10 40l10 79l10 30q10 17 5 20q0 72 18 120l9 68l6 70l136 2h45q-4 3 30 0q5 1 15 0q70 1 125 -5q54 -3 100 -5 q12 77 10 120v70q-9 62 -40 110q-299 -98 -407 -104q52 377 51 456l46 -13l35 10l25 15l45 15l55 20l135 30l-5 -5q45 4 60 -35q71 177 20 365l-30 -35l20 15l-20 -15q-246 -131 -509 -120l-20 -10q-119 -4 -190 -20l10 -50l10 -60l-20 -80v-60l-10 -129l-10 -70l-10 -50 q-1 -94 -20 -160l-10 -170v-50l-10 -50l-10 -100l-10 -40v-30v-50l-10 -49l-15 -110l5 -30q-22 -80 -20 -140q-4 -78 -20 -130zM469 1689l81 121l12 -2l77 -123l-31 -4l-54 99l-65 -110z" />
<glyph unicode="&#xeb;" horiz-adv-x="1027" d="M66 10q16 52 20 130q-2 60 20 140l-5 30l15 110l10 49v50v30l10 40l10 100l10 50v50l10 170q19 66 20 160l10 50l10 70l10 129v60l20 80l-10 60l-10 50q71 16 190 20l20 10q263 -11 509 120l20 15l-20 -15l30 35q51 -188 -20 -365q-15 39 -60 35l5 5l-135 -30l-55 -20 l-45 -15l-25 -15l-35 -10l-46 13q1 -79 -51 -456q108 6 407 104q31 -48 40 -110v-70q2 -43 -10 -120q-46 2 -100 5q-55 6 -125 5q-10 1 -15 0q-34 3 -30 0h-45l-136 -2l-6 -70l-9 -68q-18 -48 -18 -120q5 -3 -5 -20l-10 -30l-10 -79l-10 -40l-10 -50q87 2 149 30 q139 4 280 90l20 10h40l-5 -60l5 -90v-175l-130 -5q-63 -9 -160 -15q-62 -21 -129 -15h-35l-45 -10h-30h-30q-62 -8 -125 -5q-70 -21 -145 -25zM371 1730q0 17 12.5 29.5t29.5 12.5q16 0 27 -12t11 -30t-11.5 -30.5t-28.5 -12.5q-16 0 -28 12.5t-12 30.5zM527 1738 q0 17 12.5 29.5t29.5 12.5q16 0 27 -12t11 -30t-11.5 -30.5t-28.5 -12.5q-16 0 -28 12.5t-12 30.5z" />
<glyph unicode="&#xec;" horiz-adv-x="388" d="M4 214l52 -14h26l25 -11q118 -12 207 17q73 6 121 26q-39 34 -50 74l-5 36v182l-3 -8v36q-5 83 6 153v69q4 101 1 183l34 188q33 74 -9 72q-44 5 -64 12l-22 -7q-120 6 -198 26q-18 -23 -6 -33l23 -45q68 -454 -52 -835zM98 1577l181 19l90 -281l-36 -25z" />
<glyph unicode="&#xed;" horiz-adv-x="448" d="M4 214l52 -14h26l25 -11q118 -12 207 17q73 6 121 26q-39 34 -50 74l-5 36v182l-3 -8v36q-5 83 6 153v69q4 101 1 183l34 188q33 74 -9 72q-44 5 -64 12l-22 -7q-120 6 -198 26q-18 -23 -6 -33l23 -45q68 -454 -52 -835zM237 1287l84 275h178l-235 -275h-27z" />
<glyph unicode="&#xee;" horiz-adv-x="381" d="M4 214l52 -14h26l25 -11q118 -12 207 17q73 6 121 26q-39 34 -50 74l-5 36v182l-3 -8v36q-5 83 6 153v69q4 101 1 183l34 188q33 74 -9 72q-44 5 -64 12l-22 -7q-120 6 -198 26q-18 -23 -6 -33l23 -45q68 -454 -52 -835zM153 1375l127 191l19 -3l122 -195l-48 -6l-85 156 l-104 -173z" />
<glyph unicode="&#xef;" horiz-adv-x="381" d="M4 214l52 -14h26l25 -11q118 -12 207 17q73 6 121 26q-39 34 -50 74l-5 36v182l-3 -8v36q-5 83 6 153v69q4 101 1 183l34 188q33 74 -9 72q-44 5 -64 12l-22 -7q-120 6 -198 26q-18 -23 -6 -33l23 -45q68 -454 -52 -835zM121 1407q0 30 22 52.5t51 22.5t48.5 -21 t19.5 -53t-20.5 -54t-50.5 -22q-28 0 -49 22t-21 53zM299 1400q0 30 22 52.5t51 22.5t48.5 -21t19.5 -53t-20.5 -54t-50.5 -22q-28 0 -49 22t-21 53z" />
<glyph unicode="&#xf0;" horiz-adv-x="1397" d="M19 1441l28 151q8 28 10 76q7 47 18 66q64 -26 171 -38l28 -9l29 -9h28l29 -10l75 -19q41 -4 95 -19l47 -10l37 -9l39 -19l47 -9q48 -14 113 -47l38 -10l63 -33q78 -31 164 -90q19 -30 56 -47l29 -19q28 -28 57 -76l22 -15l110 -193l10 -28l10 -28l18 -19l11 -61v-46 l-1 -42q-121 -594 -795 -769l-53 -14q-37 -7 -99 -23l-16 -11q-55 -6 -124 -8l-19 56q7 44 0 114l19 161v170q11 47 9 103v209l9 47l3 32l-3 53v57q-15 65 -9 171l2 37l-2 47l-8 58l-11 112q-101 12 -237 -19h-28q-4 17 -19 29zM120 890l804 45l7 -150l-804 -52zM120 890 l804 45l7 -150l-804 -52zM527 1117l10 -21v-79v-29l-9 -26l9 -64v-30v-29l-3 -88q-2 -66 7 -147q-13 -80 -4 -192v-70q188 1 377 120q296 176 198 496q-92 325 -565 446q-27 -96 -10 -218z" />
<glyph unicode="&#xf1;" horiz-adv-x="1330" d="M7 -30l30 50q43 59 90 160q45 83 55 141q20 53 15 80l10 50l40 150l10 20q1 44 20 100l30 140l10 90l20 40l21 110v30q15 57 20 131l10 30q-1 72 -30 170v30q1 10 -11 20v30q11 2 21 20q90 -48 220 -50l70 -20q3 -162 60 -306l15 -55l35 -125q16 -18 50 -105 q11 -36 40 -90l20 -120q18 -36 60 -70q15 75 20 190v160q7 40 -10 80q14 79 0 181l-10 70q-17 90 -80 190v30l171 20h40h30h30l45 5l65 -5h35h45q27 0 20 -20l-25 -65q-73 -140 -95 -336l-30 -130v-30q-9 -30 -10 -80v-30l-10 -30v-30q0 -32 -10 -80v-30v-70l-10 -30v-30 l-30 -140l-10 -60q6 -72 -10 -171l-5 -50l5 -50l-30 -50h-101q-44 9 -120 10h-30q-9 77 -60 150l-20 80l-5 25l-15 46l-20 60l-10 20l-10 50q-28 45 -40 110q-17 50 -40 110l-20 50q-9 72 -50 310q-33 -204 -50 -280l-30 -160l-20 -80q3 -31 -10 -70l-20 -105l-10 -46 q3 -13 0 -40q-21 -128 20 -260v-30l-10 -20q-62 -15 -151 -20q-78 12 -170 15zM618 1577q-11 98 101 190q27 9 60 5q21 -8 47 -26l8 -8l13 -15q12 -20 37 -43q6 2 8 -2q92 -37 151 80q20 39 45 33q-13 -24 -23 -49l-8 -33l-4 -12l-7 -17q-17 -37 -68 -90l-12 -8q-4 -2 -8 -9 q-108 -30 -164 81q-54 20 -91 -26q-33 -28 -50 -68q-11 -14 -14 -35z" />
<glyph unicode="&#xf2;" horiz-adv-x="1147" d="M82 796l20 -78l11 -22l-2 -7q57 -108 116 -149q399 -70 726 89l27 34l6 22q67 114 101 201l22 111q32 137 16 230q-45 134 -79 212q-220 258 -506 273q-105 -9 -201 -67q-364 -385 -257 -849zM358 842q28 461 350 638q218 -145 184 -348q-102 -241 -229 -382 q-277 -177 -305 92zM602 1803l58 6l28 -89l-11 -8z" />
<glyph unicode="&#xf3;" horiz-adv-x="1147" d="M82 796l20 -78l11 -22l-2 -7q57 -108 116 -149q399 -70 726 89l27 34l6 22q67 114 101 201l22 111q32 137 16 230q-45 134 -79 212q-220 258 -506 273q-105 -9 -201 -67q-364 -385 -257 -849zM358 842q28 461 350 638q218 -145 184 -348q-102 -241 -229 -382 q-277 -177 -305 92zM586 1732l24 79h51l-67 -79h-8z" />
<glyph unicode="&#xf4;" horiz-adv-x="1147" d="M82 796l20 -78l11 -22l-2 -7q57 -108 116 -149q399 -70 726 89l27 34l6 22q67 114 101 201l22 111q32 137 16 230q-45 134 -79 212q-220 258 -506 273q-105 -9 -201 -67q-364 -385 -257 -849zM358 842q28 461 350 638q218 -145 184 -348q-102 -241 -229 -382 q-277 -177 -305 92zM641 1719l64 95l9 -1l61 -98l-24 -2l-43 77l-51 -86z" />
<glyph unicode="&#xf5;" horiz-adv-x="1147" d="M82 796q-107 464 257 849q96 58 201 67q286 -15 506 -273q34 -78 79 -212q16 -93 -16 -230l-22 -111q-34 -87 -101 -201l-6 -22l-27 -34q-327 -159 -726 -89q-59 41 -116 149l2 7l-11 22zM358 842q28 -269 305 -92q127 141 229 382q34 203 -184 348q-322 -177 -350 -638z M466 1727q-4 39 40 75q11 4 24 2q8 -3 19 -10l3 -3l5 -6q5 -8 15 -17q2 0 3 -1q37 -15 60 32q8 15 18 13q-5 -10 -9 -20l-3 -13l-2 -5l-3 -6q-6 -15 -27 -36l-5 -3q-1 -1 -3 -4q-43 -12 -65 32q-21 8 -36 -10q-13 -11 -20 -27q-4 -6 -6 -14z" />
<glyph unicode="&#xf6;" horiz-adv-x="1147" d="M82 796l20 -78l11 -22l-2 -7q57 -108 116 -149q399 -70 726 89l27 34l6 22q67 114 101 201l22 111q32 137 16 230q-45 134 -79 212q-220 258 -506 273q-105 -9 -201 -67q-364 -385 -257 -849zM358 842q28 461 350 638q218 -145 184 -348q-102 -241 -229 -382 q-277 -177 -305 92zM492 1769q0 17 12.5 29.5t29.5 12.5q16 0 27 -12t11 -30t-11.5 -30.5t-28.5 -12.5q-16 0 -28 12.5t-12 30.5zM648 1764q0 17 12.5 29.5t29.5 12.5q16 0 27 -12t11 -30t-11.5 -30.5t-28.5 -12.5q-16 0 -28 12.5t-12 30.5z" />
<glyph unicode="&#xf8;" horiz-adv-x="1147" d="M82 796q-107 464 257 849q96 58 201 67q286 -15 506 -273q34 -78 79 -212q16 -93 -16 -230l-22 -111q-34 -87 -101 -201l-6 -22l-27 -34q-327 -159 -726 -89q-59 41 -116 149l2 7l-11 22zM277 413l555 1314v11l151 -26l-535 -1387zM358 842q28 -269 305 -92 q127 141 229 382q34 203 -184 348q-322 -177 -350 -638z" />
<glyph unicode="&#xf9;" horiz-adv-x="1479" d="M161 917q6 -96 27 -162q14 -20 18 -45q26 -108 54 -170q24 -42 35 -78l16 -28l3 16q8 -81 53 -126l15 -39q41 -39 62 -85q28 -27 49 -46l18 -18l27 -34l66 -43l3 1l64 -28l67 -19l-12 -3q94 -12 153 -9h72h63q79 12 134 36q12 15 27 18l27 27l18 18l54 36q31 48 72 72 q33 60 42 64l30 61l18 36l9 36l53 99l10 12l8 29q12 63 35 115q12 57 28 95q-3 100 31 171q-1 50 4 85q-4 57 1 94q-8 72 -6 136l-1 17q-6 77 7 144q-14 58 -9 98q-186 62 -380 27l21 -116q6 -51 0 -99l9 -54v-207l-9 -26v-81l-9 -27l20 -45l-20 -176l-5 -6l-8 -25l11 -17 q-35 -85 -62 -168q-76 -146 -233 -169l-123 29q-114 8 -168 119q-265 221 -34 945l75 123q-59 21 -108 18l-18 18h-27l-27 9l-72 18l-103 37q-53 3 -101 13l-20 -131q-12 -100 -14 -151l-13 -46v-36l-10 -77l1 -22l-9 -117q3 -83 -9 -143zM789 1791l181 19l90 -281l-36 -25z " />
<glyph unicode="&#xfa;" horiz-adv-x="1479" d="M161 917q6 -96 27 -162q14 -20 18 -45q26 -108 54 -170q24 -42 35 -78l16 -28l3 16q8 -81 53 -126l15 -39q41 -39 62 -85q28 -27 49 -46l18 -18l27 -34l66 -43l3 1l64 -28l67 -19l-12 -3q94 -12 153 -9h72h63q79 12 134 36q12 15 27 18l27 27l18 18l54 36q31 48 72 72 q33 60 42 64l30 61l18 36l9 36l53 99l10 12l8 29q12 63 35 115q12 57 28 95q-3 100 31 171q-1 50 4 85q-4 57 1 94q-8 72 -6 136l-1 17q-6 77 7 144q-14 58 -9 98q-186 62 -380 27l21 -116q6 -51 0 -99l9 -54v-207l-9 -26v-81l-9 -27l20 -45l-20 -176l-5 -6l-8 -25l11 -17 q-35 -85 -62 -168q-76 -146 -233 -169l-123 29q-114 8 -168 119q-265 221 -34 945l75 123q-59 21 -108 18l-18 18h-27l-27 9l-72 18l-103 37q-53 3 -101 13l-20 -131q-12 -100 -14 -151l-13 -46v-36l-10 -77l1 -22l-9 -117q3 -83 -9 -143zM904 1536l78 256h166l-219 -256 h-25z" />
<glyph unicode="&#xfb;" horiz-adv-x="1479" d="M161 917q6 -96 27 -162q14 -20 18 -45q26 -108 54 -170q24 -42 35 -78l16 -28l3 16q8 -81 53 -126l15 -39q41 -39 62 -85q28 -27 49 -46l18 -18l27 -34l66 -43l3 1l64 -28l67 -19l-12 -3q94 -12 153 -9h72h63q79 12 134 36q12 15 27 18l27 27l18 18l54 36q31 48 72 72 q33 60 42 64l30 61l18 36l9 36l53 99l10 12l8 29q12 63 35 115q12 57 28 95q-3 100 31 171q-1 50 4 85q-4 57 1 94q-8 72 -6 136l-1 17q-6 77 7 144q-14 58 -9 98q-186 62 -380 27l21 -116q6 -51 0 -99l9 -54v-207l-9 -26v-81l-9 -27l20 -45l-20 -176l-5 -6l-8 -25l11 -17 q-35 -85 -62 -168q-76 -146 -233 -169l-123 29q-114 8 -168 119q-265 221 -34 945l75 123q-59 21 -108 18l-18 18h-27l-27 9l-72 18l-103 37q-53 3 -101 13l-20 -131q-12 -100 -14 -151l-13 -46v-36l-10 -77l1 -22l-9 -117q3 -83 -9 -143zM808 1568l162 241l24 -3l154 -248 l-61 -7l-108 197l-131 -219z" />
<glyph unicode="&#xfc;" horiz-adv-x="1479" d="M161 917q6 -96 27 -162q14 -20 18 -45q26 -108 54 -170q24 -42 35 -78l16 -28l3 16q8 -81 53 -126l15 -39q41 -39 62 -85q28 -27 49 -46l18 -18l27 -34l66 -43l3 1l64 -28l67 -19l-12 -3q94 -12 153 -9h72h63q79 12 134 36q12 15 27 18l27 27l18 18l54 36q31 48 72 72 q33 60 42 64l30 61l18 36l9 36l53 99l10 12l8 29q12 63 35 115q12 57 28 95q-3 100 31 171q-1 50 4 85q-4 57 1 94q-8 72 -6 136l-1 17q-6 77 7 144q-14 58 -9 98q-186 62 -380 27l21 -116q6 -51 0 -99l9 -54v-207l-9 -26v-81l-9 -27l20 -45l-20 -176l-5 -6l-8 -25l11 -17 q-35 -85 -62 -168q-76 -146 -233 -169l-123 29q-114 8 -168 119q-265 221 -34 945l75 123q-59 21 -108 18l-18 18h-27l-27 9l-72 18l-103 37q-53 3 -101 13l-20 -131q-12 -100 -14 -151l-13 -46v-36l-10 -77l1 -22l-9 -117q3 -83 -9 -143zM764 1714q0 23 17 40t39 17t37 -16 t15 -41q0 -24 -16 -40.5t-38 -16.5t-38 17t-16 40zM992 1714q0 23 17 40t39 17t37 -16t15 -41q0 -24 -16 -40.5t-38 -16.5t-38 17t-16 40z" />
<glyph unicode="&#xfd;" horiz-adv-x="1284" d="M74 1606l17 -59l26 -34l51 -111l17 -26l8 -17l9 -25l17 -9l8 -17q27 -65 51 -102l17 -25l9 -17q27 -66 51 -103l25 -59l43 -51q7 -14 2 -27l15 -16q10 -33 17 -42q42 -55 58 -101l10 -44v-34q9 -131 9 -213l-9 -43l-8 -68l-9 -76q-16 -52 -17 -94l-8 -34l-17 -162l25 -17 l17 9q65 2 111 17q40 -6 68 -17q65 14 111 8v94v34l-9 17v25q3 61 -17 103v51q-8 125 2 197l10 41l14 170l2 26l12 22q53 74 105 148q15 34 42 51l26 60l25 42l17 11l26 32q44 44 60 70l25 24l17 25q29 40 60 60q30 44 68 76l8 26l17 20l43 48q23 53 54 85l31 51h-43h-110 h-34h-145h-26h-102l-17 -51l-17 -34l-17 -42l-17 -34l-17 -43l-8 -34l-17 -43l-7 -17q-18 -46 -36 -85l-34 -85q-26 -51 -34 -85q-40 -59 -77 -94q-20 20 -25 43q-10 13 -9 25q-22 34 -25 68l-17 60l-51 111l-9 25l-8 34l-9 26l-8 34v25q-10 9 -9 18l-8 25l-9 17v26 q-30 56 -34 110q-30 51 -39 122l-21 -11q-8 -10 -17 -9q-44 -15 -76 -34l-51 -23q-89 -45 -179 -45zM704 1582l67 221h142l-187 -221h-22z" />
<glyph unicode="&#xfe;" d="M158 1766q40 -18 60 -15.5t143 17.5h72h53l-29 -295q0 -33 19 -39t57 -6q57 0 138 -30t181 -94t157 -152.5t57 -199.5q0 -262 -188 -420.5t-299 -196.5t-113 -63t-2 -34v-111t5 -73q15 -63 24 -78q-160 -5 -234.5 -10t-71.5 66.5t2 142t-1 113.5v61l-3 691zM485 1132 l4 -138q1 -76 2 -139.5t4 -146.5v-14l1 -31q0 -23 8 -23q57 0 122 87.5t64 190.5q-2 125 -88 173q-26 18 -59.5 29.5t-57.5 11.5z" />
<glyph unicode="&#xff;" horiz-adv-x="1284" d="M74 1606l17 -59l26 -34l51 -111l17 -26l8 -17l9 -25l17 -9l8 -17q27 -65 51 -102l17 -25l9 -17q27 -66 51 -103l25 -59l43 -51q7 -14 2 -27l15 -16q10 -33 17 -42q42 -55 58 -101l10 -44v-34q9 -131 9 -213l-9 -43l-8 -68l-9 -76q-16 -52 -17 -94l-8 -34l-17 -162l25 -17 l17 9q65 2 111 17q40 -6 68 -17q65 14 111 8v94v34l-9 17v25q3 61 -17 103v51q-8 125 2 197l10 41l14 170l2 26l12 22q53 74 105 148q15 34 42 51l26 60l25 42l17 11l26 32q44 44 60 70l25 24l17 25q29 40 60 60q30 44 68 76l8 26l17 20l43 48q23 53 54 85l31 51h-43h-110 h-34h-145h-26h-102l-17 -51l-17 -34l-17 -42l-17 -34l-17 -43l-8 -34l-17 -43l-7 -17q-18 -46 -36 -85l-34 -85q-26 -51 -34 -85q-40 -59 -77 -94q-20 20 -25 43q-10 13 -9 25q-22 34 -25 68l-17 60l-51 111l-9 25l-8 34l-9 26l-8 34v25q-10 9 -9 18l-8 25l-9 17v26 q-30 56 -34 110q-30 51 -39 122l-21 -11q-8 -10 -17 -9q-44 -15 -76 -34l-51 -23q-89 -45 -179 -45zM521 1732q0 26 19.5 45.5t44.5 19.5t42.5 -18.5t17.5 -46.5t-18 -47t-44 -19q-25 0 -43.5 19.5t-18.5 46.5zM734 1724q0 26 19.5 45.5t44.5 19.5t42.5 -18.5t17.5 -46.5 t-18 -47t-44 -19q-25 0 -43.5 19.5t-18.5 46.5z" />
<glyph unicode="&#x152;" horiz-adv-x="1631" d="M82 796q-107 464 257 849q96 58 201 67q286 -15 506 -273q34 -78 79 -212q16 -93 -16 -230l-22 -111q-34 -87 -101 -201l-6 -22l-27 -34q-327 -159 -726 -89q-59 41 -116 149l2 7l-11 22zM358 842q28 -269 305 -92q127 141 229 382q34 203 -184 348q-322 -177 -350 -638z M836 1634l639 78l21 -120l-493 -99zM971 657l89 151l384 52l5 -187zM1122 1228l244 52l31 -124l-270 -57z" />
<glyph unicode="&#x153;" horiz-adv-x="1631" d="M82 796q-107 464 257 849q96 58 201 67q286 -15 506 -273q34 -78 79 -212q16 -93 -16 -230l-22 -111q-34 -87 -101 -201l-6 -22l-27 -34q-327 -159 -726 -89q-59 41 -116 149l2 7l-11 22zM358 842q28 -269 305 -92q127 141 229 382q34 203 -184 348q-322 -177 -350 -638z M836 1634l639 78l21 -120l-493 -99zM971 657l89 151l384 52l5 -187zM1122 1228l244 52l31 -124l-270 -57z" />
<glyph unicode="&#x178;" horiz-adv-x="1284" d="M74 1606l17 -59l26 -34l51 -111l17 -26l8 -17l9 -25l17 -9l8 -17q27 -65 51 -102l17 -25l9 -17q27 -66 51 -103l25 -59l43 -51q7 -14 2 -27l15 -16q10 -33 17 -42q42 -55 58 -101l10 -44v-34q9 -131 9 -213l-9 -43l-8 -68l-9 -76q-16 -52 -17 -94l-8 -34l-17 -162l25 -17 l17 9q65 2 111 17q40 -6 68 -17q65 14 111 8v94v34l-9 17v25q3 61 -17 103v51q-8 125 2 197l10 41l14 170l2 26l12 22q53 74 105 148q15 34 42 51l26 60l25 42l17 11l26 32q44 44 60 70l25 24l17 25q29 40 60 60q30 44 68 76l8 26l17 20l43 48q23 53 54 85l31 51h-43h-110 h-34h-145h-26h-102l-17 -51l-17 -34l-17 -42l-17 -34l-17 -43l-8 -34l-17 -43l-7 -17q-18 -46 -36 -85l-34 -85q-26 -51 -34 -85q-40 -59 -77 -94q-20 20 -25 43q-10 13 -9 25q-22 34 -25 68l-17 60l-51 111l-9 25l-8 34l-9 26l-8 34v25q-10 9 -9 18l-8 25l-9 17v26 q-30 56 -34 110q-30 51 -39 122l-21 -11q-8 -10 -17 -9q-44 -15 -76 -34l-51 -23q-89 -45 -179 -45zM521 1732q0 26 19.5 45.5t44.5 19.5t42.5 -18.5t17.5 -46.5t-18 -47t-44 -19q-25 0 -43.5 19.5t-18.5 46.5zM734 1724q0 26 19.5 45.5t44.5 19.5t42.5 -18.5t17.5 -46.5 t-18 -47t-44 -19q-25 0 -43.5 19.5t-18.5 46.5z" />
<glyph unicode="&#x2000;" horiz-adv-x="988" />
<glyph unicode="&#x2001;" horiz-adv-x="1976" />
<glyph unicode="&#x2002;" horiz-adv-x="988" />
<glyph unicode="&#x2003;" horiz-adv-x="1976" />
<glyph unicode="&#x2004;" horiz-adv-x="658" />
<glyph unicode="&#x2005;" horiz-adv-x="494" />
<glyph unicode="&#x2006;" horiz-adv-x="329" />
<glyph unicode="&#x2007;" horiz-adv-x="329" />
<glyph unicode="&#x2008;" horiz-adv-x="247" />
<glyph unicode="&#x2009;" horiz-adv-x="395" />
<glyph unicode="&#x200a;" horiz-adv-x="109" />
<glyph unicode="&#x2010;" horiz-adv-x="682" d="M83 535l577 19l-1 -194l-554 8z" />
<glyph unicode="&#x2011;" horiz-adv-x="682" d="M83 535l577 19l-1 -194l-554 8z" />
<glyph unicode="&#x2012;" horiz-adv-x="682" d="M83 535l577 19l-1 -194l-554 8z" />
<glyph unicode="&#x2013;" horiz-adv-x="1129" d="M83 535l1024 19l-2 -194l-983 8z" />
<glyph unicode="&#x2014;" horiz-adv-x="2153" d="M83 535l2048 19l-4 -194l-1966 8z" />
<glyph unicode="&#x2018;" horiz-adv-x="682" d="M185 1444q0 118 88 215q59 64 178 138l13 -112q-122 -26 -159 -79q-27 -39 -27 -92q0 -32 12 -47q11 -15 26 -15q10 0 28 7q27 9 46 20q51 9 84.5 -27.5t28.5 -88.5q-13 -51 -44 -79q-43 -38 -100 -38q-68 0 -121 57t-53 141z" />
<glyph unicode="&#x2019;" horiz-adv-x="682" d="M194 1678q9 50 40 78q42 38 100 38q67 0 120.5 -56.5t53.5 -140.5q0 -118 -89 -215q-59 -64 -122 -81l-38 100q92 -17 113 34q42 40 42 93q0 31 -11 46q-12 15 -26 15q-11 0 -29 -7q-6 -18 -43 -22q-51 4 -83 38.5t-28 79.5z" />
<glyph unicode="&#x201c;" horiz-adv-x="909" d="M67 1461q0 100 66.5 186.5t140.5 152.5l65 -131q-101 19 -139 -31t-38 -109q0 -35 10 -48q9 -14 18 -16q17 29 40 33t65 7q28 -12 58.5 -43.5t28.5 -82.5q-11 -50 -48 -84.5t-92 -34.5q-67 0 -121 58t-54 143zM500 1456q0 105 67 191.5t150 144.5l51 -129 q-112 11 -144 -35t-32 -108q0 -28 11 -42t23 -14q11 0 24 11.5t53 15.5q70 -4 91.5 -36t19.5 -77q-9 -49 -47.5 -85t-94.5 -36q-66 0 -119 57t-53 142z" />
<glyph unicode="&#x201d;" horiz-adv-x="909" d="M67 1656q0 48 38.5 84t93.5 36q66 0 119.5 -57t53.5 -144q0 -105 -67.5 -192t-189.5 -123l-30 106q131 -7 162.5 39.5t31.5 107.5q0 28 -10 42q-11 14 -24 14q-10 0 -32 -8t-38 -14q-56 -8 -82 29t-26 80zM496 1651q0 48 37 83t91 35q68 0 122 -58.5t54 -143.5 q0 -100 -66.5 -186.5t-192.5 -127.5l-25 92q112 -5 150.5 45.5t38.5 109.5q0 35 -10 49q-10 -4 -19 10q-19 -5 -38 -5q-23 -8 -40 -8q-41 0 -71.5 31t-30.5 74z" />
<glyph unicode="&#x2022;" horiz-adv-x="964" d="M65 962q100 19 336 41q-113 63 -140 162q100 7 217 -79q-17 123 38 318q26 -81 35 -143q28 -199 46 -167l198 61q-27 -100 -149 -160q140 -44 318 -58q-43 -123 -269 -108l32 -48q69 -81 116 -168q-114 21 -255 148q-35 -156 -56 -357l-24 -73q-53 102 -68 432 q-84 -87 -197 -150q8 69 113 221q-296 25 -291 128z" />
<glyph unicode="&#x202f;" horiz-adv-x="395" />
<glyph unicode="&#x2039;" horiz-adv-x="682" d="M93 416l2 18q2 6 2 17.5v23.5q0 17 8 31t55.5 55t105.5 125t94 125t40 57l21 9l41 24q16 -35 0 -84q-9 -22 -11 -26.5t-21.5 -53.5t-45 -99t-55 -92t-39 -58.5t-9.5 -24.5q0 -14 41 -72.5t60 -95.5q39 -64 66.5 -113t27.5 -69q0 -23 -19 -13l-16 2l-22 7q-23 4 -43.5 10 t-41 32.5t-91 103.5t-110.5 108.5t-40 52.5z" />
<glyph unicode="&#x203a;" horiz-adv-x="682" d="M93 901l18 -4l58 -29q12 0 32.5 -18.5t41 -45t91 -103t110.5 -108.5t40 -52l-2 -19q-2 -6 -2 -17v-24q0 -16 -8.5 -30.5t-55.5 -55.5t-105.5 -125t-84 -125t-49.5 -57l-17 -8l-49 -14q-2 24 -2 45q0 12 10.5 37.5t28.5 72.5t49 95.5t55.5 92.5t33.5 60t9 25 q0 14 -40.5 72.5t-59.5 95.5q-39 63 -66.5 112t-27.5 70q0 22 -8 57z" />
<glyph unicode="&#x205f;" horiz-adv-x="494" />
<glyph unicode="&#x20ac;" horiz-adv-x="1245" d="M66 662l7 113l7 7h878v-113zM66 662l7 113l7 7h878v-113zM87 945v113l913 7v-128zM87 945v113l913 7v-128zM119 628q150 816 1043 985q46 4 99 19q-20 -159 8 -269l5 -30l-64 11q-459 -42 -739 -456q-154 -225 -38 -512q180 -188 541 45l198 169l19 9l30 -105 q-2 -36 40 -179l9 -40q-206 -182 -463 -246q-409 -116 -609 275l-59 187l-10 45l-1 44l-8 14z" />
<glyph unicode="&#x25fc;" horiz-adv-x="1670" d="M0 0v1670h1670v-1670h-1670z" />
</font>
</defs>
</svg>
